<?xml version="1.0" encoding="utf-8"?>
<!-- Generator: Adobe Illustrator 24.0.0, SVG Export Plug-In . SVG Version: 6.00 Build 0)  -->
<svg version="1.1" id="Layer_1" xmlns="http://www.w3.org/2000/svg" xmlns:xlink="http://www.w3.org/1999/xlink" x="0px" y="0px"
	 viewBox="0 0 1920 1080" style="enable-background:new 0 0 1920 1080;" xml:space="preserve">
<style type="text/css">
	.st0{fill:#2574A5;}
	.st1{fill:#3FA9F5;}
	.st2{fill:#FFFFFF;}
	.st3{fill:#D5D8DF;}
	.st4{fill:#299ECC;}
	.st5{fill:#B26634;}
	.st6{fill:#A15C33;}
	.st7{fill:#1A2445;}
	.st8{fill:#A6AFC6;}
	.st9{fill:#626982;}
</style>
<g>
	<path class="st0" d="M1278.65,855.64c-1.3,5.03-6.52,35.18,0,108.86c6.52,73.7,7.82,115.05,7.82,115.05h126.27
		c0,0-12.04-270.8-12.49-274.16c-0.44-3.35-49.14-19.26-82.77-16.33C1283.87,791.99,1278.65,855.64,1278.65,855.64z"/>
	<path class="st1" d="M1357.82,828.2c0,0-12.73,129.3-6.86,155.35c5.86,26.06,5.45,22.14,22.59,52.1
		c17.14,29.96,26.71,43.89,26.71,43.89l152.98-0.01c0,0,6.34-39.75,8.1-59.52c1.77-19.77,2.04-42.99-8.1-101.61
		c-10.13-58.62-18.61-71.65-21.53-70.35C1528.78,849.37,1357.82,828.2,1357.82,828.2z"/>
	<path class="st0" d="M1363.67,873.68c0,0,8.84,96.41,19.64,113.78c10.8,17.37,38.92,27.4,65.52,34.74
		c14.23,3.93,110.56,15.04,110.56,15.04s6.16-53.86,4.42-70.36c-1.74-16.5-28.12-93.21-28.12-93.21H1363.67z"/>
	<path class="st2" d="M1160.8,675.46c0,0,9.77,12.38,22.79,11.06c13.02-1.3,19.54-6.5,23.45-11.06c3.91-4.56,1.41-10.45,1.41-10.45
		l9.28,8.9c0,0-5.48,32.16-11.34,35.42c-5.86,3.26-23.4,8.67-26.06,4.01c-2.65-4.66-8.26-8.26-8.26-8.26s-14.54-21.15-15.19-25.72
		c-0.65-4.56,0-7.34,0-7.34L1160.8,675.46z"/>
	<g>
		<path class="st1" d="M1296.98,418.18c0,0-25.02,42.99-29.15,74.9c-4.12,31.92-13.56,74.46-8.36,99.01
			c5.21,24.55,8.36,64.48,8.36,64.48s-56.41,9.75-59.38,8.45c-2.96-1.3,10.96,7.84-0.11,30.63c-11.07,22.8-22.8,20.19-41.03,5.87
			c-5.97-4.69,6.58,23.23,15.59,27.85c23.19,11.89,110.78,6.72,110.78,6.72s12.38-2,18.24-20.24c5.86-18.23,13.19-56.66,6.92-87.93
			c-6.27-31.26-31.02-128.96-30.37-151.76C1289.12,453.35,1296.98,418.18,1296.98,418.18z"/>
		<path class="st0" d="M1262.96,733.23c0,0,13.89-3.72,26.92-32.39c13.03-28.66,11.61-115.56,11.61-115.56s-12.48-26.81-15.95-47.25
			c-3.47-20.44-7.85-69.49-1.75-76.23c6.09-6.74,46.05,89.27,48.65,120.3c2.61,31.03-7.81,126.56-19.97,139.6
			c-12.16,13.02-20.59,15.68-32.47,15.51c-11.88-0.17-32.19,0.01-32.19,0.01L1262.96,733.23z"/>
	</g>
	<path class="st2" d="M1357.18,587.36c-0.49-1.47-15.14-55.69-12.45-90.86c2.69-35.17,21.65-106.98,23-107.2
		c1.35-0.23,14.09-6.23,17.35-3.92c3.26,2.3,8.74,11.48,8.74,11.48l65.57-67.43c0,0,21.87,3.85,24.32,8.77
		c2.44,4.92-51.29,84.06-60.57,104.58c-9.28,20.52-47.39,96.73-51.78,114.31c-4.4,17.59-6.33,45.81-6.33,45.81L1357.18,587.36z"/>
	<path class="st3" d="M1395.41,398.78c0.48,0.58,57.58-37.94,65.03-23.83c4.47,8.47-36.28,66.93-41.28,77.2
		c-2.36,4.85-16.15-51.82-25.35-42.53c-9.2,9.28-24.89,29.25-28.81,38.28c-3.93,9.03-8.81,45.18-6.85,65.21
		c1.95,20.02,11.51,50.39,11.51,50.39l-4.65,39.38c0,0-12.2-30.77-14.88-46.35c-2.69-15.59-6.58-49.14-5.41-60.04
		c1.17-10.88,12.61-69.56,14.57-77.38c1.97-7.82,8.43-29.82,8.43-29.82l15.26-5.02L1395.41,398.78z"/>
	<path class="st1" d="M1245.8,954.24c0,0,16.61-92.82,24.43-135.81c7.81-42.98,40.06-124.08,42.01-151.44
		c1.95-27.36-14.65-96.73-23.45-140.69c-8.79-43.97-6.1-77.68,1.95-99.66c5.59-15.23,54.33-39.46,54.33-39.46l24.95-2.91
		c0,0-36.27,92.52-14.07,189.89c4.66,20.41,11.27,26.71,14.07,55.04c2.79,28.34-2.59,88.58-14.07,156
		c-11.48,67.42-17.34,111.38-41.77,137.76s-36.15,26.38-46.89,31.27C1256.55,959.13,1245.8,954.24,1245.8,954.24z"/>
	<path class="st0" d="M1344.51,681.98c20.27-29.31,25.51-46.9,25.51-46.9l-0.66,45c0,0,1.17,46.84-17.06,80.71
		c-18.24,33.87-37.24,35.83-44.02,35.83c-6.78,0-6.78-5.21-6.78-5.21s11.07-7.17,20.19-18.24c9.12-11.07,19.81-35.82,26.84-50.81
		c7.02-14.97,12.24-37.77,12.24-42.99c0-5.21-8.72,13.02-25.2,31.92c-16.49,18.89-21.7,22.8-24.3,18.24c0,0,8.73-11.07,10.42-13.68
		C1323.37,713.24,1324.24,711.29,1344.51,681.98z"/>
	<path class="st4" d="M1367.72,613.5c0,0-27.8-38.34-39.52-70.26c-11.73-31.92-15.46-45.26-19.92-73.61
		c-2.15-13.62-0.19-21.73-0.19-21.73l14.9-12.95l-14.71-14.82l10.56-16.72c0,0,14.92-13.23,29.69-19.14c10.27-4.11,21.49,0,21.49,0
		s-15.4,44.24-17.73,69.34c-2.33,25.1,1.16,97.57,3.66,113.72C1358.46,583.48,1367.72,613.5,1367.72,613.5z"/>
	<path class="st1" d="M1483.7,338.19c0,0,54.88,35.29,79.63,42.01c24.76,6.72,36.92,22.6,44.95,29.42
		c17.81,15.14,22.14,33.31,16.28,73.7c-5.86,40.39-23.78,122.12-32.9,163.16c-9.12,41.04-28.34,84.03-28.34,115.29
		c0,31.26,15.63,69.36,24.43,112.36c8.8,42.99,11.73,65.46,15.63,86.96c3.91,21.49,3.91,31.27-0.97,33.22
		c-4.89,1.96-102.59,16.61-135.81,9.77c-33.22-6.85-77.92-20.52-91.72-57.65c-13.81-37.12-22-100.36-22.59-118.22
		c-0.58-17.86,11.66-97.7,13.64-112.36c1.99-14.64,15.44-74.25,4.81-97.69c-10.63-23.45-8.66-16.61-5.73-32.25
		c2.91-15.63,38.44-102.39,50.74-127.46c12.31-25.07,45.41-79.2,45.41-79.2L1483.7,338.19z"/>
	<path class="st0" d="M1354.17,853.64c0,0,6.74-65.04,12.72-96.3c5.98-31.27,8.86-86.26,12.52-101.9
		c3.66-15.63-3.51-32.64,3.58-59.02c7.08-26.38,83.69-112.04,108.54-135.49c24.84-23.45,36.79-42.72,36.79-42.72l28.15-41
		l-39.59-20.07l-25.35-9.6c0,0-123.08,225.51-126.87,248.97c-3.79,23.45,5.01,24.33,5.37,38.57
		c0.35,14.24-18.36,154.24-18.36,175.56C1351.66,831.96,1354.17,853.64,1354.17,853.64z"/>
	<path class="st0" d="M1546.72,497.98c0,0,0,11.71-8.79,50.8c-8.8,39.08-17.59,42.99-33.22,76.21
		c-15.63,33.21-27.35,64.48-10.74,101.61c16.61,37.13,81.77,99.75,81.77,99.75s-16.87-49.51-11.72-75.35
		c5.15-25.84,23.65-86.02,30.38-116.8c6.73-30.77,32.36-125.49,28.49-140.14c-3.86-14.65-24.38-15.62-43.92-13.67
		C1559.43,482.33,1546.72,497.98,1546.72,497.98z"/>
	<path class="st4" d="M1580.91,397.82c-5.02,2.38-27.61,28.15-34.28,60.01c-6.67,31.86-10.48,112.79-5.71,138.5
		c4.76,25.71,9.56,33.64,9.56,33.64s-6.94-0.44-20.98,0c-20.73,0.66-7.19-2.17-30.29-5.34c-23.11-3.18-24.32-7.25-71.58-15.69
		c-30.02-5.35-33.8-4.32-33.8-4.32v96.44c0,0,136.63,19.04,167.09,23.8c30.47,4.76,53.32,16.19,71.41,0
		c18.08-16.19,25.7-29.52,26.66-67.6s-7.62-105.66-15.23-160.89c-7.61-55.23-4.76-66.66-15.23-81.89
		c-10.47-15.24-22.63-20.04-30.97-21.12C1589.19,392.28,1590.18,393.42,1580.91,397.82z"/>
	<g>
		<path class="st5" d="M1234.3,624.62c0,0,39.88-22.38,53.51-29.93c13.63-7.55,17.75-17.58,31.02-9.77
			c13.27,7.82,56.06,28.58,56.06,28.58l-8.92,52.84c0,0-6.88,3.26-17.44-3.26c-10.56-6.51-30.58-14.57-37.18-17.38
			c-6.6-2.81-9.2,4.99-18.98,7.28c-9.77,2.29-17.58-6.83-22.14-10.74c-4.56-3.91-3.26-9.77-1.96-14.33
			c1.3-4.56-22.47,6.27-22.47,6.27L1234.3,624.62z"/>
		<polygon class="st6" points="1293.68,600.56 1242.01,629.23 1245.8,634.19 1268.27,627.91 		"/>
	</g>
	<path class="st1" d="M1475.64,618.81c0,0,14.11,16.82,25.21,36.76c11.1,19.95,22.72,26.29,27.48,29.46
		c4.75,3.18-18.51-28.17-20.09-33.1c-1.58-4.94,27.47,22.54,28.54,24.13c1.06,1.59,16.91,15.33,16.91,15.33
		s-24.31-46.52-25.36-47.31c-1.06-0.78,22.7,18.29,31.18,28.28c8.47,9.99,21.66,25.89,20.6,19.03c-1.05-6.88-24.83-40.7-26.42-43.86
		c-1.59-3.17,20.08,1.05,20.08,1.05s22.72,11.63,25.36,16.38c2.64,4.76,0-12.15-3.17-14.8c-3.17-2.64-22.72-16.9-22.72-16.9
		l26.98-8.63c0,0-3.3-9.44-15.97-7.25c-12.69,2.18-24.22-5.33-24.22-5.33s0.53-13.67,12.16-29c11.63-15.32-10.04-1.59-16.38,0
		c-6.34,1.59-5.74-8.98-6.04-11.09c-0.3-2.11,10.8-17.97,15.03-24.31c4.23-6.34,5.81-12.16,8.99-16.91
		c3.17-4.76,5.81-11.63-6.35-2.11c-12.15,9.51-23.01,26.26-27.54,34.23c-1.27,2.24,0.27,30.61,1.91,38.7
		c1.65,8.09,7.96,28.01,7.96,28.01s-6.31,0.18-14.99-0.72c-13.61-1.41-10.39-1.99-23.11-3.42
		C1498.94,623.96,1475.64,618.81,1475.64,618.81z"/>
	<path class="st5" d="M1274.38,267.04c0,0,6.59,17.13,10.54,27.67c3.95,10.54,8.34,14.05,13.18,15.81c4.82,1.76,8.34,5.27,8.78,7.03
		c0.44,1.76,2.19,30.3,3.08,32.94c0.87,2.63,7.03,3.51,14.05,2.63c7.03-0.88,10.1,10.98,13.17,15.37c3.08,4.39,7.9,7.03,9.67,10.98
		c1.75,3.95,3.95,9.66,7.46,10.54c3.52,0.88,20.64,1.33,27.67-3.73c7.03-5.06,13.17,10.32,13.17,10.32s68.07-60.16,68.95-61.48
		c0.87-1.32-25.03-31.18-28.11-38.21c-3.07-7.03-10.98-14.05-11.86-24.59c-0.87-10.54-3.07-22.84-10.54-27.23
		c-7.46-4.39-22.83,1.32-25.47,10.1c-2.64,8.78-3.51,18-3.51,18v9.66l-7.15,3.71c0,0-13.48-13.81-20.08-20.83
		c-6.59-7.03-12.3-21.91-18.89-22.15c-6.59-0.24-13.17,0.64-21.95,2.83c-8.79,2.2-28.98,6.59-34.69,10.1
		C1276.14,260.02,1274.38,267.04,1274.38,267.04z"/>
	<path class="st7" d="M1254.84,264.63c6.09,3.99,16.47,5.05,28.98,3.08c12.51-1.98,20.64-5.49,31.84-11.42
		c11.2-5.93,15.15-8.78,19.32-7.24c4.17,1.54,8.13,13.65,16.25,19.12c8.12,5.47,25.47,19.74,25.47,19.74l8.71-4.83
		c0,0,4.34-25.19,6.21-30.61c1.64-4.74,9.68-10.48,15.83-8.93c6.15,1.55,13.52,10.39,14.54,15.1c1.02,4.72-2.17,17.81,0.25,23.09
		c2.41,5.28,14.02,15.7,14.02,15.7l5.45-2.94c0,0-0.44-44.13,0-57.75c0.44-13.61-9.88-43.25-19.76-52.7
		c-9.88-9.44-14.05-16.91-30.08-19.98c-16.03-3.07-33.59-2.41-47.21,0c-13.61,2.42-28.99,8.78-44.36,23.49
		c-15.36,14.71-18.22,22.62-27.22,33.38c-9.01,10.76-14.49,20.39-19.55,22.6c-5.05,2.21-7.02,5.94-4.83,11.21
		C1250.89,260.02,1252.41,263.03,1254.84,264.63z"/>
	<g>
		<g>
			<path class="st6" d="M1382.99,384.28c0,0,8.2-4.82,12.81-10.09c4.61-5.27,12.3-14.93,14.28-20.42c1.98-5.49,1.32-7.9,0-15.37
				c-1.32-7.47-9.22-24.16-9.22-24.16s13.32,13.01,14.27,15.21c3.75,8.73,3.95,17.5,3.74,21.9c-0.22,4.39-1.86,25.88-1.86,25.88
				l-21.86,19.35L1382.99,384.28z"/>
			<path class="st6" d="M1327.74,352.46c0,0,5.71-2.41,7.68-3.95c1.98-1.54,3.73-3.08,3.29-4.83c-0.44-1.76-1.76-7.03-1.98-8.78
				c-0.22-1.76,1.76-4.83,3.52,0c1.75,4.83,3.29,10.54,4.83,13.18c1.54,2.63,5.93,2.63,7.91,3.29c1.97,0.66,4.83,4.06,4.83,4.06
				s-10.98-1.87-13.61-3.4C1341.57,350.48,1327.74,352.46,1327.74,352.46z"/>
			<path class="st6" d="M1341.15,372.87c0,0,1.96,0.22,5.46-1.53c3.51-1.76,6.15-3.07,6.15-3.07s2.19,4.83,1.53,7.46
				c-0.66,2.64-6.52,5.89-6.52,5.89s-1.13-2.99-2.26-4.31C1344.38,375.99,1341.15,372.87,1341.15,372.87z"/>
		</g>
	</g>
	<polygon class="st2" points="1365.01,672.03 1393.82,682.63 1393.82,613.5 1374.89,613.5 	"/>
	<path class="st2" d="M1355.96,434.95c0.48-1.46,37.86-38.1,37.86-38.1l-10.83-12.57l-15.95,7.35c0,0-1.75,9.85-6.14,21.51
		C1356.5,424.79,1355.96,434.95,1355.96,434.95z"/>
	<path class="st2" d="M1420.21,438.37c-0.5-2.44-4.9-14.65-9.79-21.01c-4.88-6.35-16.61-20.51-16.61-20.51s62.51-72.58,60.9-74.68
		c-1.61-2.1,12.27,3.89,17.64,7.24c5.38,3.35,8.9-0.06,11.35,8.77c2.44,8.83-19.54,35-28.82,46.09
		C1445.6,395.38,1420.21,438.37,1420.21,438.37z"/>
	<path class="st4" d="M1510.88,422.92c0,0-67.34,83.38-92.01,110.73c-24.67,27.36-33.46,35.46-45.74,53.78
		c-8.82,13.15-8.12,21.23-8.12,21.23s-6-29.58,6.27-57.72c12.27-28.14,51.33-105.03,63.59-131.05
		c12.26-26.02,34.8-58.61,40.01-68.11c5.22-9.5,5.41-12.88,5.41-12.88v-9.48l57.64,30.35l-17.29,41.17l-26.38,8.3L1510.88,422.92z"
		/>
	<path class="st0" d="M1167.31,701.52c0,0,8.36,16.26,14.22,18.22c5.86,1.96,18.45,0.04,24.86-10.41
		c6.41-10.44,7.62-38.98,7.62-38.98s-2.52,19.43-7.73,27.9c-5.21,8.47-9.55,17.35-20.77,12.86
		C1174.3,706.61,1167.31,701.52,1167.31,701.52z"/>
	<polygon class="st8" points="1033.67,538.03 1132.24,538.03 1280,659.18 1179.58,659.18 	"/>
	<path class="st5" d="M1124.21,582.09c-10.89,0-7.06,33.92,1.63,53.2c8.69,19.27,29.23,38.33,29.23,38.33s5.28,10,18.86,13.11
		c13.58,3.11,17.84,2.29,26.49-4.1c8.65-6.39,9.88-9.34,8.03-12.28c-1.36-2.17-1.88-9.36-2.5-13.71
		c-0.62-4.34,4.96-11.74,7.44-16.75c2.49-5.02,0.02-9.49-4.95-10.05c-4.96-0.56-22.94,16.64-22.94,16.64l1.56-7.19
		c0,0,7.98-15.72,6.49-21.81c-0.53-2.13-4.28-3.52-8.04-3.52c-3.75,0-6.24-1.09-8.72,3.52c-2.48,4.6-13.93,20.18-13.93,20.18
		s-5.3,6.43-2.2-6.31c3.1-12.75,8.17-22.9,5.98-30.17c-1.67-5.54-7.15-8.71-11.84-5.8c-4.69,2.9-13.38,29.51-13.38,29.51
		s-2.75-0.75-3.85-5.79c-1.77-8.14-2.38-22.68-3.58-27.37C1132.23,584.89,1130.4,582.09,1124.21,582.09z"/>
	<polygon class="st3" points="1037.14,533.65 1033.67,538.03 1132.24,538.03 1133.99,533.65 	"/>
	<polygon class="st9" points="1133.99,533.65 1284.68,656.55 1280,659.18 1132.24,538.03 	"/>
	<path class="st6" d="M1137.97,624.62c0,0-3.33-9.77-3.98-13.67c-0.65-3.91-0.54-16.61-1.74-19.22c-1.19-2.6-2.23-8.05-2.23-8.05
		s3.45,2.88,4.31,9.74s2.27,22.82,3.25,25.68c0.97,2.85,3.85,5.79,3.85,5.79L1137.97,624.62z"/>
	<path class="st6" d="M1159.7,637.65c0,0-1.32-8.14,0-15.95c1.32-7.82,4.25-16.28,4.9-17.43c0.65-1.14,0.95-5.2,2.04-3.09
		c1.09,2.1,0.04,13.08-0.67,17.94c-0.71,4.86-0.57,15.06-0.57,15.06l-4.41,5.02L1159.7,637.65z"/>
	<path class="st6" d="M1185.79,645.22c0,0,2.26-11.46,2.91-15.05c0.65-3.58,3.54-14.4,3.54-14.4s1.96,3,1.02,7.28
		c-0.93,4.29-3.18,19.24-3.18,19.24l-4.57,4.18"/>
	<path class="st6" d="M1209.18,674.14c0,0-5.5-15.3-5.17-18.57c0.32-3.25,1.54-6.16,4.45-9.09c2.91-2.92,5.88-9.75,5.88-9.75
		s0.42,7.5-1.53,9.75c-1.96,2.25-7.17,6.81-5.87,10.4c1.31,3.58,2.24,8.79,2.24,8.79V674.14z"/>
</g>
</svg>
