<?xml version="1.0" encoding="utf-8"?>
<!-- Generator: Adobe Illustrator 24.0.0, SVG Export Plug-In . SVG Version: 6.00 Build 0)  -->
<svg version="1.1" id="Layer_1" xmlns="http://www.w3.org/2000/svg" xmlns:xlink="http://www.w3.org/1999/xlink" x="0px" y="0px"
	 viewBox="0 0 448.85 89.4" style="enable-background:new 0 0 448.85 89.4;" xml:space="preserve">
<style type="text/css">
	.st0{fill:none;}
	.st1{fill-rule:evenodd;clip-rule:evenodd;fill:#F47621;}
	.st2{fill-rule:evenodd;clip-rule:evenodd;fill:#F36E42;}
	.st3{fill-rule:evenodd;clip-rule:evenodd;fill:#F36E41;}
	.st4{fill-rule:evenodd;clip-rule:evenodd;fill:#F36F44;}
	.st5{fill-rule:evenodd;clip-rule:evenodd;fill:#F36D40;}
	.st6{fill-rule:evenodd;clip-rule:evenodd;fill:#F36F43;}
	.st7{fill-rule:evenodd;clip-rule:evenodd;fill:#F47A53;}
</style>
<g>
	<path class="st0" d="M106.88,62.49c-0.39-0.07-0.79-0.15-1.18-0.24c-4.07-0.92-8.15-1.85-12.22-2.76c-0.19-0.04-0.4-0.15-0.63,0.03
		c0,0.1-0.01,0.22,0,0.34c1.03,4.59,2.07,9.17,3.12,13.76c0.01,0.07,0.07,0.15,0.15,0.27c0.45-0.27,0.75-0.67,1.09-1
		c0.37-0.34,0.7-0.76,1.18-1.09c0.42,0.4,0.82,0.78,1.22,1.16c2.24,2.16,4.44,4.34,6.89,6.27c6.41,5.07,13.68,8.05,21.79,8.93
		c2.47,0.27,4.96,0.3,7.45,0.1c2.46-0.19,4.89-0.57,7.27-1.15c7.26-1.8,13.61-5.28,19-10.45c5.43-5.2,9.15-11.43,11.25-18.65
		c0.83-2.91,1.37-5.86,1.52-8.88c0.21-3.98-0.19-7.91-1.1-11.8c-2.22-9.42-7.08-17.23-14.52-23.39c-7.42-6.14-16.07-9.09-25.64-9.46
		c-2.52-0.1-5.04,0.1-7.54,0.48c-4.29,0.64-8.36,1.94-12.27,3.85c-3.31,1.61-6.29,3.73-9.17,6.01c-3.71,2.95-7.18,6.17-10.57,9.49
		c-3.96,3.91-7.93,7.82-11.89,11.73c-0.61,0.6-1.27,1.18-1.89,1.76c-0.04,0.04-0.1,0.04-0.3,0.12c-0.13-0.18-0.3-0.4-0.48-0.6
		c-1.68-1.85-3.35-3.68-5.04-5.51c-2.89-3.14-5.86-6.22-9.02-9.11c-1.18-1.07-2.4-2.1-3.73-3.01c-4.84-3.28-10.19-4.96-16.04-5.01
		c-1.88-0.01-3.74,0.18-5.59,0.54c-6.14,1.21-11.46,3.98-15.81,8.51c-4.62,4.8-7.24,10.55-7.87,17.19c-0.25,2.73-0.18,5.47,0.3,8.18
		c0.64,3.58,1.88,6.93,3.8,10.02c4.5,7.18,12.52,12.8,21.91,13.68c2.4,0.22,4.78,0.24,7.17-0.09c4.01-0.57,7.77-1.88,11.18-4.05
		c1.51-0.95,2.95-2,4.37-3.09c3.09-2.34,5.95-4.98,8.7-7.69c2.52-2.49,4.99-5.01,7.5-7.51c1.42-1.42,2.85-2.82,4.26-4.22
		c0.39-0.39,0.76-0.8,1.16-1.19c1.16-1.13,2.35-2.25,3.52-3.4c2.74-2.7,5.5-5.37,8.2-8.11c2.22-2.25,4.49-4.47,6.84-6.59
		c2.92-2.64,5.93-5.16,9.2-7.39c5.05-3.46,10.67-5.25,16.75-5.54c3.12-0.16,6.2,0.15,9.24,0.89c6.38,1.56,11.86,4.72,16.31,9.55
		c4.74,5.16,7.51,11.25,8.33,18.23c0.4,3.47,0.3,6.95-0.46,10.36c-1.82,8.32-6.22,14.98-13.15,19.91
		c-5.38,3.85-11.42,5.77-18.02,5.93c-2.47,0.06-4.9-0.19-7.33-0.69c-4.77-0.98-9.12-2.89-13-5.87c-2.79-2.15-5.28-4.61-7.77-7.08
		c-0.06-0.06-0.07-0.16-0.1-0.25c0.64-0.67,1.28-1.33,1.92-2c0.25,0.21,0.54,0.4,0.78,0.64c1.77,1.8,3.61,3.52,5.56,5.13
		c4.83,4.01,10.36,6.3,16.63,6.75c2.8,0.19,5.59-0.03,8.35-0.63c11.54-2.52,21.55-12.34,22.73-25.59c0.27-2.97,0.18-5.9-0.48-8.81
		c-1.98-8.76-6.89-15.38-14.77-19.73c-3.52-1.94-7.3-3-11.31-3.35c-2.53-0.22-5.04-0.13-7.53,0.3c-4.31,0.75-8.23,2.41-11.82,4.9
		c-2.44,1.68-4.64,3.65-6.9,5.54c-0.13,0.12-0.28,0.24-0.4,0.39c-1.09,1.28-2.41,2.28-3.76,3.25c-0.09,0.07-0.22,0.13-0.27,0.24
		c-0.24,0.61-0.75,0.95-1.21,1.36c-0.22,0.19-0.48,0.37-0.6,0.69c-0.07,0.19-0.25,0.34-0.4,0.49c-2.07,2.07-4.13,4.13-6.2,6.19
		c-1.49,1.48-3.01,2.91-4.49,4.38c-3.76,3.73-7.41,7.54-11.27,11.16c-1.77,1.65-3.4,3.47-5.22,5.08c-0.88,0.78-1.67,1.64-2.52,2.44
		c-1.03,0.97-2.03,1.97-3.12,2.88c-1.71,1.45-3.5,2.79-5.37,4.07c-4.78,3.28-10.06,5.1-15.83,5.53c-2.86,0.21-5.71,0.07-8.54-0.46
		c-6.56-1.25-12.27-4.16-16.99-8.87c-6.02-5.99-9.14-13.29-9.57-21.76c-0.15-2.88,0.15-5.71,0.8-8.51
		c1.82-7.72,5.93-13.97,12.25-18.75c4.81-3.65,10.27-5.75,16.29-6.32c3.16-0.3,6.32-0.15,9.45,0.48c4.62,0.91,8.88,2.67,12.68,5.46
		c2.86,2.09,5.46,4.5,7.88,7.08c0.15,0.15,0.28,0.33,0.43,0.51c-0.33,0.58-0.98,0.85-1.3,1.39c0.07,0.07,0.1,0.13,0.15,0.15
		c4.56,1.39,9.11,2.76,13.67,4.13c0.07,0.03,0.16,0.01,0.31,0.01c-0.01-0.18-0.01-0.33-0.03-0.46c-0.28-1.88-0.57-3.77-0.83-5.65
		c-0.4-2.74-0.78-5.47-1.18-8.21C83.18,16.3,83.09,16.19,83,16c-1,0.94-1.97,1.88-3,2.77c-0.42-0.25-0.72-0.58-0.98-0.91
		c-0.7-0.86-1.54-1.59-2.34-2.35s-1.62-1.51-2.43-2.27c-2.5-2.34-5.26-4.35-8.26-6.02c-5.05-2.83-10.48-4.53-16.25-5.11
		c-2.41-0.24-4.84-0.27-7.27-0.09c-3.29,0.25-6.51,0.83-9.67,1.8c-5.96,1.85-11.27,4.87-15.87,9.09
		C8.54,20.59,4.07,30.15,3.26,41.44c-0.31,4.41,0.12,8.78,1.25,13.07c2.25,8.44,6.62,15.59,13.24,21.3
		c7.84,6.75,17.05,9.96,27.35,10.14c3,0.06,5.95-0.28,8.88-0.89c6.86-1.42,12.89-4.52,18.38-8.81c1.79-1.4,3.55-2.85,5.2-4.4
		c1.39-1.3,2.8-2.59,4.19-3.91c0.82-0.78,1.61-1.61,2.43-2.38c1-0.95,2.03-1.88,3.01-2.86c2.64-2.62,5.25-5.28,7.87-7.91
		c0.85-0.85,1.71-1.67,2.59-2.53c0.45,0.54,0.89,1.04,1.31,1.56c1.34,1.64,2.76,3.22,4.31,4.68C104.55,59.7,105.7,61.1,106.88,62.49
		z M411.6,20.56c0.39,0.01,0.78,0.04,1.18,0.04c8.26,0,16.51,0,24.76,0c0.3,0,0.6-0.01,0.89,0c1.46,0.07,2.34,0.95,2.35,2.41
		c0.01,2.19,0.01,4.38,0,6.59c0,0.21-0.07,0.4-0.13,0.66c-0.49,0-0.94,0-1.39,0c-8.73,0-17.47,0-26.22,0c-0.3,0-0.6-0.01-0.89,0
		c-0.21,0.01-0.42,0.07-0.64,0.1c-0.03,0.21-0.06,0.34-0.06,0.49c0,3.91-0.01,7.81,0.01,11.72c0,0.55,0.09,1.12,0.21,1.65
		c0.55,2.44,3.17,5.17,6.63,5.16c8.85-0.03,17.69,0,26.55-0.01c0.21,0,0.43-0.04,0.72-0.07c0.01-0.4,0.04-0.76,0.04-1.12
		c0-2.12,0-4.23,0-6.36c0-6.17,0-12.34,0-18.51c0-0.82-0.06-1.64-0.3-2.43c-0.88-3.01-3.59-5.01-6.87-5.01
		c-8.66-0.01-17.32,0-25.99,0c-0.28,0-0.58,0.03-0.85,0.04C411.44,16.84,411.43,19.49,411.6,20.56z M382.33,44.66
		c-0.54,0-0.94,0-1.36,0c-8.29,0-16.57,0-24.86,0c-0.37,0-0.75,0.01-1.12-0.01c-0.91-0.07-1.68-0.7-1.94-1.59
		c-0.09-0.31-0.12-0.66-0.13-0.98c-0.01-2.12-0.01-4.23,0-6.35c0-0.21,0.07-0.42,0.12-0.67c0.46,0,0.86,0,1.27,0
		c5.84,0,11.67,0,17.51,0c3.16,0,6.32,0,9.48,0c0.33,0,0.67,0.09,0.98-0.16c0.01-0.13,0.04-0.27,0.04-0.42
		c0-3.98,0.03-7.96-0.01-11.94c-0.03-3.13-2.46-5.66-5.05-6.38c-0.76-0.21-1.54-0.27-2.31-0.27c-6.47,0.01-12.94,0-19.41,0
		c-0.22,0-0.45,0-0.67,0c-2.94,0.1-5.63,2.21-6.42,5.01c-0.21,0.76-0.28,1.54-0.28,2.31c0.01,4.46,0,8.93,0,13.38
		c0,2.01-0.03,4.01,0.01,6.02c0.06,3.2,2.44,6.05,5.56,6.66c0.58,0.12,1.18,0.1,1.77,0.12c5.05,0.01,10.11,0,15.17,0
		c3.49,0,6.99,0,10.48,0c0.36,0,0.73,0.07,1.12-0.13C382.38,47.78,382.35,46.3,382.33,44.66z M244.18,49.39L244.18,49.39
		c3.46,0,6.92,0,10.37,0c3.4,0,5.81-2.59,6.48-4.77c0.25-0.82,0.36-1.67,0.36-2.52c-0.01-4.95,0-9.88,0-14.83
		c0-1.49,0.01-2.98,0-4.46c-0.03-1.91-0.72-3.55-2.09-4.89c-1.33-1.31-2.94-2-4.8-2.03s-3.71-0.01-5.57-0.01c-4.95,0-9.88,0-14.83,0
		c-3.35,0-6.17,2.59-6.74,5.6c-0.1,0.58-0.12,1.18-0.12,1.77c-0.01,6.25,0,12.49,0,18.74c0,0.25,0,0.52,0,0.78
		c0.03,1.42,0.49,2.7,1.36,3.82c1.4,1.8,3.22,2.82,5.56,2.8C237.49,49.39,240.83,49.39,244.18,49.39z M192.25,49.28
		c0.21-0.37,0.1-0.79,0.1-1.19c0-8.06,0-16.14,0-24.21c0-0.37-0.01-0.75,0.01-1.12c0.07-0.98,0.67-1.76,1.62-2.03
		c0.36-0.1,0.73-0.13,1.1-0.13c6.39-0.01,12.79,0,19.18,0c0.3,0,0.6,0.01,0.88,0.07c1.07,0.22,1.74,1.03,1.8,2.12
		c0.01,0.3,0.01,0.6,0.01,0.89c0,3.93,0,7.88,0,11.82c0,4.2,0,8.41,0,12.61c0,0.4-0.1,0.82,0.12,1.18c1.19,0.15,3.79,0.12,4.62-0.06
		c0-0.39,0.01-0.79,0.01-1.19c0-3.61,0-7.21,0-10.82c0-4.58,0.01-9.15-0.01-13.73c0-0.8-0.04-1.65-0.24-2.43
		c-0.78-3.1-3.55-5.19-6.83-5.19c-8.7-0.01-17.41,0-26.11,0c-0.28,0-0.58,0.03-0.86,0.06c-0.04,0.15-0.12,0.25-0.12,0.36
		c0,10.9,0,21.79,0,32.69c0,0.1,0.06,0.21,0.09,0.3C188.57,49.43,191.33,49.43,192.25,49.28z M269.92,15.88
		c-0.89,0-1.64-0.01-2.37,0c-0.76,0.03-1.54-0.12-2.35,0.13c0,0.4,0,0.78,0,1.15c0,8.21,0,16.44,0,24.65c0,0.25,0,0.52,0,0.78
		c0.06,1.79,0.69,3.32,1.92,4.62c1.39,1.45,3.06,2.19,5.07,2.18c2.56-0.01,5.13,0,7.69,0c4.2,0,8.41-0.01,12.61,0
		c3.34,0.01,6.16-2.59,6.71-5.5c0.12-0.61,0.13-1.25,0.13-1.88c0.01-5.13,0-10.27,0-15.4c0-3.23,0-6.47,0-9.7
		c0-0.31,0.1-0.67-0.21-1.04c-0.69,0-1.42-0.01-2.16,0c-0.76,0.03-1.55-0.12-2.35,0.13c0,0.43,0,0.85,0,1.25c0,7.99,0,15.99,0,23.98
		c0,0.33,0,0.67,0,1c-0.04,1.45-0.94,2.4-2.37,2.4c-6.66,0.01-13.31,0.01-19.97,0c-1.34,0-2.24-0.88-2.34-2.21
		c-0.03-0.33-0.01-0.67-0.01-1c0-8.06,0-16.14,0-24.21C269.92,16.85,269.92,16.43,269.92,15.88z M324.41,44.71
		c-0.22-0.34-0.39-0.6-0.52-0.85c-0.98-1.79-1.95-3.59-2.94-5.38c-3.9-7.18-7.81-14.35-11.72-21.54c-0.19-0.36-0.4-0.7-0.6-1.04
		c-1.7,0-3.34,0-4.96,0c-0.1,0-0.21,0.04-0.46,0.12c1.21,2.27,2.44,4.44,3.65,6.65c1.24,2.25,2.47,4.49,3.71,6.74
		c1.22,2.21,2.44,4.43,3.67,6.63c1.24,2.25,2.47,4.5,3.71,6.74c1.22,2.21,2.4,4.43,3.65,6.59c1.89,0,3.71,0,5.53,0
		c0.19-0.34,0.39-0.67,0.57-1c4.43-7.99,8.85-15.99,13.28-23.98c1.4-2.53,2.8-5.07,4.2-7.62c0.13-0.24,0.39-0.48,0.24-0.8
		c-1.33-0.12-4.52-0.09-5.38,0.06c-1.73,3.16-3.46,6.36-5.2,9.55c-1.73,3.16-3.44,6.33-5.16,9.49
		C327.94,38.24,326.23,41.44,324.41,44.71z M392.78,20.64c0.57-0.01,0.97-0.03,1.37-0.03c4.01,0,8.03,0,12.04,0
		c0.36,0,0.75,0.13,1.09-0.22c-0.01-1.45,0.06-2.91-0.04-4.46c-0.46-0.01-0.86-0.04-1.27-0.04c-4.01,0-8.03,0-12.04,0
		c-0.36,0-0.75,0.1-1.13-0.19c0-0.33,0-0.7,0-1.06c0-2.94,0-5.87,0-8.81c0-0.28,0.09-0.6-0.22-0.91c-0.67,0-1.42-0.01-2.16,0
		c-0.76,0.03-1.55-0.13-2.34,0.13c0,0.43,0,0.83,0,1.25c0,11.74,0,23.49,0,35.23c0,0.48-0.01,0.97,0.03,1.45
		c0.03,0.4,0.07,0.82,0.18,1.21c0.6,2.59,3.19,5.22,6.57,5.2c3.91-0.01,7.81,0,11.7,0c0.21,0,0.43-0.04,0.63-0.06
		c0.18-1.01,0.18-3.71-0.01-4.62c-0.34-0.01-0.72-0.04-1.07-0.04c-3.46,0-6.92,0-10.37,0c-0.3,0-0.6,0.01-0.89-0.01
		c-1.09-0.1-1.92-0.95-2.01-2.04c-0.03-0.3-0.01-0.6-0.01-0.89c0-6.62,0-13.24,0-19.85C392.78,21.5,392.78,21.13,392.78,20.64z
		 M341,81.95c0.01-0.42,0.04-0.75,0.04-1.07c0-1.19-0.03-2.38,0.01-3.56c0.01-0.63,0.1-1.27,0.27-1.86
		c0.22-0.79,0.82-1.22,1.62-1.31c0.3-0.03,0.6-0.03,0.89,0c0.72,0.07,1.18,0.45,1.34,1.13c0.1,0.43,0.13,0.88,0.13,1.33
		c0.01,1.52,0,3.04,0.01,4.58c0,0.25,0.04,0.49,0.07,0.78c0.22,0.01,0.42,0.04,0.6,0.04c0.21-0.01,0.42-0.04,0.69-0.09
		c0.01-0.34,0.04-0.64,0.04-0.92c0-1.34-0.01-2.68,0.01-4.01c0.01-0.51,0.09-1.04,0.24-1.52c0.24-0.79,0.82-1.21,1.64-1.3
		c0.3-0.03,0.6-0.03,0.89-0.01c0.67,0.04,1.13,0.39,1.33,1.01c0.12,0.39,0.16,0.8,0.16,1.21c0.01,1.52,0,3.04,0.01,4.58
		c0,0.33,0.03,0.66,0.06,0.98c0.46,0.13,0.83,0.13,1.22,0.01c0.03-0.16,0.07-0.27,0.07-0.37c0-1.89,0.01-3.79,0-5.68
		c0-0.33-0.04-0.67-0.12-1c-0.21-0.85-0.7-1.49-1.56-1.74c-1.4-0.4-2.73-0.28-3.82,0.82c-0.13,0.13-0.27,0.25-0.42,0.39
		c-0.91-1.37-2.19-1.59-3.65-1.28c-0.6,0.12-1.09,0.46-1.51,0.91c-0.06,0.06-0.18,0.07-0.27,0.1c-0.12-0.33-0.24-0.64-0.36-0.97
		c-0.34,0.01-0.63,0.03-0.94,0.04c-0.03,0.18-0.09,0.33-0.09,0.48c0,2.67,0,5.35,0.01,8.02c0,0.1,0.06,0.21,0.12,0.34
		C340.14,81.95,340.51,81.95,341,81.95z M367.58,81.94c0.27,0,0.54,0,0.73,0c0.36-0.25,0.16-0.73,0.58-0.88
		c0.12,0.09,0.24,0.19,0.34,0.28c2.25,1.77,5.16,0.79,5.86-1.97c0.31-1.21,0.33-2.43,0-3.64c-0.12-0.42-0.3-0.85-0.51-1.22
		c-0.39-0.66-0.94-1.16-1.7-1.37c-1.18-0.31-2.35-0.3-3.41,0.42c-0.16,0.12-0.3,0.36-0.63,0.24c-0.01-0.19-0.03-0.4-0.03-0.61
		c0-1.07,0.01-2.15,0-3.23c0-0.21-0.07-0.42-0.12-0.63c-0.24-0.01-0.43-0.04-0.61-0.04c-0.18,0.01-0.36,0.06-0.51,0.07
		C367.43,70.37,367.43,80.96,367.58,81.94z M307.85,77.8c0.1-0.92,0.06-1.7-0.19-2.44c-0.37-1.13-1.09-1.95-2.25-2.28
		c-1.88-0.54-3.89,0.16-4.69,2.33c-0.49,1.33-0.54,2.7-0.12,4.05c0.45,1.43,1.42,2.35,2.89,2.64c1.33,0.25,2.65,0.16,3.9-0.45
		c0.15-0.4,0.16-0.75-0.01-1.15c-0.3,0.07-0.58,0.16-0.85,0.24c-0.76,0.19-1.54,0.31-2.31,0.21c-1.59-0.19-2.43-1.3-2.28-3.04
		C303.86,77.77,305.83,77.93,307.85,77.8z M396.64,77.75c0.18-1.01,0.04-1.95-0.36-2.86c-0.4-0.89-1.07-1.54-2.01-1.8
		c-1.89-0.57-3.92,0.12-4.74,2.24c-0.54,1.4-0.57,2.83-0.09,4.26c0.37,1.12,1.12,1.94,2.25,2.33c1.54,0.52,3.06,0.39,4.52-0.27
		c0.1-0.43,0.16-0.79-0.06-1.15c-0.3,0.09-0.58,0.18-0.86,0.25c-0.88,0.19-1.76,0.34-2.65,0.13c-1.34-0.3-2.12-1.49-1.86-2.98
		c0.94-0.09,1.91-0.01,2.86-0.04C394.63,77.81,395.63,77.95,396.64,77.75z M260.69,77.83c0-0.48,0.01-0.8,0-1.13
		c-0.03-0.37-0.04-0.75-0.15-1.1c-0.33-1.18-1-2.1-2.19-2.47c-2.15-0.66-4.1,0.25-4.84,2.35c-0.43,1.22-0.48,2.49-0.15,3.73
		c0.33,1.25,1.06,2.22,2.31,2.67c1.58,0.55,3.13,0.4,4.61-0.25c0.09-0.67,0.09-0.67-0.12-1.13c-0.28,0.09-0.55,0.19-0.83,0.25
		c-0.76,0.18-1.54,0.31-2.31,0.19c-1.57-0.22-2.41-1.31-2.28-3.03c0.94-0.16,1.91-0.06,2.86-0.07
		C258.55,77.83,259.55,77.83,260.69,77.83z M201.79,81.91c0.04-0.15,0.09-0.25,0.09-0.36c0-1.85,0.01-3.71,0-5.56
		c0-0.4-0.09-0.82-0.19-1.21c-0.21-0.76-0.69-1.33-1.43-1.58c-1.42-0.49-2.77-0.43-3.99,0.55c-0.13,0.1-0.27,0.22-0.48,0.4
		c-0.09-0.33-0.15-0.57-0.24-0.79c-0.03-0.09-0.12-0.18-0.21-0.28c-0.18,0-0.36-0.01-0.55,0c-0.1,0.01-0.21,0.06-0.37,0.1
		c-0.09,0.73-0.03,1.46-0.04,2.21c-0.01,0.7,0,1.42,0,2.12c0,0.75-0.01,1.49,0,2.22s-0.1,1.48,0.1,2.21
		c0.43,0.07,0.82,0.15,1.25-0.06c0.01-0.33,0.03-0.67,0.04-1c0-1.07,0-2.15,0-3.23c0-0.45,0.03-0.89,0.07-1.33
		c0.21-1.52,1-2.21,2.55-2.21c0.18,0,0.37,0,0.55,0.03c0.78,0.1,1.28,0.57,1.42,1.34c0.07,0.4,0.09,0.8,0.09,1.22
		c0.01,1.42,0,2.82,0,4.23c0,0.33,0.03,0.64,0.06,1c0.33,0.01,0.58,0.04,0.83,0.04C201.52,81.98,201.66,81.94,201.79,81.91z
		 M224.37,77.59c-0.01,0-0.04-0.01-0.06-0.01c-0.01-0.37-0.01-0.75-0.07-1.1c-0.28-2.04-1.65-3.4-3.68-3.53
		c-2.41-0.16-3.91,1.15-4.32,3.26c-0.16,0.8-0.16,1.61-0.03,2.43c0.34,2.19,1.92,3.7,4.34,3.56c1.67-0.1,2.98-1.04,3.47-2.65
		C224.21,78.91,224.25,78.24,224.37,77.59z M237.46,73.64c-0.07,0.43,0.07,0.72,0.36,0.98c0.3-0.09,0.61-0.21,0.92-0.28
		c0.43-0.1,0.86-0.22,1.31-0.24c1.39-0.07,2,0.49,2.07,1.86c0.01,0.25-0.04,0.49-0.07,0.79c-0.27,0.01-0.49,0.04-0.7,0.04
		c-0.6,0.01-1.19,0.01-1.77,0.03c-0.67,0.03-1.33,0.19-1.92,0.49c-0.98,0.51-1.45,1.42-1.31,2.59c0.12,1.06,0.67,1.79,1.7,2.1
		c0.92,0.28,1.85,0.25,2.73-0.13c0.43-0.18,0.79-0.55,1.18-0.82c0.04-0.03,0.13-0.01,0.27-0.01c0.09,0.28,0.19,0.58,0.31,0.92
		c0.31-0.01,0.6-0.03,0.89-0.06c0.03-0.21,0.06-0.36,0.06-0.51c0-1.89,0-3.79,0-5.68c0-0.33-0.04-0.67-0.12-0.98
		c-0.19-0.82-0.7-1.4-1.52-1.62C240.27,72.7,238.81,72.91,237.46,73.64z M355.83,77.39c0.04,0.58,0.06,1,0.12,1.4
		c0.03,0.25,0.12,0.51,0.21,0.75c0.66,1.85,2.21,2.8,4.28,2.62c1.79-0.15,3.12-1.37,3.47-3.22c0.18-0.92,0.19-1.83,0-2.76
		c-0.39-1.89-1.65-3.1-3.58-3.26c-2.13-0.18-3.77,0.86-4.28,2.89C355.94,76.4,355.89,76.99,355.83,77.39z M281.8,82
		c0.01-0.43,0.03-0.73,0.04-1.01c0-1.19-0.01-2.38,0.01-3.56c0.01-0.52,0.07-1.04,0.18-1.55c0.24-1.09,0.91-1.65,2.01-1.74
		c0.33-0.03,0.67-0.03,1,0.01c0.78,0.09,1.3,0.57,1.45,1.33c0.06,0.33,0.06,0.67,0.06,1c0,1.49,0,2.97,0,4.46
		c0,0.33,0.03,0.66,0.04,0.97c0.48,0.1,0.86,0.16,1.28-0.03c0.03-0.15,0.07-0.3,0.07-0.45c0-1.79,0.01-3.56,0-5.35
		c0-0.37-0.04-0.75-0.13-1.1c-0.18-0.8-0.6-1.46-1.4-1.74c-1.45-0.54-2.83-0.52-4.08,0.52c-0.13,0.12-0.28,0.21-0.46,0.36
		c-0.13-0.37-0.24-0.69-0.34-0.97c-0.36-0.1-0.69-0.13-1.04,0.06c0,2.73,0,5.44,0,8.14c0,0.18,0.03,0.36,0.06,0.6
		C280.95,81.97,281.31,81.98,281.8,82z M205.55,73.12c-0.09,0.78-0.04,1.52-0.04,2.25c-0.01,0.7,0,1.42,0,2.12
		c0,0.75-0.01,1.49,0,2.24c0.01,0.73-0.09,1.48,0.07,2.18c0.69,0.12,0.69,0.12,1.28-0.1c0-0.3,0-0.63,0-0.97
		c0-1.12-0.01-2.24,0.01-3.34c0.01-0.52,0.06-1.04,0.16-1.55c0.25-1.19,0.95-1.76,2.18-1.83c0.25-0.01,0.52-0.01,0.78,0.01
		c0.88,0.09,1.42,0.61,1.54,1.49c0.04,0.33,0.04,0.67,0.04,1c0,1.52,0,3.04,0.01,4.58c0,0.24,0.06,0.49,0.1,0.78
		c0.45-0.03,0.85,0.13,1.22-0.12c0.03-0.13,0.06-0.25,0.06-0.36c0-1.79,0.01-3.56,0-5.35c0-0.37-0.04-0.75-0.12-1.1
		c-0.22-1.09-0.89-1.77-1.98-2.01c-1.37-0.3-2.67-0.16-3.73,0.89c-0.06,0.06-0.18,0.07-0.27,0.1c-0.13-0.34-0.24-0.64-0.37-0.97
		C206.19,73.09,205.9,73.1,205.55,73.12z M318.38,81.95c0.03-0.27,0.06-0.42,0.06-0.55c0-1.79,0.01-3.56,0-5.35
		c0-0.4-0.06-0.82-0.15-1.21c-0.18-0.78-0.64-1.34-1.4-1.62c-1.37-0.51-2.68-0.48-3.91,0.43c-0.18,0.13-0.34,0.25-0.58,0.43
		c-0.13-0.36-0.25-0.66-0.37-0.97c-0.31,0-0.6,0-0.88,0c-0.04,0.15-0.12,0.25-0.12,0.36c0,2.71,0,5.43,0,8.12
		c0,0.1,0.06,0.21,0.1,0.34c0.4,0.07,0.78,0.1,1.21-0.06c0.01-0.37,0.03-0.7,0.03-1.03c0-1.22-0.01-2.44,0.01-3.68
		c0.01-0.55,0.1-1.12,0.25-1.64c0.21-0.73,0.76-1.21,1.51-1.34c0.51-0.09,1.04-0.09,1.55-0.03c0.6,0.06,1.04,0.42,1.21,1.01
		c0.1,0.39,0.18,0.8,0.18,1.19c0.01,1.59,0,3.19,0.01,4.78c0,0.25,0.04,0.49,0.07,0.79C317.59,81.95,317.94,81.95,318.38,81.95z
		 M231.21,81.97c0.09-0.16,0.15-0.22,0.16-0.28c1.01-2.67,2.03-5.34,3.04-8.02c0.06-0.15,0.04-0.34,0.07-0.55c-0.46,0-0.86,0-1.33,0
		c-0.3,0.82-0.6,1.61-0.88,2.41c-0.3,0.83-0.6,1.68-0.91,2.5c-0.3,0.78-0.48,1.61-0.97,2.44c-0.48-1.33-0.89-2.55-1.34-3.76
		s-0.8-2.46-1.37-3.61c-0.46,0-0.86,0-1.33,0c0.22,1.07,0.69,2,1.03,2.97c0.36,1.01,0.75,2.03,1.15,3.01
		c0.39,0.95,0.66,1.95,1.16,2.88C230.23,81.97,230.71,81.97,231.21,81.97z M290.31,73.13c0.03,0.83,0.45,1.51,0.7,2.22
		c0.25,0.75,0.55,1.46,0.83,2.19c0.3,0.76,0.58,1.54,0.88,2.3c0.28,0.72,0.46,1.48,0.91,2.18c0.52-0.07,1.04,0.1,1.51-0.12
		c0.06-0.1,0.1-0.16,0.13-0.24c1.03-2.71,2.06-5.41,3.09-8.12c0.04-0.12,0.03-0.27,0.04-0.43c-0.46,0-0.86,0-1.33,0
		c-0.16,0.42-0.34,0.83-0.49,1.24c-0.67,1.85-1.33,3.7-2,5.56c-0.06,0.16-0.1,0.37-0.39,0.3c-0.85-2.35-1.71-4.71-2.56-7.08
		c-0.33-0.01-0.58-0.04-0.85-0.04C290.64,73.07,290.49,73.1,290.31,73.13z M322.13,74.22c0.03,0.31,0.06,0.6,0.06,0.89
		c0,1.34,0,2.67,0,4.01c0,0.33-0.01,0.67,0.04,1c0.1,0.69,0.36,1.3,0.97,1.68c0.42,0.27,0.88,0.39,1.37,0.39
		c0.55-0.01,1.12,0.06,1.62-0.36c-0.03-0.28-0.04-0.55-0.07-0.85c-0.4,0.03-0.73,0.06-1.06,0.06c-0.82,0-1.33-0.43-1.48-1.22
		c-0.03-0.18-0.04-0.37-0.04-0.55c0-1.49,0-2.97,0-4.46c0-0.21,0.07-0.42,0.12-0.64c0.82-0.03,1.59-0.04,2.35-0.06
		c0.16-0.4,0.22-0.7-0.09-1.06c-0.54,0-1.13,0.01-1.73,0c-0.21,0-0.42-0.07-0.66-0.12c0-0.34,0-0.64,0-0.94
		c-0.01-0.3-0.03-0.58-0.06-0.88c-0.15-0.03-0.25-0.09-0.36-0.07c-0.13,0.01-0.27,0.07-0.39,0.1c-0.22,0.64-0.43,1.24-0.61,1.77
		c-0.37,0.18-0.69,0.31-0.97,0.48c-0.28,0.15-0.31,0.39-0.15,0.7C321.36,74.13,321.71,74.17,322.13,74.22z M251.14,81.95
		c0.19-0.3,0.18-0.61,0.06-0.91c-0.43,0-0.83,0.03-1.24,0c-0.63-0.04-1.04-0.37-1.19-0.98c-0.09-0.31-0.13-0.66-0.13-0.98
		c-0.01-1.42-0.01-2.82,0-4.23c0-0.21,0.09-0.42,0.13-0.61c0.82-0.16,1.61,0.03,2.43-0.15c0-0.28,0.01-0.52,0-0.78
		c0-0.06-0.09-0.1-0.19-0.24c-0.54,0-1.12,0.01-1.71,0c-0.21,0-0.42-0.07-0.63-0.12c-0.03-0.66-0.04-1.24-0.07-1.8
		c-0.69-0.07-0.75-0.06-0.86,0.28c-0.16,0.49-0.31,0.98-0.46,1.48c-0.37,0.18-0.72,0.33-1.04,0.51c-0.27,0.15-0.31,0.39-0.09,0.72
		c0.31,0.03,0.67,0.06,1.07,0.1c0.01,0.39,0.04,0.72,0.04,1.04c0,1.34-0.01,2.67,0.01,4.01c0,0.4,0.06,0.82,0.15,1.21
		c0.21,1,0.89,1.52,1.86,1.65C249.89,82.24,250.53,82.25,251.14,81.95z M384.11,69.36c-0.03,0.25-0.06,0.36-0.06,0.48
		c0,3.86,0,7.71,0,11.57c0,0.18,0.06,0.34,0.1,0.52c0.45,0.07,0.83,0.15,1.21-0.04c0.03-0.13,0.07-0.24,0.07-0.36
		c0-3.89,0-7.78,0-11.67c0-0.16-0.09-0.33-0.13-0.49C384.88,69.36,384.52,69.36,384.11,69.36z M378.62,73.09
		c-0.06,0.22-0.1,0.34-0.1,0.45c0,2.74,0.01,5.48,0.03,8.23c0,0.03,0.01,0.07,0.04,0.1c0.01,0.03,0.04,0.06,0.12,0.12
		c0.39,0.06,0.82,0.16,1.21-0.12c0.01-0.1,0.04-0.18,0.04-0.25c0-2.67,0.01-5.34,0-8.02c0-0.16-0.09-0.34-0.13-0.52
		C379.4,73.09,379.04,73.09,378.62,73.09z M188.97,73.09c-0.18,1-0.18,7.93,0,8.9c0.4,0.04,0.83,0.15,1.25-0.1
		c0.01-0.12,0.06-0.24,0.06-0.34c0-2.64,0-5.26,0-7.9c0-0.18-0.07-0.34-0.12-0.55C189.76,73.09,189.41,73.09,188.97,73.09z
		 M274.99,81.91c0.7,0.1,0.7,0.09,1.21-0.1c0.13-1.54,0.09-7.81-0.07-8.69c-0.37-0.09-0.76-0.1-1.12,0.01
		C274.87,74.1,274.85,80.78,274.99,81.91z M329.33,82.21c0.63,0,1.01-0.4,1.01-1.07c0-0.66-0.4-1.12-0.98-1.13
		c-0.58-0.01-0.98,0.43-1,1.1C328.36,81.81,328.7,82.21,329.33,82.21z M265.55,81.14c0-0.67-0.36-1.1-0.94-1.12
		c-0.6-0.01-1.04,0.49-1.03,1.16c0,0.1,0.03,0.22,0.04,0.33c0.12,0.45,0.4,0.67,0.86,0.7C265.18,82.25,265.55,81.87,265.55,81.14z
		 M275.61,69.78c-0.45-0.03-0.8,0.34-0.83,0.85s0.28,0.91,0.73,0.95c0.45,0.04,0.83-0.3,0.89-0.79
		C276.46,70.25,276.11,69.81,275.61,69.78z M190.36,70.67c0-0.51-0.33-0.88-0.78-0.89s-0.79,0.36-0.8,0.85
		c-0.01,0.57,0.33,0.97,0.82,0.95C190.05,71.57,190.36,71.19,190.36,70.67z M380.02,70.55c-0.04-0.09-0.1-0.36-0.25-0.54
		c-0.19-0.24-0.49-0.31-0.79-0.19c-0.36,0.13-0.54,0.42-0.54,0.86c0.01,0.51,0.34,0.88,0.78,0.89
		C379.66,71.6,380.01,71.22,380.02,70.55z"/>
	<path class="st1" d="M106.88,62.49c-1.18-1.39-2.33-2.79-3.65-4.02c-1.55-1.46-2.97-3.03-4.31-4.68c-0.43-0.52-0.86-1.03-1.31-1.56
		c-0.88,0.86-1.74,1.68-2.59,2.53c-2.62,2.64-5.23,5.29-7.87,7.91c-0.98,0.98-2.01,1.89-3.01,2.86c-0.82,0.79-1.61,1.61-2.43,2.38
		c-1.39,1.31-2.79,2.59-4.19,3.91c-1.65,1.55-3.41,3-5.2,4.4c-5.47,4.29-11.52,7.39-18.38,8.81c-2.94,0.61-5.89,0.94-8.88,0.89
		c-10.3-0.18-19.51-3.38-27.35-10.14c-6.62-5.69-10.97-12.86-13.24-21.3c-1.15-4.28-1.58-8.66-1.25-13.07
		c0.8-11.3,5.28-20.87,13.67-28.53c4.61-4.22,9.91-7.24,15.87-9.09c3.14-0.98,6.38-1.56,9.67-1.8c2.43-0.18,4.86-0.16,7.27,0.09
		c5.77,0.58,11.18,2.28,16.25,5.11c3,1.67,5.75,3.67,8.26,6.02c0.8,0.76,1.62,1.51,2.43,2.27c0.8,0.76,1.64,1.49,2.34,2.35
		c0.27,0.33,0.57,0.64,0.98,0.91c1.03-0.88,2-1.82,3.06-2.79c0.09,0.18,0.18,0.3,0.19,0.43c0.4,2.74,0.79,5.47,1.18,8.21
		c0.27,1.88,0.55,3.77,0.83,5.65c0.01,0.15,0.01,0.3,0.03,0.46c-0.15,0-0.24,0-0.31-0.01c-4.56-1.37-9.11-2.76-13.67-4.13
		c-0.04-0.01-0.07-0.07-0.15-0.15c0.33-0.54,0.98-0.8,1.3-1.39c-0.15-0.18-0.28-0.34-0.43-0.51c-2.43-2.58-5.02-4.99-7.88-7.08
		c-3.8-2.79-8.06-4.55-12.68-5.46c-3.13-0.61-6.29-0.78-9.45-0.48c-6.02,0.57-11.46,2.67-16.29,6.32
		c-6.32,4.78-10.42,11.03-12.25,18.75c-0.66,2.8-0.95,5.63-0.8,8.51c0.43,8.47,3.55,15.77,9.57,21.76
		c4.72,4.69,10.43,7.62,16.99,8.87c2.83,0.54,5.68,0.67,8.54,0.46c5.75-0.43,11.04-2.27,15.83-5.53c1.85-1.27,3.65-2.62,5.37-4.07
		c1.09-0.91,2.09-1.91,3.12-2.88c0.85-0.8,1.64-1.67,2.52-2.44c1.82-1.61,3.44-3.43,5.22-5.08c3.86-3.62,7.51-7.44,11.27-11.16
		c1.49-1.48,3.01-2.91,4.49-4.38c2.07-2.06,4.14-4.13,6.2-6.19c0.15-0.15,5.14-4.74,6.23-6.02c0.12-0.13,0.25-0.27,0.4-0.39
		c2.27-1.89,4.46-3.86,6.9-5.54c3.61-2.49,7.53-4.16,11.82-4.9c2.49-0.43,5.01-0.52,7.53-0.3c4.01,0.36,7.8,1.42,11.31,3.35
		c7.88,4.35,12.79,10.97,14.77,19.73c0.66,2.89,0.73,5.84,0.48,8.81c-1.18,13.24-11.19,23.07-22.73,25.59
		c-2.76,0.6-5.54,0.83-8.35,0.63c-6.27-0.45-11.8-2.74-16.63-6.75c-1.94-1.61-3.79-3.34-5.56-5.13c-0.24-0.24-0.51-0.43-0.78-0.64
		C107.06,62.76,106.97,62.62,106.88,62.49z M104.79,45.27c0.28,0.54,0.6,1.01,0.92,1.51c3.13,4.67,6.68,8.97,10.73,12.86
		c2.04,1.95,4.22,3.76,6.59,5.32c2.1,1.4,4.32,2.58,6.72,3.4c3.74,1.28,7.51,1.43,11.33,0.3c2.67-0.79,5.05-2.12,6.9-4.25
		c2.83-3.25,3.5-6.93,1.98-10.98c-0.63-1.65-1.52-3.14-2.58-4.55c-0.16-0.21-0.31-0.43-0.48-0.67c0.37-0.46,0.73-0.88,1.07-1.31
		c1.01-1.28,1.91-2.64,2.52-4.16c1.28-3.2,1.22-6.36-0.51-9.4c-0.89-1.58-2.12-2.86-3.59-3.91c-3.01-2.13-6.39-3.09-10.05-3.14
		c-2.61-0.04-5.13,0.49-7.59,1.36c-3.86,1.34-7.39,3.31-10.73,5.65c-4.17,2.92-7.9,6.35-11.43,10
		C105.98,43.9,105.42,44.57,104.79,45.27z"/>
	<path class="st1" d="M106.88,62.49c0.09,0.13,0.19,0.27,0.28,0.4c-0.64,0.66-1.28,1.33-1.92,2c0.04,0.09,0.04,0.19,0.1,0.25
		c2.49,2.47,4.99,4.93,7.77,7.08c3.86,2.97,8.21,4.89,13,5.87c2.41,0.49,4.86,0.75,7.33,0.69c6.6-0.15,12.64-2.09,18.02-5.93
		c6.93-4.95,11.33-11.6,13.15-19.91c0.75-3.43,0.86-6.89,0.46-10.36c-0.82-6.98-3.58-13.07-8.33-18.23
		c-4.44-4.84-9.93-7.99-16.31-9.55c-3.04-0.75-6.13-1.06-9.24-0.89c-6.1,0.31-11.7,2.09-16.75,5.54c-3.26,2.22-6.27,4.75-9.2,7.39
		c-2.35,2.12-4.62,4.34-6.84,6.59c-2.7,2.74-5.46,5.41-8.2,8.11c-1.16,1.15-2.34,2.27-3.52,3.4c-0.4,0.39-0.76,0.8-1.16,1.19
		c-1.42,1.42-2.85,2.8-4.26,4.22c-2.5,2.5-4.98,5.04-7.5,7.51c-2.76,2.73-5.62,5.35-8.7,7.69c-1.42,1.07-2.86,2.13-4.37,3.09
		c-3.43,2.18-7.17,3.49-11.18,4.05c-2.38,0.33-4.77,0.31-7.17,0.09c-9.38-0.88-17.39-6.5-21.91-13.68
		c-1.94-3.09-3.16-6.44-3.8-10.02c-0.49-2.71-0.57-5.46-0.3-8.18c0.63-6.62,3.25-12.37,7.87-17.19c4.35-4.53,9.67-7.3,15.81-8.51
		c1.85-0.36,3.71-0.55,5.59-0.54c5.84,0.04,11.19,1.73,16.04,5.01c1.33,0.89,2.55,1.92,3.73,3.01c3.16,2.89,6.13,5.96,9.02,9.11
		c1.68,1.83,3.37,3.68,5.04,5.51c0.18,0.21,0.34,0.43,0.48,0.6c0.18-0.07,0.25-0.07,0.3-0.12c0.64-0.58,1.28-1.15,1.89-1.76
		c3.96-3.91,7.91-7.82,11.89-11.73c3.38-3.32,6.84-6.54,10.57-9.49c2.88-2.28,5.86-4.38,9.17-6.01c3.89-1.91,7.97-3.19,12.27-3.85
		c2.5-0.37,5.01-0.58,7.54-0.48c9.57,0.37,18.21,3.32,25.64,9.46c7.44,6.16,12.3,13.97,14.52,23.39c0.91,3.88,1.31,7.81,1.1,11.8
		c-0.16,3.03-0.69,5.98-1.52,8.88c-2.09,7.21-5.83,13.46-11.25,18.65c-5.4,5.17-11.74,8.64-19,10.45c-2.38,0.6-4.81,0.95-7.27,1.15
		c-2.49,0.19-4.98,0.18-7.45-0.1c-8.11-0.89-15.4-3.86-21.79-8.93c-2.44-1.94-4.65-4.11-6.89-6.27c-0.4-0.39-0.79-0.76-1.22-1.16
		c-0.48,0.33-0.79,0.75-1.18,1.09c-0.36,0.33-0.64,0.73-1.09,1c-0.06-0.12-0.12-0.19-0.15-0.27c-1.04-4.58-2.09-9.17-3.12-13.76
		c-0.03-0.12,0-0.24,0-0.34c0.22-0.18,0.43-0.07,0.63-0.03c4.07,0.92,8.15,1.85,12.22,2.76C106.09,62.34,106.48,62.41,106.88,62.49z
		 M31.27,44.89c-0.24,0.31-0.42,0.55-0.61,0.79c-0.92,1.21-1.7,2.49-2.27,3.89c-1.01,2.47-1.25,4.99-0.46,7.57
		c0.72,2.31,2.12,4.16,4.01,5.6c3.91,2.98,8.33,3.92,13.15,3.23c2.06-0.3,3.98-1,5.86-1.88c2.74-1.3,5.23-2.97,7.57-4.89
		c4.38-3.62,8.2-7.78,11.64-12.3c1.04-1.37,2.04-2.77,2.88-4.28c0.13-0.24,0.34-0.45,0.27-0.79c-0.12-0.13-0.24-0.31-0.39-0.46
		c-1.43-1.49-2.82-3.01-4.29-4.44c-3.16-3.07-6.57-5.84-10.28-8.23c-2.64-1.7-5.41-3.17-8.38-4.23c-3.22-1.15-6.5-1.8-9.94-1.43
		c-3.37,0.36-6.36,1.55-8.99,3.68c-0.89,0.72-1.67,1.54-2.33,2.49c-1.79,2.64-2.37,5.5-1.54,8.6c0.57,2.12,1.58,3.99,2.95,5.69
		C30.48,43.95,30.85,44.38,31.27,44.89z"/>
	<path class="st1" d="M411.6,20.56c-0.18-1.07-0.18-3.74,0.01-4.64c0.27-0.01,0.57-0.04,0.85-0.04c8.66,0,17.32-0.01,25.99,0
		c3.28,0,5.99,2,6.87,5.01c0.24,0.79,0.3,1.59,0.3,2.43c0,6.17,0,12.34,0,18.51c0,2.12,0,4.23,0,6.36c0,0.36-0.03,0.73-0.04,1.12
		c-0.28,0.03-0.51,0.07-0.72,0.07c-8.85,0-17.69-0.01-26.55,0.01c-3.46,0.01-6.08-2.71-6.63-5.16c-0.12-0.54-0.21-1.1-0.21-1.65
		c-0.01-3.91-0.01-7.81-0.01-11.72c0-0.15,0.03-0.28,0.06-0.49c0.22-0.04,0.43-0.09,0.64-0.1c0.3-0.01,0.6,0,0.89,0
		c8.73,0,17.47,0,26.22,0c0.45,0,0.89,0,1.39,0c0.06-0.25,0.13-0.46,0.13-0.66c0.01-2.19,0.01-4.38,0-6.59
		c-0.01-1.46-0.89-2.34-2.35-2.41c-0.3-0.01-0.6,0-0.89,0c-8.26,0-16.51,0-24.76,0C412.39,20.61,411.99,20.58,411.6,20.56z
		 M440.8,44.66c0-1.18,0-2.21,0-3.25c0-1.07,0.01-2.16,0-3.23c-0.01-1.03,0.09-2.06-0.09-3.1c-0.21-0.01-0.34-0.04-0.49-0.04
		c-7.91,0-15.83,0.01-23.74,0.03c-0.03,0-0.07,0.01-0.1,0.03c-0.03,0.01-0.06,0.04-0.13,0.13c-0.01,0.16-0.03,0.37-0.03,0.6
		c0,2.09,0,4.16,0,6.25c0,0.18,0,0.37,0.01,0.55c0.1,1.09,0.94,1.92,2.03,2.03c0.3,0.03,0.6,0.01,0.89,0.01c6.8,0,13.59,0,20.4,0
		C439.91,44.66,440.27,44.66,440.8,44.66z"/>
	<path class="st1" d="M382.33,44.66c0.01,1.62,0.04,3.1-0.01,4.59c-0.39,0.21-0.76,0.13-1.12,0.13c-3.49,0-6.99,0-10.48,0
		c-5.05,0-10.11,0-15.17,0c-0.6,0-1.19,0-1.77-0.12c-3.13-0.61-5.5-3.46-5.56-6.66c-0.04-2.01-0.01-4.01-0.01-6.02
		c0-4.46,0-8.93,0-13.38c0-0.79,0.07-1.56,0.28-2.31c0.79-2.82,3.49-4.92,6.42-5.01c0.22-0.01,0.45,0,0.67,0c6.47,0,12.94,0,19.41,0
		c0.79,0,1.56,0.06,2.31,0.27c2.59,0.72,5.02,3.25,5.05,6.38c0.04,3.98,0.01,7.96,0.01,11.94c0,0.15-0.03,0.28-0.04,0.42
		c-0.31,0.25-0.67,0.16-0.98,0.16c-3.16,0.01-6.32,0-9.48,0c-5.84,0-11.67,0-17.51,0c-0.4,0-0.82,0-1.27,0
		c-0.04,0.27-0.12,0.46-0.12,0.67c-0.01,2.12-0.01,4.23,0,6.35c0,0.33,0.04,0.67,0.13,0.98c0.25,0.89,1.01,1.52,1.94,1.59
		c0.37,0.03,0.75,0.01,1.12,0.01c8.29,0,16.57,0,24.86,0C381.38,44.66,381.78,44.66,382.33,44.66z M377.53,30.18
		c0.01-0.24,0.04-0.42,0.04-0.61c0-2.12,0-4.23,0-6.35c0-0.15,0-0.3-0.01-0.45c-0.13-1.22-0.95-2.04-2.18-2.16
		c-0.25-0.03-0.52-0.01-0.78-0.01c-6.25,0-12.48,0-18.72,0c-0.3,0-0.6-0.01-0.89,0.03c-0.83,0.1-1.49,0.52-1.83,1.28
		c-0.18,0.39-0.24,0.86-0.25,1.3c-0.03,2.12-0.01,4.23-0.01,6.35c0,0.21,0.04,0.42,0.06,0.61c0.18,0.06,0.28,0.1,0.39,0.1
		c7.91,0,15.81,0,23.73,0C377.22,30.28,377.32,30.24,377.53,30.18z"/>
	<path class="st1" d="M244.18,49.39c-3.34,0-6.69,0-10.03,0c-2.33,0-4.14-1-5.56-2.8c-0.86-1.12-1.33-2.4-1.36-3.82
		c0-0.25,0-0.52,0-0.78c0-6.25,0-12.49,0-18.74c0-0.6,0-1.19,0.12-1.77c0.57-3.01,3.38-5.6,6.74-5.6c4.95,0,9.88,0,14.83,0
		c1.86,0,3.71-0.01,5.57,0.01c1.86,0.03,3.47,0.72,4.8,2.03c1.36,1.34,2.06,2.98,2.09,4.89c0.01,1.49,0,2.97,0,4.46
		c0,4.95,0,9.88,0,14.83c0,0.86-0.09,1.7-0.36,2.52c-0.67,2.18-3.07,4.78-6.48,4.77C251.8,49.39,249.22,49.39,244.18,49.39
		L244.18,49.39z M244.27,44.66c3.12,0,6.25,0,9.36,0c0.3,0,0.6,0,0.89-0.01c0.91-0.04,1.98-0.89,2.01-2.04
		c0.01-0.33,0.01-0.67,0.01-1c0-5.98,0-11.97,0-17.95c0-0.3-0.01-0.6-0.01-0.89c0.01-0.95-0.76-1.91-1.82-2.1
		c-0.36-0.06-0.75-0.06-1.1-0.06c-6.25,0-12.48,0-18.72,0c-0.22,0-0.45-0.01-0.67,0c-1.33,0.09-2.19,0.98-2.27,2.3
		c-0.01,0.18,0,0.37,0,0.55c0,6.13,0,12.27,0,18.39c0,0.25-0.01,0.52,0.01,0.78c0.12,1.07,0.98,1.92,2.06,2.01
		c0.3,0.03,0.6,0.01,0.89,0.01C238.02,44.66,241.14,44.66,244.27,44.66z"/>
	<path class="st1" d="M192.25,49.28c-0.94,0.15-3.68,0.15-4.56-0.01c-0.03-0.09-0.09-0.19-0.09-0.3c0-10.9,0-21.79,0-32.69
		c0-0.1,0.06-0.21,0.12-0.36c0.28-0.01,0.58-0.06,0.86-0.06c8.7,0,17.41-0.01,26.11,0c3.29,0,6.05,2.09,6.83,5.19
		c0.19,0.78,0.24,1.62,0.24,2.43c0.01,4.58,0.01,9.15,0.01,13.73c0,3.61,0,7.21,0,10.82c0,0.4-0.01,0.8-0.01,1.19
		c-0.83,0.18-3.43,0.21-4.62,0.06c-0.22-0.37-0.12-0.79-0.12-1.18c-0.01-4.2,0-8.41,0-12.61c0-3.93,0-7.88,0-11.82
		c0-0.3,0.01-0.6-0.01-0.89c-0.06-1.09-0.75-1.88-1.8-2.12c-0.28-0.06-0.6-0.07-0.88-0.07c-6.39,0-12.79,0-19.18,0
		c-0.37,0-0.75,0.04-1.1,0.13c-0.95,0.27-1.57,1.03-1.62,2.03c-0.03,0.37-0.01,0.75-0.01,1.12c0,8.06,0,16.14,0,24.21
		C192.37,48.49,192.46,48.91,192.25,49.28z"/>
	<path class="st1" d="M269.92,15.88c0,0.55,0,0.97,0,1.37c0,8.06,0,16.14,0,24.21c0,0.33-0.01,0.67,0.01,1
		c0.12,1.33,1.01,2.19,2.34,2.21c6.66,0.01,13.31,0.01,19.97,0c1.43,0,2.33-0.97,2.37-2.4c0.01-0.33,0-0.67,0-1
		c0-7.99,0-15.99,0-23.98c0-0.4,0-0.8,0-1.25c0.82-0.25,1.59-0.1,2.35-0.13c0.73-0.03,1.48,0,2.16,0c0.3,0.37,0.19,0.72,0.21,1.04
		c0.01,3.23,0,6.47,0,9.7c0,5.13,0,10.27,0,15.4c0,0.63-0.03,1.27-0.13,1.88c-0.55,2.91-3.37,5.51-6.71,5.5
		c-4.2-0.03-8.41,0-12.61,0c-2.56,0-5.13-0.01-7.69,0c-2.01,0.01-3.68-0.73-5.07-2.18c-1.24-1.3-1.86-2.85-1.92-4.62
		c-0.01-0.25,0-0.52,0-0.78c0-8.21,0-16.44,0-24.65c0-0.37,0-0.73,0-1.15c0.8-0.25,1.59-0.1,2.35-0.13
		C268.28,15.87,269.03,15.88,269.92,15.88z"/>
	<path class="st1" d="M324.41,44.71c1.82-3.26,3.53-6.45,5.26-9.64c1.73-3.16,3.44-6.33,5.16-9.49c1.74-3.19,3.47-6.39,5.2-9.55
		c0.85-0.15,4.05-0.18,5.38-0.06c0.15,0.34-0.1,0.57-0.24,0.8c-1.39,2.53-2.8,5.08-4.2,7.62c-4.43,7.99-8.85,15.99-13.28,23.98
		c-0.18,0.33-0.36,0.64-0.57,1c-1.83,0-3.64,0-5.53,0c-1.25-2.16-2.43-4.38-3.65-6.59c-1.25-2.24-2.47-4.49-3.71-6.74
		c-1.22-2.21-2.44-4.43-3.67-6.63c-1.24-2.25-2.47-4.49-3.71-6.74c-1.21-2.19-2.44-4.38-3.65-6.65c0.27-0.07,0.37-0.12,0.46-0.12
		c1.64,0,3.26,0,4.96,0c0.19,0.34,0.42,0.69,0.6,1.04c3.9,7.18,7.81,14.35,11.72,21.54c0.98,1.79,1.95,3.59,2.94,5.38
		C324.02,44.11,324.19,44.35,324.41,44.71z"/>
	<path class="st1" d="M392.78,20.64c0,0.49,0,0.85,0,1.22c0,6.62,0,13.24,0,19.85c0,0.3-0.01,0.6,0.01,0.89
		c0.09,1.09,0.92,1.94,2.01,2.04c0.3,0.03,0.6,0.01,0.89,0.01c3.46,0,6.92,0,10.37,0c0.36,0,0.73,0.03,1.07,0.04
		c0.19,0.91,0.19,3.61,0.01,4.62c-0.19,0.01-0.42,0.06-0.63,0.06c-3.91,0-7.81-0.01-11.7,0c-3.4,0.01-5.98-2.61-6.57-5.2
		c-0.09-0.4-0.15-0.8-0.18-1.21c-0.03-0.48-0.03-0.97-0.03-1.45c0-11.74,0-23.49,0-35.23c0-0.4,0-0.82,0-1.25
		c0.8-0.27,1.58-0.1,2.34-0.13c0.75-0.03,1.48,0,2.16,0c0.31,0.31,0.22,0.63,0.22,0.91c0,2.94,0,5.87,0,8.81c0,0.37,0,0.73,0,1.06
		c0.4,0.3,0.79,0.19,1.13,0.19c4.01,0.01,8.03,0,12.04,0c0.4,0,0.8,0.03,1.27,0.04c0.1,1.54,0.03,3.01,0.04,4.46
		c-0.34,0.36-0.75,0.22-1.09,0.22c-4.01,0.01-8.03,0-12.04,0C393.75,20.61,393.35,20.62,392.78,20.64z"/>
	<path class="st2" d="M341,81.95c-0.49,0-0.86,0-1.22,0c-0.04-0.15-0.12-0.24-0.12-0.34c-0.01-2.67-0.01-5.35-0.01-8.02
		c0-0.15,0.04-0.28,0.09-0.48c0.31-0.01,0.6-0.03,0.94-0.04c0.12,0.33,0.22,0.64,0.36,0.97c0.07-0.03,0.21-0.03,0.27-0.1
		c0.42-0.45,0.91-0.78,1.51-0.91c1.45-0.3,2.73-0.09,3.65,1.28c0.15-0.15,0.28-0.27,0.42-0.39c1.1-1.1,2.41-1.22,3.82-0.82
		c0.85,0.24,1.36,0.89,1.57,1.74c0.07,0.33,0.12,0.66,0.12,1c0.01,1.89,0,3.79,0,5.68c0,0.1-0.04,0.21-0.07,0.37
		c-0.37,0.12-0.76,0.12-1.22-0.01c-0.01-0.33-0.06-0.66-0.06-0.98c0-1.52,0-3.04-0.01-4.58c0-0.4-0.04-0.82-0.16-1.21
		c-0.19-0.63-0.66-0.98-1.33-1.01c-0.3-0.01-0.6-0.01-0.89,0.01c-0.82,0.09-1.4,0.52-1.64,1.3c-0.15,0.49-0.22,1.01-0.24,1.52
		c-0.03,1.34-0.01,2.67-0.01,4.01c0,0.3-0.03,0.58-0.04,0.92c-0.25,0.03-0.46,0.07-0.69,0.09c-0.18,0-0.36-0.03-0.6-0.04
		c-0.03-0.28-0.07-0.54-0.07-0.78c-0.01-1.52,0-3.04-0.01-4.58c0-0.45-0.03-0.89-0.13-1.33c-0.16-0.7-0.61-1.07-1.34-1.13
		c-0.3-0.03-0.6-0.03-0.89,0c-0.8,0.09-1.42,0.52-1.62,1.31c-0.16,0.6-0.25,1.24-0.27,1.86c-0.04,1.19-0.01,2.37-0.01,3.56
		C341.05,81.21,341.02,81.54,341,81.95z"/>
	<path class="st3" d="M367.58,81.94c-0.15-0.97-0.15-11.57,0-12.55c0.15-0.03,0.33-0.07,0.51-0.07c0.18-0.01,0.37,0.01,0.61,0.04
		c0.04,0.21,0.12,0.42,0.12,0.63c0.01,1.07,0,2.15,0,3.23c0,0.21,0.01,0.42,0.03,0.61c0.33,0.12,0.45-0.12,0.63-0.24
		c1.07-0.73,2.24-0.73,3.41-0.42c0.75,0.19,1.31,0.7,1.7,1.37c0.22,0.39,0.4,0.8,0.51,1.22c0.33,1.21,0.31,2.43,0,3.64
		c-0.7,2.76-3.61,3.73-5.86,1.97c-0.12-0.09-0.22-0.18-0.34-0.28c-0.42,0.13-0.22,0.61-0.58,0.88
		C368.11,81.94,367.84,81.94,367.58,81.94z M368.8,77.3c0.04,0.66,0.04,1.06,0.09,1.46c0.03,0.22,0.09,0.43,0.16,0.64
		c0.34,1.07,1.07,1.59,2.25,1.62c1.1,0.03,1.86-0.45,2.25-1.46c0.33-0.85,0.45-1.73,0.33-2.62c-0.07-0.55-0.19-1.1-0.39-1.61
		c-0.3-0.75-0.91-1.16-1.71-1.21c-0.25-0.01-0.52-0.01-0.78,0c-1.03,0.07-1.67,0.55-1.94,1.55C368.89,76.29,368.86,76.92,368.8,77.3
		z"/>
	<path class="st4" d="M307.85,77.8c-2.03,0.13-3.99-0.03-5.93,0.09c-0.15,1.74,0.69,2.85,2.28,3.04c0.79,0.1,1.55-0.03,2.31-0.21
		c0.28-0.07,0.57-0.15,0.85-0.24c0.18,0.4,0.16,0.75,0.01,1.15c-1.24,0.61-2.56,0.7-3.91,0.45c-1.48-0.28-2.44-1.22-2.89-2.64
		c-0.43-1.36-0.39-2.73,0.12-4.05c0.8-2.16,2.82-2.86,4.69-2.33c1.16,0.33,1.88,1.15,2.25,2.28
		C307.91,76.1,307.96,76.87,307.85,77.8z M306.33,76.57c0.04-1.62-0.67-2.47-2.06-2.47c-1.46-0.01-2.37,0.95-2.33,2.46
		C302.76,76.72,305.13,76.74,306.33,76.57z"/>
	<path class="st4" d="M396.64,77.75c-1.01,0.19-2.01,0.06-3.01,0.09c-0.95,0.03-1.92-0.04-2.86,0.04c-0.25,1.49,0.52,2.68,1.86,2.98
		c0.89,0.19,1.77,0.06,2.65-0.13c0.28-0.06,0.57-0.16,0.86-0.25c0.22,0.36,0.16,0.72,0.06,1.15c-1.46,0.66-2.98,0.79-4.52,0.27
		c-1.13-0.37-1.86-1.21-2.25-2.33c-0.48-1.42-0.45-2.86,0.09-4.26c0.82-2.12,2.83-2.8,4.74-2.24c0.94,0.28,1.61,0.91,2.01,1.8
		C396.7,75.8,396.82,76.74,396.64,77.75z M390.74,76.57c1.15,0.16,3.53,0.15,4.4-0.03c0.15-0.66-0.06-1.22-0.45-1.74
		c-0.33-0.43-0.78-0.66-1.33-0.7C391.77,73.98,390.8,74.86,390.74,76.57z"/>
	<path class="st5" d="M260.69,77.83c-1.15,0-2.13,0-3.13,0.01c-0.95,0.01-1.92-0.09-2.86,0.07c-0.13,1.7,0.72,2.8,2.28,3.03
		c0.79,0.1,1.55-0.03,2.31-0.19c0.28-0.06,0.57-0.16,0.83-0.25c0.21,0.46,0.21,0.46,0.12,1.13c-1.48,0.66-3.03,0.8-4.61,0.25
		c-1.25-0.45-1.98-1.42-2.31-2.67c-0.31-1.25-0.28-2.52,0.15-3.73c0.75-2.1,2.7-3.03,4.84-2.35c1.19,0.37,1.86,1.3,2.19,2.47
		c0.1,0.36,0.12,0.73,0.15,1.1C260.71,77.02,260.69,77.35,260.69,77.83z M259.16,76.62c0.06-1.65-0.69-2.53-2.1-2.53
		c-1.46,0-2.43,1.03-2.35,2.55C255.58,76.78,258.19,76.78,259.16,76.62z"/>
	<path class="st6" d="M201.79,81.91c-0.13,0.03-0.27,0.09-0.42,0.09c-0.25,0-0.51-0.03-0.83-0.04c-0.01-0.36-0.06-0.69-0.06-1
		c0-1.42,0-2.82,0-4.23c0-0.4-0.01-0.82-0.09-1.22c-0.13-0.78-0.64-1.24-1.42-1.34c-0.18-0.03-0.37-0.03-0.55-0.03
		c-1.55,0-2.34,0.67-2.55,2.21c-0.06,0.43-0.07,0.88-0.07,1.33c-0.01,1.07,0,2.15,0,3.23c0,0.33-0.03,0.66-0.04,1
		c-0.43,0.21-0.82,0.13-1.25,0.06c-0.21-0.73-0.09-1.48-0.1-2.21c-0.03-0.75,0-1.49,0-2.22c0-0.7,0-1.42,0-2.12
		c0.01-0.73-0.04-1.48,0.04-2.21c0.16-0.04,0.27-0.1,0.37-0.1c0.18-0.01,0.37,0,0.55,0c0.09,0.1,0.18,0.19,0.21,0.28
		c0.09,0.22,0.15,0.46,0.24,0.79c0.21-0.16,0.33-0.28,0.48-0.4c1.22-0.98,2.58-1.04,3.99-0.55c0.75,0.27,1.24,0.82,1.43,1.58
		c0.1,0.39,0.19,0.8,0.19,1.21c0.01,1.85,0.01,3.71,0,5.56C201.88,81.66,201.84,81.76,201.79,81.91z"/>
	<path class="st3" d="M224.37,77.59c-0.12,0.66-0.16,1.33-0.36,1.95c-0.49,1.59-1.8,2.55-3.47,2.65c-2.41,0.15-3.99-1.36-4.34-3.56
		c-0.12-0.82-0.12-1.62,0.03-2.43c0.42-2.12,1.91-3.43,4.32-3.26c2.03,0.13,3.4,1.51,3.68,3.53c0.04,0.37,0.04,0.75,0.07,1.1
		C224.33,77.57,224.34,77.57,224.37,77.59z M222.97,77.54c-0.07-0.82-0.18-1.42-0.42-1.97c-0.46-1.04-1.22-1.51-2.49-1.46
		c-1.16,0.03-1.91,0.54-2.27,1.61c-0.39,1.19-0.39,2.41,0,3.61c0.37,1.13,1.25,1.73,2.44,1.71c1.18-0.01,2.07-0.64,2.4-1.77
		C222.81,78.72,222.87,78.12,222.97,77.54z"/>
	<path class="st3" d="M237.46,73.64c1.37-0.73,2.83-0.94,4.35-0.51c0.8,0.24,1.31,0.8,1.52,1.62c0.07,0.33,0.12,0.66,0.12,0.98
		c0.01,1.89,0,3.79,0,5.68c0,0.15-0.03,0.28-0.06,0.51c-0.3,0.01-0.58,0.03-0.89,0.06c-0.12-0.34-0.22-0.64-0.31-0.92
		c-0.13,0.01-0.22-0.01-0.27,0.01c-0.39,0.27-0.75,0.63-1.18,0.82c-0.88,0.37-1.8,0.4-2.73,0.13c-1.04-0.31-1.58-1.04-1.7-2.1
		c-0.13-1.19,0.33-2.1,1.31-2.59c0.6-0.31,1.25-0.48,1.92-0.49c0.6-0.01,1.19-0.01,1.77-0.03c0.22,0,0.43-0.03,0.7-0.04
		c0.03-0.3,0.07-0.54,0.07-0.79c-0.06-1.36-0.69-1.94-2.07-1.86c-0.43,0.03-0.88,0.15-1.31,0.24c-0.31,0.07-0.63,0.19-0.92,0.28
		C237.53,74.35,237.37,74.07,237.46,73.64z M242.02,77.77c-1.01-0.07-2.01-0.15-2.97,0.15c-0.27,0.09-0.55,0.21-0.78,0.39
		c-0.78,0.61-0.73,2.16,0.31,2.59c1.31,0.55,3.01-0.21,3.41-1.58C242.14,78.84,242.15,78.33,242.02,77.77z"/>
	<path class="st3" d="M355.83,77.39c0.06-0.42,0.1-1.01,0.24-1.58c0.51-2.03,2.15-3.07,4.28-2.89c1.91,0.16,3.19,1.37,3.58,3.26
		c0.19,0.92,0.18,1.85,0,2.76c-0.36,1.85-1.68,3.07-3.47,3.22c-2.07,0.16-3.62-0.78-4.28-2.62c-0.09-0.24-0.18-0.49-0.21-0.75
		C355.89,78.39,355.88,77.99,355.83,77.39z M362.64,77.57c-0.03-0.4-0.01-0.82-0.1-1.22c-0.34-1.62-1.25-2.37-2.91-2.25
		c-1,0.06-1.68,0.55-2.03,1.46c-0.49,1.3-0.49,2.61-0.01,3.91c0.37,1.01,1.22,1.55,2.34,1.55c1.13,0,1.94-0.51,2.37-1.51
		C362.55,78.91,362.64,78.26,362.64,77.57z"/>
	<path class="st2" d="M281.8,82c-0.49-0.03-0.85-0.04-1.25-0.06c-0.03-0.24-0.06-0.42-0.06-0.6c0-2.71,0-5.41,0-8.14
		c0.37-0.19,0.69-0.16,1.04-0.06c0.1,0.28,0.21,0.6,0.34,0.97c0.18-0.13,0.33-0.24,0.46-0.36c1.25-1.04,2.64-1.06,4.08-0.52
		c0.8,0.3,1.22,0.95,1.4,1.74c0.09,0.36,0.13,0.73,0.13,1.1c0.01,1.79,0.01,3.56,0,5.35c0,0.15-0.04,0.28-0.07,0.45
		c-0.42,0.18-0.8,0.13-1.28,0.03c-0.01-0.33-0.04-0.66-0.04-0.97c0-1.49,0-2.97,0-4.46c0-0.33,0-0.67-0.06-1
		c-0.15-0.78-0.66-1.24-1.45-1.33c-0.33-0.04-0.67-0.04-1-0.01c-1.1,0.09-1.77,0.66-2.01,1.74c-0.1,0.51-0.16,1.03-0.18,1.55
		c-0.03,1.19,0,2.38-0.01,3.56C281.83,81.28,281.81,81.57,281.8,82z"/>
	<path class="st2" d="M205.55,73.12c0.34-0.01,0.63-0.03,0.95-0.04c0.12,0.33,0.24,0.64,0.37,0.97c0.09-0.03,0.21-0.04,0.27-0.1
		c1.06-1.06,2.34-1.19,3.73-0.89c1.09,0.24,1.76,0.91,1.98,2.01c0.07,0.36,0.12,0.73,0.12,1.1c0.01,1.79,0,3.56,0,5.35
		c0,0.1-0.04,0.21-0.06,0.36c-0.37,0.25-0.78,0.09-1.22,0.12c-0.04-0.28-0.1-0.54-0.1-0.78c-0.01-1.52,0-3.04-0.01-4.58
		c0-0.33,0-0.67-0.04-1c-0.12-0.89-0.66-1.4-1.54-1.49c-0.25-0.03-0.52-0.03-0.78-0.01c-1.22,0.06-1.94,0.64-2.18,1.83
		c-0.1,0.51-0.15,1.03-0.16,1.55c-0.03,1.12-0.01,2.24-0.01,3.34c0,0.33,0,0.66,0,0.97c-0.6,0.21-0.6,0.22-1.28,0.1
		c-0.16-0.72-0.06-1.45-0.07-2.18c-0.01-0.75,0-1.49,0-2.24c0-0.7,0-1.42,0-2.12C205.52,74.64,205.46,73.89,205.55,73.12z"/>
	<path class="st5" d="M318.38,81.95c-0.45,0-0.8,0-1.22,0c-0.03-0.28-0.07-0.54-0.07-0.79c-0.01-1.59,0-3.19-0.01-4.78
		c0-0.4-0.07-0.82-0.18-1.19c-0.16-0.6-0.61-0.94-1.21-1.01c-0.51-0.06-1.04-0.06-1.55,0.03c-0.75,0.13-1.3,0.6-1.51,1.34
		c-0.15,0.52-0.24,1.09-0.25,1.64c-0.04,1.22-0.01,2.44-0.01,3.68c0,0.33-0.01,0.66-0.03,1.03c-0.42,0.16-0.8,0.13-1.21,0.06
		c-0.04-0.13-0.1-0.24-0.1-0.34c0-2.71,0-5.43,0-8.12c0-0.1,0.06-0.21,0.12-0.36c0.28,0,0.57,0,0.88,0c0.12,0.31,0.22,0.6,0.37,0.97
		c0.24-0.18,0.42-0.3,0.58-0.43c1.22-0.91,2.55-0.92,3.91-0.43c0.75,0.27,1.21,0.85,1.4,1.62c0.09,0.39,0.15,0.8,0.15,1.21
		c0.01,1.79,0.01,3.56,0,5.35C318.44,81.54,318.41,81.69,318.38,81.95z"/>
	<path class="st6" d="M231.21,81.97c-0.51,0-0.98,0-1.51,0c-0.51-0.91-0.78-1.92-1.16-2.88c-0.4-1-0.79-2-1.15-3.01
		c-0.34-0.97-0.8-1.89-1.03-2.97c0.46,0,0.86,0,1.33,0c0.55,1.16,0.92,2.4,1.37,3.61s0.86,2.43,1.34,3.76
		c0.49-0.83,0.67-1.67,0.97-2.44c0.31-0.83,0.61-1.67,0.91-2.5c0.28-0.8,0.58-1.59,0.88-2.41c0.46,0,0.85,0,1.33,0
		c-0.03,0.22-0.01,0.4-0.07,0.55c-1.01,2.67-2.03,5.34-3.04,8.02C231.36,81.75,231.3,81.81,231.21,81.97z"/>
	<path class="st6" d="M290.31,73.13c0.18-0.03,0.33-0.07,0.48-0.07c0.25,0,0.51,0.03,0.85,0.04c0.86,2.37,1.71,4.74,2.56,7.08
		c0.28,0.07,0.33-0.13,0.39-0.3c0.67-1.85,1.33-3.7,2-5.56c0.15-0.42,0.33-0.82,0.49-1.24c0.46,0,0.85,0,1.33,0
		c-0.01,0.18,0,0.31-0.04,0.43c-1.03,2.71-2.06,5.41-3.09,8.12c-0.03,0.07-0.07,0.13-0.13,0.24c-0.48,0.22-0.98,0.04-1.51,0.12
		c-0.45-0.7-0.63-1.46-0.91-2.18c-0.3-0.76-0.58-1.52-0.88-2.3c-0.28-0.73-0.58-1.45-0.83-2.19
		C290.76,74.64,290.34,73.97,290.31,73.13z"/>
	<path class="st6" d="M322.13,74.22c-0.42-0.04-0.78-0.09-1.1-0.12c-0.16-0.31-0.13-0.55,0.15-0.7c0.3-0.16,0.6-0.3,0.97-0.48
		c0.19-0.54,0.39-1.13,0.61-1.77c0.1-0.03,0.24-0.09,0.39-0.1c0.1-0.01,0.21,0.04,0.36,0.07c0.01,0.3,0.04,0.58,0.06,0.88
		s0,0.6,0,0.94c0.25,0.04,0.45,0.12,0.66,0.12c0.6,0.01,1.18,0,1.73,0c0.31,0.36,0.25,0.66,0.09,1.06
		c-0.76,0.01-1.52,0.04-2.35,0.06c-0.04,0.22-0.12,0.43-0.12,0.64c-0.01,1.49,0,2.97,0,4.46c0,0.18,0,0.37,0.04,0.55
		c0.15,0.79,0.67,1.22,1.48,1.22c0.33,0,0.66-0.04,1.06-0.06c0.03,0.28,0.04,0.57,0.07,0.85c-0.52,0.42-1.09,0.34-1.62,0.36
		c-0.49,0.01-0.95-0.12-1.37-0.39c-0.61-0.39-0.86-1-0.97-1.68c-0.04-0.33-0.03-0.67-0.04-1c0-1.34,0-2.67,0-4.01
		C322.19,74.82,322.15,74.53,322.13,74.22z"/>
	<path class="st2" d="M251.14,81.95c-0.61,0.3-1.25,0.28-1.86,0.18c-0.97-0.13-1.65-0.66-1.86-1.65c-0.09-0.4-0.13-0.8-0.15-1.21
		c-0.01-1.34,0-2.67-0.01-4.01c0-0.33-0.03-0.66-0.04-1.04c-0.4-0.04-0.76-0.07-1.07-0.1c-0.22-0.31-0.18-0.55,0.09-0.72
		c0.31-0.18,0.66-0.33,1.04-0.51c0.15-0.48,0.3-0.98,0.46-1.48c0.12-0.36,0.18-0.37,0.86-0.28c0.01,0.57,0.04,1.15,0.07,1.8
		c0.22,0.04,0.42,0.12,0.63,0.12c0.6,0.01,1.18,0,1.71,0c0.1,0.12,0.19,0.18,0.19,0.24c0.01,0.25,0,0.49,0,0.78
		c-0.82,0.18-1.61-0.01-2.43,0.15c-0.04,0.19-0.12,0.4-0.13,0.61c-0.01,1.42-0.01,2.82,0,4.23c0,0.33,0.04,0.67,0.13,0.98
		c0.16,0.61,0.57,0.94,1.19,0.98c0.4,0.03,0.8,0,1.24,0C251.3,81.34,251.33,81.66,251.14,81.95z"/>
	<path class="st6" d="M384.11,69.36c0.42,0,0.78,0,1.19,0c0.04,0.16,0.13,0.33,0.13,0.49c0,3.89,0,7.78,0,11.67
		c0,0.1-0.04,0.21-0.07,0.36c-0.39,0.19-0.78,0.12-1.21,0.04c-0.03-0.18-0.1-0.36-0.1-0.52c0-3.86,0-7.71,0-11.57
		C384.05,69.73,384.08,69.61,384.11,69.36z"/>
	<path class="st7" d="M378.62,73.09c0.42,0,0.78,0,1.19,0c0.04,0.18,0.13,0.34,0.13,0.52c0,2.67,0,5.34,0,8.02
		c0,0.07-0.03,0.15-0.04,0.25c-0.39,0.28-0.8,0.18-1.21,0.12c-0.06-0.06-0.09-0.09-0.12-0.12c-0.01-0.03-0.04-0.06-0.04-0.1
		c-0.01-2.74-0.01-5.48-0.03-8.23C378.52,73.43,378.56,73.31,378.62,73.09z"/>
	<path class="st7" d="M188.97,73.09c0.43,0,0.79,0,1.19,0c0.04,0.21,0.1,0.39,0.12,0.55c0,2.64,0,5.26,0,7.9
		c0,0.1-0.03,0.21-0.06,0.34c-0.42,0.25-0.83,0.15-1.25,0.1C188.79,81.03,188.79,74.1,188.97,73.09z"/>
	<path class="st5" d="M274.99,81.91c-0.13-1.13-0.12-7.81,0.01-8.76c0.37-0.12,0.75-0.1,1.12-0.01c0.16,0.88,0.19,7.15,0.07,8.69
		C275.69,82.01,275.69,82.01,274.99,81.91z"/>
	<path class="st6" d="M329.33,82.21c-0.63,0-0.97-0.4-0.95-1.1c0.01-0.67,0.42-1.12,1-1.1c0.58,0.01,0.98,0.48,0.98,1.13
		C330.34,81.81,329.96,82.22,329.33,82.21z"/>
	<path class="st4" d="M265.55,81.14c0,0.75-0.37,1.13-1.06,1.09c-0.46-0.03-0.75-0.27-0.86-0.7c-0.03-0.1-0.04-0.21-0.04-0.33
		c-0.01-0.69,0.42-1.19,1.03-1.16C265.2,80.03,265.55,80.45,265.55,81.14z"/>
	<path class="st4" d="M275.61,69.78c0.49,0.03,0.83,0.49,0.79,1.01c-0.04,0.49-0.45,0.83-0.89,0.79c-0.45-0.04-0.75-0.45-0.73-0.95
		C274.81,70.12,275.18,69.75,275.61,69.78z"/>
	<path class="st4" d="M190.36,70.67c0,0.52-0.3,0.88-0.76,0.91c-0.49,0.03-0.83-0.39-0.82-0.95c0.01-0.51,0.36-0.86,0.8-0.85
		C190.03,69.79,190.36,70.17,190.36,70.67z"/>
	<path class="st4" d="M380.02,70.55c-0.01,0.67-0.36,1.03-0.8,1.03s-0.78-0.39-0.78-0.89c0-0.45,0.16-0.73,0.54-0.86
		c0.31-0.12,0.6-0.04,0.79,0.19C379.92,70.21,379.98,70.46,380.02,70.55z"/>
	<path class="st0" d="M104.79,45.27c0.63-0.69,1.19-1.37,1.8-2.01c3.53-3.67,7.26-7.08,11.43-10c3.34-2.34,6.87-4.31,10.73-5.65
		c2.46-0.85,4.98-1.4,7.59-1.36c3.65,0.06,7.03,1.01,10.05,3.14c1.48,1.04,2.7,2.33,3.59,3.91c1.71,3.04,1.79,6.2,0.51,9.4
		c-0.61,1.52-1.51,2.88-2.52,4.16c-0.34,0.43-0.7,0.85-1.07,1.31c0.16,0.24,0.31,0.46,0.48,0.67c1.06,1.4,1.97,2.91,2.58,4.55
		c1.52,4.05,0.85,7.74-1.98,10.98c-1.85,2.12-4.22,3.44-6.9,4.25c-3.8,1.13-7.59,0.98-11.33-0.3c-2.4-0.82-4.62-2-6.72-3.4
		c-2.37-1.56-4.55-3.37-6.59-5.32c-4.05-3.89-7.6-8.2-10.73-12.86C105.39,46.29,105.07,45.8,104.79,45.27z"/>
	<path class="st0" d="M31.27,44.89c-0.42-0.51-0.79-0.94-1.16-1.4c-1.36-1.7-2.38-3.58-2.95-5.69c-0.83-3.1-0.25-5.96,1.54-8.6
		c0.64-0.95,1.43-1.77,2.33-2.49c2.62-2.13,5.63-3.32,8.99-3.68c3.44-0.37,6.72,0.28,9.94,1.43c2.97,1.06,5.72,2.53,8.38,4.23
		c3.71,2.38,7.12,5.16,10.28,8.23c1.48,1.43,2.86,2.95,4.29,4.44c0.15,0.15,0.27,0.33,0.39,0.46c0.07,0.34-0.15,0.57-0.27,0.79
		c-0.83,1.51-1.83,2.92-2.88,4.28c-3.44,4.5-7.26,8.67-11.64,12.3c-2.33,1.92-4.83,3.61-7.57,4.89c-1.88,0.88-3.8,1.59-5.86,1.88
		c-4.81,0.69-9.24-0.25-13.15-3.23c-1.91-1.45-3.31-3.31-4.01-5.6c-0.79-2.58-0.55-5.1,0.46-7.57c0.57-1.4,1.36-2.68,2.27-3.89
		C30.85,45.44,31.04,45.19,31.27,44.89z"/>
	<path class="st0" d="M440.8,44.66c-0.54,0-0.89,0-1.27,0c-6.8,0-13.59,0-20.4,0c-0.3,0-0.6,0.01-0.89-0.01
		c-1.09-0.1-1.92-0.95-2.03-2.03c-0.01-0.18-0.01-0.37-0.01-0.55c0-2.09,0-4.16,0-6.25c0-0.21,0.01-0.43,0.03-0.6
		c0.09-0.07,0.1-0.12,0.13-0.13c0.03-0.01,0.07-0.03,0.1-0.03c7.91-0.01,15.83-0.01,23.74-0.03c0.15,0,0.28,0.03,0.49,0.04
		c0.18,1.04,0.06,2.07,0.09,3.1c0.01,1.07,0,2.16,0,3.23C440.8,42.46,440.8,43.49,440.8,44.66z"/>
	<path class="st0" d="M377.53,30.18c-0.21,0.06-0.31,0.1-0.42,0.1c-7.91,0-15.81,0-23.73,0c-0.1,0-0.21-0.06-0.39-0.1
		c-0.03-0.19-0.06-0.4-0.06-0.61c0-2.12-0.01-4.23,0.01-6.35c0-0.43,0.07-0.91,0.25-1.3c0.34-0.76,1-1.18,1.83-1.28
		c0.3-0.03,0.6-0.03,0.89-0.03c6.25,0,12.48,0,18.72,0c0.25,0,0.52-0.01,0.78,0.01c1.22,0.12,2.04,0.94,2.18,2.16
		c0.01,0.15,0.01,0.3,0.01,0.45c0,2.12,0,4.23,0,6.35C377.58,29.76,377.55,29.94,377.53,30.18z"/>
	<path class="st0" d="M244.27,44.66c-3.12,0-6.25,0-9.36,0c-0.3,0-0.6,0.01-0.89-0.01c-1.07-0.09-1.94-0.94-2.06-2.01
		c-0.03-0.25-0.01-0.52-0.01-0.78c0-6.13,0-12.27,0-18.39c0-0.18,0-0.37,0-0.55c0.07-1.31,0.94-2.21,2.27-2.3
		c0.22-0.01,0.45,0,0.67,0c6.25,0,12.49,0,18.72,0c0.37,0,0.75,0,1.1,0.06c1.06,0.19,1.83,1.15,1.82,2.1c0,0.3,0,0.6,0.01,0.89
		c0,5.98,0,11.97,0,17.95c0,0.33,0,0.67-0.01,1c-0.03,1.13-1.09,2-2.01,2.04c-0.3,0.01-0.6,0.01-0.89,0.01
		C250.5,44.66,247.38,44.66,244.27,44.66z"/>
	<path class="st0" d="M368.8,77.3c0.06-0.39,0.1-1.03,0.27-1.62c0.27-1,0.91-1.46,1.94-1.55c0.25-0.01,0.52-0.01,0.78,0
		c0.82,0.06,1.42,0.46,1.71,1.21c0.19,0.51,0.31,1.07,0.39,1.61c0.12,0.89,0,1.77-0.33,2.62c-0.39,1.01-1.15,1.49-2.25,1.46
		c-1.19-0.03-1.91-0.55-2.25-1.62c-0.07-0.21-0.13-0.43-0.16-0.64C368.84,78.36,368.83,77.96,368.8,77.3z"/>
	<path class="st0" d="M306.33,76.57c-1.19,0.16-3.56,0.13-4.37-0.03c-0.06-1.51,0.85-2.47,2.33-2.46
		C305.65,74.12,306.38,74.96,306.33,76.57z"/>
	<path class="st0" d="M390.74,76.57c0.06-1.71,1.04-2.59,2.62-2.47c0.55,0.04,1,0.27,1.33,0.7c0.39,0.52,0.6,1.09,0.45,1.74
		C394.27,76.72,391.87,76.74,390.74,76.57z"/>
	<path class="st0" d="M259.16,76.62c-0.98,0.16-3.58,0.16-4.44,0.01c-0.07-1.51,0.88-2.55,2.35-2.55
		C258.49,74.1,259.23,74.96,259.16,76.62z"/>
	<path class="st0" d="M222.97,77.54c-0.1,0.58-0.16,1.18-0.33,1.74c-0.33,1.13-1.22,1.76-2.4,1.77c-1.19,0.01-2.07-0.58-2.44-1.71
		c-0.39-1.19-0.39-2.41,0-3.61c0.36-1.07,1.1-1.58,2.27-1.61c1.27-0.03,2.03,0.42,2.49,1.46C222.79,76.13,222.9,76.72,222.97,77.54z
		"/>
	<path class="st0" d="M242.02,77.77c0.13,0.57,0.1,1.07-0.03,1.56c-0.4,1.36-2.1,2.12-3.41,1.58c-1.04-0.43-1.09-2-0.31-2.59
		c0.22-0.18,0.51-0.3,0.78-0.39C240.02,77.62,241.01,77.69,242.02,77.77z"/>
	<path class="st0" d="M362.64,77.57c0,0.67-0.09,1.34-0.34,1.95c-0.43,1.01-1.22,1.52-2.37,1.51c-1.12,0-1.95-0.54-2.34-1.55
		c-0.48-1.3-0.48-2.62,0.01-3.91c0.34-0.92,1.03-1.4,2.03-1.46c1.65-0.1,2.56,0.63,2.91,2.25
		C362.61,76.75,362.61,77.17,362.64,77.57z"/>
</g>
</svg>
