<?xml version="1.0" encoding="utf-8"?>
<!-- Generator: Adobe Illustrator 24.0.0, SVG Export Plug-In . SVG Version: 6.00 Build 0)  -->
<svg version="1.1" id="Слой_2" xmlns="http://www.w3.org/2000/svg" xmlns:xlink="http://www.w3.org/1999/xlink" x="0px" y="0px"
	 viewBox="0 0 4300 2000" style="enable-background:new 0 0 4300 2000;" xml:space="preserve">
<style type="text/css">
	.st0{fill:#18F4F3;}
	.st1{opacity:0.5;}
	.st2{fill:#E7C86D;}
	.st3{fill:#333381;}
	.st4{fill:#555CA3;}
	.st5{fill:#DDE3F2;}
	.st6{fill:#E5B0B4;}
	.st7{fill:#D25C2A;}
	.st8{fill:#B5451E;}
	.st9{fill:#C3592D;}
	.st10{fill:#9E5F32;}
	.st11{fill:#AD7041;}
	.st12{fill:#CED4EA;}
	.st13{fill:#CB8711;}
	.st14{fill:#D3652C;}
	.st15{fill:#F0D170;}
	.st16{opacity:0.2;fill:#DC8D39;}
	.st17{fill:#B7BED4;}
	.st18{fill:#B45224;}
	.st19{opacity:0.6;fill:#D25C2A;}
	.st20{fill:#221E50;}
	.st21{fill:#2B295E;}
	.st22{opacity:0.2;fill:#333381;}
</style>
<g>
	<path class="st0" d="M4225.28,1824.05H1148.23H908.97H74.72c-5.61,0-10.21,4.05-10.21,9.01s4.6,9.01,10.21,9.01h834.25h239.26
		h3077.04c5.61,0,10.21-4.05,10.21-9.01S4230.89,1824.05,4225.28,1824.05z"/>
	<g class="st1">
		<path class="st2" d="M2327.95,1153.76c0,0-95.16-33.95-46.81-149.1C2281.15,1004.66,2388.36,1065.54,2327.95,1153.76z"/>
		<path class="st2" d="M2364.22,1158.33c0,0-22.91-98.06,100.44-119.98C2464.66,1038.35,2471.38,1161.1,2364.22,1158.33z"/>
		<path class="st2" d="M1790.37,877.3c0,0-22.91-98.06,100.44-119.98C1890.81,757.33,1897.53,880.08,1790.37,877.3z"/>
	</g>
	<g>
		<path class="st3" d="M2087.53,1621.57c0,85.08-27.47,159.8-68.91,202.48h-160.62c-41.44-42.68-68.93-117.4-68.93-202.48H2087.53z"
			/>
		<path class="st0" d="M2020.69,1566.02c-21.11,8.12-35.43,38.1-42.19,55.56h-26.33c9.54-21.3,43.16-51.51,51.41-74.99
			c10.1-28.76-53.63-223.08-53.63-223.08s-7.77,77.73-31.09,160.12c-3.2,11.3-4.93,22.33-5.54,32.96
			c-11.87-58.54-23.2-119.41-21.66-131.67c3.11-24.87,27.98-48.19,0-163.23c0,0-53.63,37.77-33.42,85.73
			c17.52,41.59,57.26,257.51,67.51,314.16h-0.79c-11.24-46.92-48.42-199.48-58.94-208.68c-12.44-10.88-45.08-87.05-75.4-116.59
			c-30.31-29.54-131.36-54.41-131.36-54.41s48.19,32.65,76.17,94.12c27.98,61.48,104.15,67.55,125.92,94.07
			c17.2,20.95,45.08,141.75,56.02,191.49h-13.04c-7.74-28.57-46.72-149.45-59.3-151.55c-13.99-2.33-71.12-15.16-71.12-15.16
			s69.24,18.18,71.12,20.4c23.95,28.36,46.36,127.91,50.34,146.3h-7.12c-6.77-32.53-24.49-90.36-60.71-92.09
			c-48.97-2.33-103.77,61.79-129.42,61.79c0,0,69.95,17.82,106.1-5.08c36.14-22.9,57.13-28.73,61.21-18.24
			c2.92,7.51,13.91,32.75,17.35,53.61h-93.72c0,85.08,27.49,159.8,68.93,202.48h62.1c41.46-42.68,68.93-117.4,68.93-202.48h-6.21
			c4.61-6.63,9.94-14.03,13-17.47c6.22-7,29.54-7.77,50.52-10.11c20.99-2.33,23.32-24.09,23.32-24.09S2051,1554.36,2020.69,1566.02z
			 M1931.57,1603.55c3.4,7.13,6.79,13.2,9.72,18.03h-5.81C1934.42,1616.7,1933.09,1610.6,1931.57,1603.55z"/>
	</g>
	<g>
		<polygon class="st4" points="940.14,305.55 940.14,127.54 903.69,127.54 903.69,305.55 425.42,305.55 425.42,676.3 1402.94,676.3 
			1402.94,305.55 		"/>
		<rect x="442.95" y="321.3" class="st5" width="944.28" height="336.19"/>
		<rect x="484.94" y="351.65" class="st4" width="159.64" height="269.14"/>
		<g>
			<rect x="683.86" y="351.65" class="st4" width="671.25" height="33.86"/>
			<rect x="683.86" y="414.63" class="st4" width="671.25" height="33.86"/>
			<rect x="683.86" y="486.22" class="st4" width="671.25" height="33.87"/>
		</g>
	</g>
	<g>
		<g>
			<path class="st6" d="M851.78,1330.12L851.78,1330.12L851.78,1330.12c-0.32,0.18-0.63,0.38-0.92,0.6
				c-4.52,2.5-20.42,7.47-20.42,7.47s1.25,16.82,1.6,17.08l46.91-2.04l-2.04-7.56c-0.08-0.48-0.21-0.96-0.38-1.42h0l0,0
				c-0.52-1.39-1.42-2.65-2.68-3.59l-13.43-10C857.83,1328.75,854.44,1328.65,851.78,1330.12z"/>
			<polygon class="st6" points="806.63,1690.65 813.64,1745.81 842.31,1746.69 860.84,1666.84 			"/>
			<path class="st7" d="M810.89,1723.69l-4.25,30.65l80.72,37.16C887.35,1791.5,883.41,1745.7,810.89,1723.69z"/>
			<polygon class="st6" points="982.89,1771.9 1021.83,1811.59 1045.19,1794.96 1011.65,1720.15 			"/>
			<path class="st7" d="M1005.14,1795.56l8.95,29.62h88.86C1102.95,1825.18,1080.22,1785.22,1005.14,1795.56z"/>
			<path class="st8" d="M814.38,1499.43c-0.03,0.16-0.04,0.32-0.07,0.48c-3.8,27.64-12.67,49.82-20.67,63.29
				c-20.45,34.47-59.22,72.85-152.2,85.39c-4.5,0.6-9.15,1.15-13.92,1.63c-8.67,0.89-17.8,1.55-27.37,1.99
				c-1.22,0.05-2.44,0.11-3.67,0.13c-27.04-0.68-57.3-5.63-91.06-13.64c-69.28-16.44-114.41-50.27-142.95-91.42
				c0,0-0.01,0-0.01-0.01c-8.74-12.59-15.92-25.86-21.77-39.54c-15.85-37.03-21.92-76.94-22.49-113.96
				c0.53-35.13,5.97-66.84,12.04-89.39c4.71-17.59,12.05-34.3,22.02-49.03c2.61-3.87,5.42-7.62,8.42-11.19
				c9.5-11.4,20.87-21.2,34.17-28.78c33.09-18.86,141.94-37.65,234.14,11C798.7,1315.92,824.24,1426.54,814.38,1499.43z"/>
			<path class="st9" d="M814.31,1499.91c-3.8,27.64-12.67,49.82-20.67,63.29c-20.45,34.47-59.22,72.85-152.2,85.39
				c-4.5,0.6-9.15,1.15-13.92,1.63c-8.67,0.89-17.8,1.55-27.37,1.99c-1.22,0.05-2.44,0.11-3.67,0.13
				c-27.04-0.68-57.3-5.63-91.06-13.64c-69.28-16.44-114.41-50.27-142.95-91.42c0,0-0.01,0-0.01-0.01
				c-6.42-10.4-11.87-21.23-16.44-32.33c47.42-14.38,167.06-45.38,285.87-33.8C694.43,1487.25,759.39,1494.04,814.31,1499.91z"/>
			<path class="st7" d="M700.95,1158.8c-4.26-18.49-8.07-31.14-8.07-31.14c-21.09-20.91-18.38-183.44-18.62-193.38
				c-0.7-28.7-11.55-40.7-11.55-40.7c-5.56-15.2-96.2-22.93-118.92,35.07c-14.59,37.22-51.89,109.58-51.89,109.58
				c-29.74,59.75-37.98,86.17-37.98,125.19l116.73-4.62c2.2-5.5,4.12-9.51,5.46-12.12c-0.37,3.91-0.62,7.96-0.76,12.12H700.95z"/>
			<path class="st10" d="M628.2,1003.06c0,0-8.74,50.77,22.87,74.73l-30.1,52.84l-55.35-65.08c0,0,6.92-31.59,5.49-79.88
				L628.2,1003.06z"/>
			<path class="st11" d="M646.8,1026.57c0,0-68.58,12.52-75.72-30.31c-7.14-42.83-20.8-70.06,22.69-79.86
				c43.49-9.81,54.74,5.12,60.6,18.83C660.23,948.94,664.46,1022.21,646.8,1026.57z"/>
			<path class="st7" d="M658.45,911.65c0,0-85.42,65.83-77.88,114.46c7.09,45.68-6.36,49.75-16.35,54.1
				c-25.79,11.24-59.59-9.31-72.99-8.65c-9.54,0.47,14.96-11,30.54-31.81c41.44-55.35,37.4-130.14,45.68-135.52
				C623.8,867.54,658.45,911.65,658.45,911.65z"/>
			<path class="st5" d="M833.92,1356.71c0,0-50.01-2.6-80.41-11.14c-58.54-16.46-67.14-24.06-75.75-81.01
				c-8.98-59.4-7.03-118.92-4.48-153.95c0.29-4.13,0.6-7.92,0.9-11.32c1.11-12.71,2.12-20.12,2.12-20.12s34.15,9.61,40.52,49.65
				c7.54,47.41,12.69,136.53,17.83,152.84c2.93,9.3,95.79,56.54,95.79,56.54l2.69,14.26L833.92,1356.71z"/>
			<path class="st12" d="M833.92,1356.71c0,0-50.01-2.6-80.41-11.14c-58.54-16.46-67.14-24.06-75.75-81.01
				c-8.98-59.4-7.03-118.92-4.48-153.95c9.08,3.95,18.04,17.03,22.35,49.99c10.59,80.78-7.95,131.11,25.16,154.28
				c27.61,19.32,87.45,32.92,112.33,37.57L833.92,1356.71z"/>
			<path class="st5" d="M694.39,1141.41c-0.56-0.93-1.07-1.89-1.52-2.87c-2.12-4.46-3.35-9.31-3.99-14.21
				c-2.45-18.94-12.58-45.16-12.58-45.16l-37.88-15.22c0.52,0.81,18.54,29.45-27.55,29.11c-17.86-0.13-25.33-16.3-30.46-28.35
				l-56.51,13.35c0,0-31.23,5.79-38.41,17.65c-52.66,87.15-83.74,167.47-90.13,192.97c-1.02,4.08,1.13,10.67,4.5,13.19
				c9.48,7.06,16.62,8.86,46.79,14.34c5.09,0.93,9.99,1.63,14.67,2.15c21.53,2.4,38.68,0.94,49.72-0.85
				c-10.05,33.24-24.84,68.18-24.84,68.18s4.49,3.1,16.61,6.34c2.9,0.78,119.14,19.77,122.96,20.53
				c14.66,2.89,65.96-25.64,65.96-25.64s-33.28-40.9-6.69-127.49C698.17,1216.7,707.12,1163.17,694.39,1141.41z M476.87,1274.67
				c-7.95-2.28-15.84-3.86-22.95-4.75c47.81-66.81,52.26-70.95,52.71-71.49c0,0,0.01,0.03,0.03,0.08
				c0.58,2.25,13.48,51.71,13.48,74.02c0,3.95,0.21,10.16-0.63,15.23C510.09,1283.5,492.08,1279.02,476.87,1274.67z"/>
			<path class="st12" d="M565.62,1319.96c-6.38,23.84-19.84,56.51-41.36,67.1c-5.05,2.48-12.69,4.04-21.44,4.97
				c-12.12-3.25-16.61-6.34-16.61-6.34s36.38-73.74,33.93-113.16c-1.39-22.26-12.9-71.77-13.48-74.02
				c2.82-5.38,6.62-10.29,11.09-10.09C527.45,1188.85,572.01,1296.12,565.62,1319.96z"/>
			<path class="st4" d="M486.2,1385.69c-4.08,8.55-57.93,105.42,31.46,131.25c89.39,25.82,282.71,18.84,282.71,18.84
				s20.51,81.03,45.8,116.65c40.61,57.19,113.01,121.34,113.01,121.34h82.89c0,0-143.38-310.59-172.51-331.78
				c-21.31-15.5-128.52-42.92-187.78-52.12c-14.44-2.24-101.81-4.89-125.19-5.81C519.93,1382.62,488.47,1380.94,486.2,1385.69z"/>
			<path class="st3" d="M681.77,1389.87c0,0,182.44-55.74,217.28-35.73c61.9,35.57-44.04,351.92-44.04,351.92l-61.05-9.78
				c0,0-11.42-85.56-2.31-143.02c5.29-33.37,24.56-119.47,24.56-119.47s-46.61-18.92-62.7-23.59
				C733.31,1404.35,681.77,1389.87,681.77,1389.87z"/>
			<path class="st13" d="M641.43,1648.59c0,0.53-18.3,3.15-28.3,3.6c-4.04,0.19-8.15,0.25-12.34,0.21c-0.36,0.01-0.72,0.01-1.07,0
				c-1.07-0.03-2.16-0.04-3.24-0.07c-27.04-0.68-57.3-5.63-91.06-13.64c-90.49-21.47-139.78-72.64-164.73-130.98
				c-15.85-37.03-21.92-76.94-22.49-113.96c0.53-35.13,5.97-66.84,12.04-89.39c4.71-17.59,12.05-34.3,22.02-49.03
				c1.96-2.91,4.04-5.76,6.25-8.52c0.7-0.9,1.43-1.79,2.17-2.67C423.03,1309.36,611.44,1516.67,641.43,1648.59z"/>
			<path class="st14" d="M636.71,1648.59c0,0.53-18.3,3.15-28.3,3.6c-2.52,0.12-5.05,0.19-7.61,0.21c-0.36,0.01-0.72,0.01-1.07,0
				c-1.07-0.03-2.16-0.04-3.24-0.07c-27.04-0.68-57.3-5.63-91.06-13.64c-90.49-21.47-139.78-72.64-164.73-130.98
				c-15.85-37.03-21.92-76.94-22.49-113.96c0.53-35.13,5.97-66.84,12.04-89.39c4.71-17.59,12.05-34.3,22.02-49.03
				c1.96-2.91,4.04-5.76,6.25-8.52C423.28,1314.86,607.11,1518.42,636.71,1648.59z"/>
			<path class="st6" d="M543.82,1296.87L543.82,1296.87L543.82,1296.87c-0.36-0.06-0.73-0.1-1.1-0.12
				c-5.08-0.92-14.61-5.7-14.61-5.7l-3.06,16.68c0.04,0.43-1.97,5.67,0.25,8.64c14.07,18.87,19.2,16.35,19.2,16.35l8.95-7.92
				c0.24-0.43,0.44-0.87,0.6-1.34h0h0c0.48-1.4,0.58-2.95,0.19-4.48l-4.08-16.24C549.37,1299.63,546.81,1297.4,543.82,1296.87z"/>
			<g>
				<g>
					<path class="st3" d="M837.19,1503.09c-4.03-0.56-8.42-2.51-12.67-4.39c-3.95-1.75-8.03-3.57-11.5-4.07
						c-44.57-6.5-84.97-14.46-120.61-21.47c-9.35-1.84-18.5-3.64-27.48-5.37c-81.11-15.62-127.14-24.18-127.6-24.24l0,0
						c0.46,0.06,46.82,5.86,128.04,21.5c8.98,1.73,18.14,3.53,27.49,5.37c35.61,7.01,75.97,14.96,120.46,21.45
						c3.88,0.57,8.16,2.47,12.29,4.3c4.06,1.8,8.25,3.66,11.86,4.16C849.21,1501.96,848.93,1504.72,837.19,1503.09z"/>
				</g>
			</g>
			<g>
				<g>
					<path class="st3" d="M974.45,1752.24l-0.77,0.21c-27.47-49.03-57.05-108.21-84.51-171.08c-4.2-9.6-8.45-19.52-12.65-29.45
						c-4.62-10.95-9.23-22.08-13.71-33.05c-1.21-2.94-1.77-6.52-2.2-10.14v-0.01c0.81-1.18,1.59-2.38,2.37-3.59
						c0.01,0.09,0.01,0.18,0.03,0.28c0.48,4.41,0.95,8.97,2.33,12.34c4.46,10.97,9.07,22.08,13.69,33.02
						c4.2,9.92,8.45,19.83,12.63,29.43C919.09,1642.96,947.02,1703.3,974.45,1752.24z"/>
				</g>
			</g>
			<path class="st5" d="M410.25,1270.19c0,0,25.6-8.5,79.24,8.06c43.52,13.43,38.63,12.8,38.63,12.8l-3.86,22.73
				c0,0-52.1,17.52-108.55-4.1c0,0-25.41-5.61-19.67-23.52C401.77,1268.25,410.25,1270.19,410.25,1270.19z"/>
		</g>
		<rect x="154.21" y="1322.28" class="st4" width="1450.53" height="502.06"/>
		<rect x="154.21" y="1291.1" class="st3" width="1496.52" height="37.37"/>
		<polygon class="st7" points="678.7,1129.04 914.18,1129.04 862.74,1291.1 622.99,1291.1 		"/>
		<g>
			<path class="st5" d="M793.77,1026.61h91.02c0,0,55.75,40.2,45.7,118.33l-101.28,7.38
				C829.22,1152.31,851.42,1087.29,793.77,1026.61z"/>
			<path class="st10" d="M1078.16,1001.32c0,0,14.63,51.89,29.42,81.59l77.73-14.46c0,0-46.37-33.4-44.81-86.12L1078.16,1001.32z"/>
			<path class="st11" d="M1059.5,1012.05c0,0,74.88,13.67,82.68-33.09c7.8-46.77,22.71-76.5-24.77-87.2
				c-47.48-10.71-59.77,5.59-66.17,20.56C1044.84,927.29,1040.22,1007.29,1059.5,1012.05z"/>
			<path class="st10" d="M1239.43,1373.13c0,0-281.89,38.28-319.39,99.09c0,0-18.59,27.33,10.42,105.83
				c29.01,78.5,102.68,207.36,102.68,207.36h42.02c0,0-64.5-249.35-66.67-260.2c0,0,212.45,24.89,240.65-16.07
				C1277.35,1468.19,1239.43,1373.13,1239.43,1373.13L1239.43,1373.13z"/>
			<path class="st11" d="M1051.23,1060.22c-22.16,11.08-137.05,123.48-137.05,123.48s-57.26-75.93-66.06-91.49
				c-0.27-0.85-0.43-1.73-0.42-2.61c0.04-9.1-7.44-19.75-18.13-26.27c-11.14-6.8-7.56-6-15.37-10.99c-7.81-4.99-9.54,7.34-9.54,7.34
				c-1.57,23.71,14.42,33.48,21.41,36.6c1.93,0.86,3.16,2.79,3.14,4.91c0,0,32.35,126.72,84.96,152.29
				c0,0,131.93-77.3,137.05-117.64c5.12-40.33,46.96-84.57,46.96-84.57S1072.71,1049.48,1051.23,1060.22z"/>
			<path class="st11" d="M1157.05,1373.13c0,0-281.89,38.28-319.39,99.09c0,0-18.59,27.33,10.42,105.83
				c29.01,78.5,102.68,207.36,102.68,207.36h42.02c0,0-64.5-249.35-66.67-260.2c0,0,212.45,24.89,240.65-16.07
				C1194.97,1468.19,1157.05,1373.13,1157.05,1373.13L1157.05,1373.13z"/>
			<path class="st15" d="M1240.32,1527.98c-35.86,26.55-290.3,11.38-290.3,11.38c2.65-6.01,1.66-20.09-0.93-36.54
				c-5.58-35.45-18.59-81.9-18.59-81.9c53.7-21.29,191.87-43.78,193.23-52.22c1.06-6.61-42.36-84.77-65.31-123.08
				c-0.03-0.05-0.06-0.1-0.09-0.15c-0.01-0.01-0.01-0.02-0.02-0.03c-6.29-10.5-11.04-17.96-12.87-20.09
				c-8.5-9.85-3.54-49.67-5.05-51.57c-0.01-0.01-0.02-0.02-0.03-0.02c-1.81-1.55-24.71,21.64-24.71,21.64
				c-2.28-19.51-38.17-74.42-38.17-74.42s65.34-59.81,74.97-65.46c13.64-8.02,89.5-19.77,142.6-22.81
				c30.11-1.72,37.52,40.95,40.07,91.16c1.93,38.34,1.04,81.09,5.22,111.83c9.65,71.02,62.41,145.93,65.44,192.95
				C1308.8,1475.64,1276.18,1501.43,1240.32,1527.98z"/>
			<path class="st16" d="M1240.32,1527.98c-35.86,26.55-290.3,11.38-290.3,11.38c2.65-6.01,1.66-20.09-0.93-36.54
				c51.12-0.33,199.71-2.01,237.21-10.31c45.51-10.07,44.36-119.37,17.07-179.37c-27.16-59.69,31.39-182.5,31.73-189.3
				c1.93,38.34,1.04,81.09,5.22,111.83c9.65,71.02,62.41,145.93,65.44,192.95C1308.8,1475.64,1276.18,1501.43,1240.32,1527.98z"/>
			<path class="st16" d="M1058.3,1245.43c-6.29-10.5-11.04-17.96-12.87-20.09c-8.5-9.85-3.54-49.67-5.05-51.57
				c-0.01-0.01-0.02-0.02-0.03-0.02c2.55-3.21,6.27-5.78,11.7-5.29C1064.55,1169.58,1046.8,1225.75,1058.3,1245.43z"/>
			<path class="st9" d="M1082.99,1782.06l-10.61,43.02h-105.3C967.08,1825.09,994.01,1767.05,1082.99,1782.06z"/>
			<path class="st7" d="M1004.12,1782.06l-10.61,43.02h-105.3C888.21,1825.09,915.15,1767.05,1004.12,1782.06z"/>
			<path class="st4" d="M1069,892.37c0,0-36.62-2.55-39.44,25.64c-2.82,28.19,53.56,35.89,59.9,53.18
				c6.34,17.29,24.2,46.66,24.2,46.66S1099.03,889.51,1069,892.37z"/>
			<path class="st7" d="M1051.58,893.65c-1.49,0.8-2.28,1.3-2.28,1.3S1049.79,893.3,1051.58,893.65z"/>
			<path class="st4" d="M1222.94,1287.19c1.9-32.84-10.78-77.59-11.53-80.17c5.16,23.91,2.69,63.12,1.04,82.05
				c-37.35,6.6-88.85,15.18-123.53,18.93c7.41-25.75,11.42-88.08,13.05-120.03c-4.37,39.49-22.03,100.3-28.08,121.43
				c-6.41,0.45-11.73,0.61-15.6,0.4c0,0,61.47-278.88,28.58-354.71c-22.23-51.25-31.57-60.69-35.31-61.43
				c9.73-5.37,49.06-24.89,86.98-13.46c43.69,13.15,82.2,161.25,96.55,243.64c14.33,82.41,21.45,146.02,24.47,156.65
				C1259.57,1280.48,1244.73,1283.3,1222.94,1287.19z"/>
		</g>
		<g>
			<path class="st17" d="M1314.71,1810.67c0,7.93-6.48,14.41-14.41,14.41H960.58c-7.93,0-14.41-6.48-14.41-14.41
				c0-7.93,6.48-14.41,14.41-14.41h152.33v-223.68h40.95v223.68h146.45C1308.23,1796.26,1314.71,1802.75,1314.71,1810.67z"/>
			<path class="st7" d="M1498.69,1261.27c-17.63,109.71-43.19,267.74-47.5,288.75c-6.67,32.61-71.22,31.94-226.99,29.11
				c-26.2-0.48-49.59-0.75-70.36-0.89c-14.98-0.1-28.61-0.13-40.95-0.1c-72.3,0.17-100.67,2.22-100.67,2.22
				s-43.64-80.44,211.97-54.04c28.97,2.99,41.65-142.77,47.13-256.29c3.46-71.84,65.2-126.87,136.98-122.15
				c8.25,0.54,16.17,2.08,23.66,4.5C1476.9,1166.8,1506.55,1212.38,1498.69,1261.27z"/>
		</g>
		<path class="st18" d="M1498.69,1261.27c-17.63,109.71-43.19,267.74-47.5,288.75c-6.67,32.61-71.22,31.94-226.99,29.11
			c-26.2-0.48-211.97,1.23-211.97,1.23s-43.64-80.44,211.97-54.04c90.4,20.6,70.08-263.98,104.09-323.37
			c23.9-41.73,74.56-50.59,103.68-50.58C1476.9,1166.8,1506.55,1212.38,1498.69,1261.27z"/>
	</g>
	<g>
		<path class="st7" d="M3851.54,1198.76H2075.83c-7.82,0-14.21,6.4-14.21,14.21v339.01c0,7.82,6.4,14.21,14.21,14.21h1775.71
			c7.82,0,14.21-6.4,14.21-14.21v-339.01C3865.76,1205.16,3859.36,1198.76,3851.54,1198.76z"/>
		<path class="st8" d="M3851.84,1566.2h-1776.3c-7.65,0-13.92,6.26-13.92,13.92v230.01c0,7.65,6.26,13.92,13.92,13.92h1776.3
			c7.65,0,13.92-6.26,13.92-13.92v-230.01C3865.76,1572.47,3859.49,1566.2,3851.84,1566.2z"/>
		<path class="st19" d="M3856.75,1566.2H2070.63c-4.95,0-9.01,4.05-9.01,9.01v89.99c0,4.95,4.05,9.01,9.01,9.01h1786.12
			c4.95,0,9.01-4.05,9.01-9.01v-89.99C3865.76,1570.26,3861.7,1566.2,3856.75,1566.2z"/>
		<path class="st7" d="M2061.63,1482.33v327.51c0,7.82-6.4,14.21-14.22,14.21h-124.64c-7.81,0-14.21-6.38-14.21-14.21v-327.51
			c0-7.82,6.4-14.22,14.21-14.22h124.64C2055.23,1468.11,2061.63,1474.51,2061.63,1482.33z"/>
		<path class="st7" d="M4018.82,1482.33v327.51c0,7.82-6.4,14.21-14.21,14.21h-124.64c-7.82,0-14.21-6.38-14.21-14.21v-327.51
			c0-7.01,5.12-12.85,11.8-14.01c0.79-0.14,1.59-0.21,2.41-0.21h124.64C4012.42,1468.11,4018.82,1474.51,4018.82,1482.33z"/>
		<path class="st8" d="M2061.63,1482.33v327.51c0,7.82-6.4,14.21-14.22,14.21h-124.64c-7.81,0-14.21-6.38-14.21-14.21V1648.2
			c0.03-0.27,0.04-0.52,0.07-0.79c5.37-58.73,110.69-157.83,134.21-179.3h4.57C2055.23,1468.11,2061.63,1474.51,2061.63,1482.33z"/>
		<path class="st8" d="M4018.82,1590.96v218.88c0,7.82-6.4,14.21-14.21,14.21h-124.64c-7.82,0-14.21-6.38-14.21-14.21v-327.51
			c0-7.01,5.12-12.85,11.8-14.01c10.74,37.61,54.79,124.63,127.63,120.93C4010.16,1589,4014.7,1589.61,4018.82,1590.96z"/>
	</g>
	<g>
		<path class="st11" d="M3423.65,1335.47L3423.65,1335.47L3423.65,1335.47c0.58,0.03,1.16,0.1,1.74,0.22
			c8.22,0.41,34.45-3.59,34.45-3.59s-8.27,34.82-12.8,36.15c-12.3,3.63-22.65,14.47-32.99,16.97c-7.06,1.7-14.11-2.79-15.48-9.92
			l0,0c-0.22-0.75-0.37-1.52-0.44-2.29l0,0h0c-0.23-2.35,0.17-4.78,1.33-7.02l12.23-23.7
			C3414.03,1337.73,3418.82,1335.21,3423.65,1335.47z"/>
		<polygon class="st12" points="3465.74,1326.95 3444.43,1331.39 3440.11,1371.31 3466.43,1371.19 		"/>
		<path class="st5" d="M3465.74,1326.95l0.69,44.24c0,0,37.64,1.46,75.38-0.04c33.15-1.3,66.38-4.9,74.2-13.77
			c8.92-10.12,15.32-87.98,19.36-158.41c3.52-61.59,5.24-117.5,5.24-117.5s-28.45,13.32-33.51,16.75
			c-21.54,14.6-53.49,201.96-53.49,201.96S3476.13,1322.86,3465.74,1326.95z"/>
		<path class="st20" d="M3346.71,1791.89l-8.44,32.15l-87.55,0.04C3250.72,1824.08,3272.6,1781.6,3346.71,1791.89z"/>
		<path class="st20" d="M3518.11,1717.3l12.68,30.73l-69.16,53.69C3461.63,1801.72,3452.82,1753.84,3518.11,1717.3z"/>
		<path class="st5" d="M3835.84,1088.65c-2.11-2.17-10.33-7.19-57.44-15.62c-3.59,9.8-38.65,26.03-69.32,24.45
			c-3.38-0.17-8.39-4.78-8.44-4.79c-24.23-3.42-35.74-16.41-34.62-18.15c-1,0.1-25.43,6.92-25.43,6.92
			c-35.73,156.31-7.75,346.17,0,353.95c5.53,5.53,66.57,7.12,115.65,9.02c43.19,1.65,82.78,2.2,82.78,2.2
			c2.62-3.28,8.67-30.43,14.32-68.66c4.3-28.96,8.37-64.29,10.57-100.41C3862.76,1266.54,3863.41,1117.02,3835.84,1088.65z"/>
		<path class="st10" d="M3695.39,1032.13c0,0-6.7,54.9-7.45,62.67l44.43,6.86l29.18-24.16c0,0-14.38-27.06-11.48-67.24
			L3695.39,1032.13z"/>
		<path class="st12" d="M3853.34,1377.97c-5.65,38.23-11.7,65.37-14.32,68.66c0,0-39.59-0.55-82.78-2.2
			c-5.05-14.29-75.35-19-56.82-42.31c2.07-2.59,26.99-27.46,58.42-40.96c12.8-5.5,38.99-25.84,44.05-56.84
			c6.99-42.79,36.38-68.37,46.37-66.7C3855.21,1238.77,3857.36,1314.12,3853.34,1377.97z"/>
		<polygon class="st3" points="3550.42,1374.41 3587.77,1389.35 3640.6,1435.41 3587.77,1423.53 		"/>
		<path class="st11" d="M3689.86,1036.41c0,0,63.65,2.91,64.85-36.76c1.2-39.67,10.22-66.01-30.36-69.54
			c-40.59-3.53-48.95,11.36-52.57,24.51C3668.16,967.75,3673.33,1034.63,3689.86,1036.41z"/>
		<path class="st4" d="M3754.71,999.65c0,0-4.76-52.93-61.46-51.03c-56.7,1.9-32.17-51.73,16.55-59.64c0,0-5.08,18.9,25.57,21.88
			C3799.7,917.13,3760.43,991.25,3754.71,999.65z"/>
		<path class="st9" d="M3724.37,1098.05l-29.23-3.1c0,0-3.66,0.8-2.96,5.41s10.34,17.07,13.97,17.69
			C3709.79,1118.67,3732.29,1106.52,3724.37,1098.05z"/>
		<path class="st3" d="M3834.43,1483.66c0,0-3.52,95.27-161.21,92.94c-189.03-2.78-189,4.29-189,4.29s14.41,91.49-119.69,215.66
			h-75.5l144.96-353.35l246.66-9.3c0,0,144.81-11.06,158.38,12.73C3841.97,1451.8,3834.43,1483.66,3834.43,1483.66z"/>
		<path class="st21" d="M3640.6,1435.41l-162.32-75.96c-21.8-8.02-45.81-7.57-67.29,1.26l-23.26,9.56
			c-10.49,4.31-16.11,15.78-13.08,26.71l88.77,352.51l71.18-21.94c0,0,10.06-128.66-8.03-189.13
			c-14.11-47.16-32.78-92.63-32.78-92.63L3640.6,1435.41z"/>
		<g>
			<path class="st12" d="M3691.38,1065.26c0,0,4.87,21.72,17.69,32.22l-19.78,25.73c0,0-23.97-28.37-23.26-48.67
				C3666.03,1074.54,3685.04,1066.01,3691.38,1065.26z"/>
			<path class="st5" d="M3691.38,1065.26c0,0,3.71,20.44,16.53,30.95l-19.01,23.4c0,0-20.86-24.25-22.88-45.07
				C3666.03,1074.54,3685.04,1066.01,3691.38,1065.26z"/>
			<path class="st12" d="M3757.96,1065.26c0,0-30.26,28.67-50.05,30.95l13.54,33.81c0,0,59.4-35.59,59.57-56.51
				C3781.03,1073.5,3764.35,1065.44,3757.96,1065.26z"/>
			<path class="st5" d="M3755.8,1064.11c0,0-28.1,29.82-47.88,32.1l10.97,31.16c0,0,60.07-33.84,60.24-54.76
				C3779.13,1072.61,3762.19,1064.3,3755.8,1064.11z"/>
		</g>
		<path class="st12" d="M3541.81,1371.15c35.5-1.3,71.09-4.9,79.45-13.77c9.55-10.12,0.36-121.21,4.68-191.64
			c-34.01,64.63-8.81,116.18-15.31,149.93C3604.17,1349.14,3572,1364.32,3541.81,1371.15z"/>
		<g>
			<g>
				<path class="st21" d="M3503.54,1533.77c3.39-0.47,7.09-2.11,10.66-3.7c3.32-1.48,6.76-3,9.68-3.43
					c37.5-5.47,71.5-12.17,101.49-18.07c7.87-1.55,15.57-3.07,23.12-4.52c68.25-13.15,106.98-20.35,107.37-20.4l0,0
					c-0.39,0.05-39.4,4.93-107.75,18.1c-7.56,1.46-15.26,2.97-23.13,4.52c-29.96,5.9-63.93,12.59-101.37,18.05
					c-3.26,0.48-6.86,2.08-10.34,3.62c-3.41,1.52-6.94,3.08-9.98,3.5C3493.43,1532.81,3493.66,1535.13,3503.54,1533.77z"/>
			</g>
		</g>
		<g>
			<g>
				<path class="st21" d="M3353.05,1768.69l0.65,0.18c23.11-41.25,48.01-91.06,71.11-143.96c3.53-8.08,7.11-16.43,10.64-24.78
					c3.89-9.22,7.77-18.58,11.53-27.82c1.01-2.47,1.49-5.48,1.85-8.54v-0.01c-0.68-0.99-1.34-2.01-1.99-3.02
					c-0.01,0.08-0.01,0.16-0.02,0.23c-0.4,3.71-0.8,7.54-1.96,10.39c-3.75,9.23-7.63,18.58-11.52,27.78
					c-3.53,8.35-7.11,16.68-10.63,24.76C3399.63,1676.73,3376.13,1727.5,3353.05,1768.69z"/>
			</g>
		</g>
		<path class="st14" d="M3710.69,1114.63c0,0,5.54,52.29,6.52,69.78c2.77,49.21,3.79,197.12,3.79,197.12s1.46,12.91-7.16,23.21
			c-8.62,10.3-17.62,17.35-17.62,17.35s-12.65-11.07-17.66-31.85c-3.34-13.83,4.67-129.97,12.75-207.33
			c4.06-38.88,10.77-69.33,10.77-69.33S3708.69,1112.43,3710.69,1114.63z"/>
		<polygon class="st4" points="3587.77,1389.35 3663.88,1377.1 3716.13,1434.35 3640.6,1435.41 		"/>
		<path class="st11" d="M3741.9,1408.51l-23.84,0.94c-2.14,1.15-4.75,0.92-6.65-0.58c-6.88-5.44-25.29-16.47-48.51-2.29
			c0,0-11.59,8.3-2.38,13.58s6.5,2.07,19.31,9.76c12.3,7.38,27.08,9.31,36.29,4.44c0.9-0.48,1.88-0.78,2.88-0.96l5.79-1.04
			L3741.9,1408.51z"/>
		<path class="st5" d="M3781.79,1073.64c0,0,72.31,5.26,85.03,24c12.72,18.74,29.94,237.68,20.39,263.99
			c-9.55,26.31-138.5,71.98-166.12,72.04l-7.25-28.93c0,0,106.88-71.4,117.5-78.87C3831.33,1325.87,3778.39,1095.14,3781.79,1073.64
			z"/>
		<polygon class="st5" points="3554.08,1375.87 3555.71,1373.14 3587.77,1386.53 3587.77,1389.35 		"/>
		<polygon class="st12" points="3656.97,1378.21 3655.6,1374.41 3587.77,1386.53 3587.77,1389.35 		"/>
	</g>
	<g>
		<path class="st11" d="M2230.84,1381.31L2230.84,1381.31L2230.84,1381.31c0.29,0.16,0.56,0.34,0.83,0.54
			c4.04,2.23,18.26,6.68,18.26,6.68s-1.12,15.04-1.43,15.28l-41.95-1.83l1.83-6.76c0.08-0.43,0.19-0.85,0.34-1.27l0,0l0,0
			c0.46-1.24,1.27-2.37,2.4-3.21l12.01-8.94C2225.43,1380.08,2228.46,1379.98,2230.84,1381.31z"/>
		<polygon class="st11" points="2271.21,1703.74 2264.95,1753.08 2239.31,1753.86 2222.74,1682.44 		"/>
		<path class="st4" d="M2267.41,1733.29l3.8,27.41l-72.19,33.24C2199.03,1793.94,2202.55,1752.98,2267.41,1733.29z"/>
		<polygon class="st11" points="2113.58,1776.41 2078.76,1811.91 2057.86,1797.03 2087.86,1730.13 		"/>
		<path class="st4" d="M2093.68,1797.56l-8.01,26.49h-79.47C2006.2,1824.05,2026.53,1788.32,2093.68,1797.56z"/>
		<path class="st4" d="M2372.95,1200.23c18.86-18.7,16.43-164.06,16.65-172.94c0.63-25.67,10.33-36.4,10.33-36.4
			c4.98-13.59,86.03-20.51,106.36,31.36c13.04,33.29,46.41,98,46.41,98c136.35,189.19,82.17,282.54,82.17,282.54l-5.83-0.64
			c2.01-6.19,3.59-14.95,1.54-18.66l-5.55,18.53l-100.72-12.96c-0.76-19.36-8.54-49.54-8.54-49.54l-0.47,51.23l-13.52,0.71
			c5.35-108.03-17.6-161.07-24.4-174.22c5.83,60.06-23.24,158-23.24,158l-4.16-0.94l9.44-48.96l-12.07,48.37l-11.71-2.66
			c1.87-6.52,3.57-12.87,5.14-19.08c-3.22,11.96-5.14,19.08-5.14,19.08c-25.09-27.3-71.06-24.89-71.06-24.89
			C2339.59,1311.05,2372.95,1200.23,2372.95,1200.23z"/>
		<path class="st10" d="M2430.79,1088.8c0,0,7.81,45.4-20.45,66.83l20.34,30.48l40.85-2l15.23-39.41c0,0-6.19-28.26-4.91-71.44
			L2430.79,1088.8z"/>
		<path class="st11" d="M2414.16,1109.82c0,0,61.34,11.2,67.72-27.11s18.6-62.66-20.29-71.43c-38.89-8.77-48.96,4.58-54.2,16.84
			C2402.15,1040.4,2398.37,1105.92,2414.16,1109.82z"/>
		<path class="st4" d="M2403.74,1007.04c0,0,76.4,58.88,69.65,102.36c-6.34,40.85,5.68,44.49,14.62,48.39
			c23.06,10.06,53.3-8.33,65.28-7.73c8.53,0.42-13.38-9.84-27.31-28.45c-37.06-49.5-33.45-116.39-40.85-121.2
			C2434.73,967.6,2403.74,1007.04,2403.74,1007.04z"/>
		<path class="st5" d="M2246.81,1405.08c0,0,44.72-2.32,71.92-9.96c52.35-14.72,60.05-21.52,67.75-72.45
			c8.03-53.12,6.29-106.36,4-137.69c-0.26-3.7-0.53-7.08-0.8-10.13c-1-11.37-1.9-17.99-1.9-17.99s-30.54,8.6-36.24,44.4
			c-6.74,42.4-11.35,122.1-15.94,136.69c-2.62,8.31-85.67,50.56-85.67,50.56l-2.4,12.76L2246.81,1405.08z"/>
		<path class="st12" d="M2246.81,1405.08c0,0,44.72-2.32,71.92-9.96c52.35-14.72,60.05-21.52,67.75-72.45
			c8.03-53.12,6.29-106.36,4-137.69c-8.13,3.53-16.13,15.23-19.99,44.71c-9.48,72.25,7.11,117.26-22.5,137.98
			c-24.69,17.28-78.21,29.44-100.46,33.6L2246.81,1405.08z"/>
		<path class="st5" d="M2534.51,1372.3l-8.43-21.27l-0.96-92.32l-1.06-102.84l-50.53-11.94c-4.59,10.77-11.28,25.23-27.25,25.36
			c-41.21,0.3-25.1-25.31-24.64-26.03l-33.87,13.6c0,0-9.06,23.45-11.26,40.4c-0.56,4.38-1.66,8.71-3.57,12.7
			c-0.39,0.87-0.86,1.75-1.35,2.58c-11.39,19.45-3.38,67.33,8.36,105.54c23.78,77.44-5.99,114.01-5.99,114.01
			s45.88,25.51,58.99,22.93c3.42-0.68,107.39-17.66,109.98-18.35c10.84-2.9,14.84-5.68,14.84-5.68L2534.51,1372.3z"/>
		<path class="st12" d="M2557.78,1431c0,0-4,2.78-14.84,5.68c-7.84-0.83-14.67-2.23-19.18-4.45c-19.24-9.47-31.28-38.69-36.98-60
			c-5.02-18.7,25.05-94.86,38.35-113.5l0.96,92.32l8.43,21.27C2543.51,1402.07,2557.78,1431,2557.78,1431z"/>
		<path class="st4" d="M2557.79,1431c3.65,7.64,51.81,94.29-28.13,117.38c-79.94,23.09-252.84,16.85-252.84,16.85
			s-18.34,72.47-40.96,104.32c-36.32,51.15-101.07,108.52-101.07,108.52h-74.13c0,0,128.23-277.77,154.29-296.72
			c19.06-13.86,114.94-38.39,167.94-46.61c12.91-2,91.05-4.37,111.97-5.2C2527.63,1428.26,2555.76,1426.76,2557.79,1431z"/>
		<path class="st3" d="M2382.88,1434.74c0,0-163.17-49.85-194.32-31.95c-55.36,31.81,39.39,314.74,39.39,314.74l54.6-8.75
			c0,0,10.22-76.52,2.06-127.91c-4.74-29.84-21.96-106.85-21.96-106.85s41.69-16.92,56.07-21.09
			C2336.79,1447.69,2382.88,1434.74,2382.88,1434.74z"/>
		<g>
			<g>
				<path class="st3" d="M2243.89,1536c3.61-0.5,7.53-2.24,11.33-3.93c3.53-1.57,7.18-3.19,10.29-3.64
					c39.86-5.81,75.99-12.93,107.87-19.2c8.36-1.65,16.54-3.26,24.58-4.8c72.54-13.97,113.7-21.63,114.11-21.68l0,0
					c-0.41,0.05-41.87,5.24-114.51,19.23c-8.03,1.55-16.22,3.16-24.58,4.81c-31.85,6.27-67.94,13.38-107.74,19.18
					c-3.47,0.5-7.3,2.21-10.99,3.85c-3.63,1.61-7.37,3.28-10.6,3.72C2233.14,1534.99,2233.39,1537.45,2243.89,1536z"/>
			</g>
		</g>
		<g>
			<g>
				<path class="st3" d="M2121.13,1758.83l0.69,0.19c24.56-43.85,51.02-96.78,75.58-153c3.75-8.59,7.56-17.46,11.31-26.34
					c4.13-9.79,8.25-19.74,12.26-29.56c1.08-2.63,1.59-5.83,1.97-9.07v-0.01c-0.72-1.05-1.42-2.13-2.12-3.21
					c-0.01,0.08-0.01,0.17-0.02,0.25c-0.43,3.94-0.85,8.02-2.08,11.04c-3.99,9.81-8.11,19.74-12.25,29.53
					c-3.75,8.87-7.56,17.73-11.3,26.32C2170.64,1661.09,2145.66,1715.05,2121.13,1758.83z"/>
			</g>
		</g>
		<path class="st11" d="M2488.12,1398.24l-16.4,9.97c-1.06,1.64-2.98,2.5-4.9,2.19c-6.96-1.14-24.22-1.7-35.01,17.35
			c0,0-4.91,10.37,3.63,10.48s5.38-1.08,17.4-0.68c11.54,0.38,22.69-4.03,27.26-11.06c0.45-0.69,1.02-1.28,1.65-1.8l3.66-3
			L2488.12,1398.24z"/>
		<path class="st5" d="M2473.53,1143.94c0,0,55.01,4.94,61.35,16.87c6.34,11.93,43.85,157.1,40.6,177.54s-95.4,88.14-95.4,88.14
			l-10.85-16.32c0,0,59.31-70.41,62.83-78.87l-37.35-116.28L2473.53,1143.94z"/>
	</g>
	<g>
		<path class="st21" d="M3153.92,999.75c0,0-2.49-43.52,53.74-40.96c56.23,2.56,62.44,53.76,58.05,74.88
			c-4.38,21.12-25.5,38.4-40.86,37.44c-15.36-0.96-30.24-6.08-30.24-6.08L3153.92,999.75z"/>
		<path class="st10" d="M3135.99,1089.29c0,0,7.89,45.84-20.65,67.48l20.54,30.77l41.25-2.02l15.38-39.79c0,0-6.25-28.53-4.96-72.13
			L3135.99,1089.29z"/>
		<path class="st11" d="M3119.19,1110.52c0,0,61.93,11.31,68.38-27.37s18.78-63.26-20.49-72.12c-39.27-8.85-49.43,4.62-54.72,17.01
			C3107.07,1040.42,3103.25,1106.58,3119.19,1110.52z"/>
		<polygon class="st6" points="2784.69,1783.55 2749.53,1819.39 2728.43,1804.37 2758.72,1736.82 		"/>
		<path class="st10" d="M3201.19,1434.8c3.69,7.72,52.31,95.2-28.41,118.52c-80.71,23.32-282.98,3.57-282.98,3.57
			s-4.36,68.64-27.2,100.8c-36.67,51.65-130,147.21-130,147.21l-17.05-0.54c0,0,113.17-299.59,139.48-318.73
			c19.24-13.99,116.05-38.76,169.57-47.06c13.03-2.02,91.93-4.42,113.05-5.25C3170.73,1432.03,3199.14,1430.52,3201.19,1434.8z"/>
		<path class="st3" d="M2744.28,1797.31l-8.09,26.75h-80.24C2655.95,1824.05,2676.48,1787.98,2744.28,1797.31z"/>
		<path class="st11" d="M3233.19,1434.8c3.69,7.72,53.33,91.09-27.39,114.41s-270.4,17.28-270.4,17.28s-17.96,59.04-40.8,91.2
			c-36.67,51.65-130,147.21-130,147.21l-36.17-0.54c0,0,132.29-299.59,158.6-318.73c19.24-13.99,116.05-38.76,169.57-47.06
			c13.04-2.02,91.93-4.42,113.05-5.25C3202.74,1432.03,3231.14,1430.52,3233.19,1434.8z"/>
		<path class="st4" d="M3129.72,1138.97l-5.68,41.58c0,0-10.73,32.81-21.69,66.92c-1.37,4.26-2.31,8.94-2.89,13.84
			c-1.89,15.56-0.3,33.57,1.97,49.11c-1.08,22.33-1.82,40.71-1.62,45.22c-14.97,10.92-45.68,25.67-45.68,25.67l-6.47-7.17
			l-10.85-12.01c0,0,30.64-43.78,33.46-44.69c0,0,9.17-155.11,18.27-166.63C3092.29,1146.02,3129.72,1138.97,3129.72,1138.97z"/>
		<path class="st22" d="M3101.43,1310.42c-1.08,22.33-1.82,40.71-1.62,45.22c-14.97,10.92-45.68,25.67-45.68,25.67l-6.47-7.17
			c10.87-8.63,23.99-18.92,28.37-21.73c7.96-5.09,2.2-22.25,2.2-22.25c-2.23-38.87,13.28-105.81,13.28-105.81l7.95,36.98l3.59,16.76
			C3102.47,1289.05,3101.92,1300.14,3101.43,1310.42z"/>
		<path class="st4" d="M3231.17,1558.95c-75.31,0.27-252.18,18.99-278.57,14.91c-0.03,0-0.06-0.01-0.08-0.01
			c0,0-30.88-90-60.89-91.02c-28.39-0.96-32.2-0.41-32.52-0.36c2.11-0.83,135.85-53.74,223.82-55.26
			c0.07-0.12,12.32-25.2,15.01-43.83v-0.01c0.88-6.01,0.22-11.13-1.09-14.97c-15.67-46.01-17.84-76.31-23.82-92.33
			c-11.89-31.89,15.5-125.28,15.5-125.28c40.8-11.27,75.67-15.86,103.97-9.21c16.97,3.98,38.2,15.87,38.2,15.87
			c-3.14,18.47-5.4,38.79-7.1,58.04c-0.95,10.71-1.72,21.08-2.36,30.63c-0.16,2.31-0.3,4.62-0.45,6.93
			c-2.12,33.86-2.64,61.94-3.74,75.33c-2.4,29.35,7.59,68.11,15.53,93.37c0.68,2.15,1.34,4.2,1.98,6.14
			c3.97,12.08,7.03,19.83,7.03,19.83l-0.24-0.03c2.72,6.83,5.53,14.66,8.08,23.18c0.01,0.03,0.02,0.07,0.03,0.11
			c2.72,9.05,5.12,18.87,6.77,29.08c0.11,0.66,0.21,1.3,0.31,1.93C3259.71,1522.78,3253.72,1558.87,3231.17,1558.95z"/>
		<path class="st7" d="M3183.89,1000.71c0,0,14.94-5.44,24.43,3.84c9.49,9.28-0.66,20.8-0.66,20.8L3183.89,1000.71z"/>
		<path class="st3" d="M3187.57,1083.15c0,0-24.64-5.32-23.68-30.28c0.96-24.96-24.62-34.03-48.55-30.7c0,0,0.07-30.74,62.47-24.5
			C3240.21,1003.91,3187.57,1083.15,3187.57,1083.15z"/>
		<path class="st10" d="M3191.68,1141.38c0,0-22.27,31.73-53.95,30.77c0,0-13.86-24.11-8.01-33.18
			C3135.57,1129.91,3191.68,1141.38,3191.68,1141.38z"/>
		<path class="st22" d="M3082.93,1427.22l0.47,0.06c17.48-0.52,47.45-0.88,63.17,1.92c-1.44-0.57-47.54-18.8-48.63-45.81
			C3095.24,1402.06,3082.93,1427.22,3082.93,1427.22z"/>
		<path class="st11" d="M3155.09,1375.23l-62.42,45.58c0,0-25.29-7.55-39.2,17.84c0,0-4.93,10.82,3.92,10.8
			c8.85-0.01,5.56-1.2,18.01-0.97s24.4-4.92,28.61-12.79l73.37-40.87L3155.09,1375.23z"/>
		<path class="st4" d="M2772.59,1797.31l-8.09,26.75h-80.24C2684.27,1824.05,2704.8,1787.98,2772.59,1797.31z"/>
		<g>
			<polygon class="st12" points="3043.8,1317.43 2841.46,1317.43 2883.36,1464.86 3083.99,1464.86 			"/>
			<polygon class="st5" points="3040.69,1317.43 2838.36,1317.43 2880.25,1464.86 3080.88,1464.86 			"/>
			
				<rect x="2880.25" y="1464.86" transform="matrix(-1 -1.224647e-16 1.224647e-16 -1 6021.3848 2934.8066)" class="st12" width="260.88" height="5.08"/>
			<path class="st12" d="M2962.73,1394.7c0-6.33-5.13-12.74-11.46-14.31c-6.33-1.58-11.46,2.27-11.46,8.6
				c0,6.33,5.13,12.74,11.46,14.31S2962.73,1401.03,2962.73,1394.7z"/>
		</g>
		<path class="st22" d="M3231.17,1558.95c-75.31,0.27-252.18,18.99-278.57,14.91c19-56.74,215.64-57.07,239.9-70.5
			c16.19-8.96,8.1-45.67-0.05-74.84c-0.04-0.07-0.08-0.14-0.12-0.23c0.04,0,0.08-0.01,0.12-0.01
			c0.16-0.02-21.45-120.95-21.45-161.61c0-40.67,44-52.67,44-52.67l8.6,1.49c-0.95,10.71-1.72,21.08-2.36,30.63
			c-0.16,2.31-0.3,4.62-0.45,6.93c-2.12,33.86-2.64,61.94-3.74,75.33c-2.4,29.35,7.59,68.11,15.53,93.37
			c0.68,2.15,1.34,4.2,1.98,6.14c3.97,12.08,7.03,19.83,7.03,19.83l-0.24-0.03c2.72,6.83,5.53,14.66,8.08,23.18
			c0.01,0.03,0.02,0.07,0.03,0.11c3.03,11.31,5.45,21.34,6.77,29.08c0.11,0.66,0.21,1.3,0.31,1.93
			C3259.71,1522.78,3253.72,1558.87,3231.17,1558.95z"/>
		<path class="st4" d="M3191.68,1141.38c0,0,47.25,10.7,54.94,34.37c3.57,10.99-10.27,186.55-27.55,196.79s-65.14,38.21-65.14,38.21
			l-17.65-30.91c0,0,39.68-35.2,44.16-42.34C3184.91,1330.36,3191.68,1141.38,3191.68,1141.38z"/>
	</g>
	<g>
		<path class="st4" d="M3919.97,1643.63l-68.64-0.08l0.02-18.79c0.01-9.23-7.49-16.75-16.72-16.76l-89.42-0.11
			c-9.23-0.01-16.75,7.49-16.76,16.72l-0.02,18.79l-68.64-0.08c-10.52-0.01-19.06,8.51-19.08,19.03l-0.17,142.51
			c-0.01,10.52,8.51,19.06,19.03,19.08l260.17,0.32c10.52,0.01,19.06-8.51,19.08-19.03l0.17-142.51
			C3939.01,1652.18,3930.49,1643.64,3919.97,1643.63z M3745.05,1624.62c0-0.08,0.07-0.15,0.15-0.15l89.42,0.11
			c0.08,0,0.15,0.07,0.15,0.15l-0.02,18.79l-89.72-0.11L3745.05,1624.62z"/>
		
			<rect x="3640.67" y="1710.43" transform="matrix(1 1.221362e-03 -1.221362e-03 1 2.0953 -4.6274)" class="st21" width="298.27" height="5.58"/>
	</g>
</g>
<g>
	<g>
		<path class="st0" d="M355.08,1509.42h38.66c11.68,0,20.99,2.49,27.94,7.47c6.95,4.98,10.42,13.06,10.42,24.24
			c0,12.48-5.19,21.39-15.55,26.73c17.72,3.12,26.58,13.59,26.58,31.41c0,10.47-3.62,18.88-10.87,25.22
			c-7.25,6.34-17.21,9.51-29.9,9.51h-47.26V1509.42z M383.46,1558.2h2.26c6.34,0,11.07-1.11,14.19-3.32
			c3.12-2.21,4.68-5.84,4.68-10.87c0-8.46-6.29-12.68-18.88-12.68h-2.26V1558.2z M383.46,1612.1h8.91
			c13.89,0,20.84-4.63,20.84-13.89c0-5.54-1.74-9.51-5.21-11.93c-3.47-2.42-8.68-3.62-15.63-3.62h-8.91V1612.1z"/>
		<path class="st0" d="M515.89,1509.42L566.17,1634h-30.5l-9.21-24.92h-47.41l-9.21,24.92h-30.5l50.28-124.58H515.89z
			 M516.8,1584.17l-13.89-36.24h-0.3l-13.89,36.24H516.8z"/>
		<path class="st0" d="M599.39,1556.69V1634H571v-124.58h28.39l49.53,77.31h0.3v-77.31h28.39V1634h-28.39l-49.53-77.31H599.39z"/>
		<path class="st0" d="M809.13,1634h-39.11l-45.9-52.85V1634h-28.39v-124.58h28.39v50.89l42.73-50.89h34.43l-50.13,59.04
			L809.13,1634z"/>
	</g>
</g>
<rect x="221.47" y="1557.07" class="st5" width="96.72" height="30.59"/>
<rect x="221.47" y="1603.14" class="st5" width="96.72" height="30.59"/>
<rect x="221.47" y="1507.57" class="st5" width="96.72" height="30.59"/>
</svg>
