<?xml version="1.0" encoding="utf-8"?>
<!-- Generator: Adobe Illustrator 24.0.0, SVG Export Plug-In . SVG Version: 6.00 Build 0)  -->
<svg version="1.1" xmlns="http://www.w3.org/2000/svg" xmlns:xlink="http://www.w3.org/1999/xlink" x="0px" y="0px"
	 viewBox="0 0 627.39 397.35" style="enable-background:new 0 0 627.39 397.35;" xml:space="preserve">
<style type="text/css">
	.st0{fill:#F9FBFD;stroke:#222221;stroke-width:0.75;stroke-linecap:round;stroke-linejoin:round;stroke-miterlimit:10;}
	.st1{fill:none;stroke:#222221;stroke-width:0.75;stroke-linecap:round;stroke-linejoin:round;stroke-miterlimit:10;}
	.st2{fill:#222221;}
	
		.st3{clip-path:url(#SVGID_2_);fill:none;stroke:#222221;stroke-width:0.75;stroke-linecap:round;stroke-linejoin:round;stroke-miterlimit:10;}
	.st4{clip-path:url(#SVGID_2_);}
	.st5{fill:#FFFFFF;stroke:#222221;stroke-width:0.75;stroke-linecap:round;stroke-linejoin:round;stroke-miterlimit:10;}
	.st6{fill:#9AD691;stroke:#222221;stroke-width:0.75;stroke-linecap:round;stroke-linejoin:round;stroke-miterlimit:10;}
</style>
<g id="BACKGROUND">
</g>
<g id="OBJECTS">
	<rect x="-28.37" y="311.5" class="st0" width="656.06" height="93.5"/>
	<g>
		<path class="st1" d="M595.02,91.12c0-5.06-4.11-9.17-9.17-9.17l0,0c-5.06,0-9.17,4.11-9.17,9.17v2.2c0-3.22-2.61-5.83-5.83-5.83
			l0,0c-3.22,0-5.83,2.61-5.83,5.83v0.49v2.33h29.95L595.02,91.12z"/>
		<path class="st1" d="M398.29,65.33c0-5.06-4.11-9.17-9.17-9.17l0,0c-5.06,0-9.17,4.11-9.17,9.17v2.2c0-3.22-2.61-5.83-5.83-5.83
			l0,0c-3.22,0-5.83,2.61-5.83,5.83v0.49v2.33h29.95L398.29,65.33z"/>
		<path class="st1" d="M196.04,178.06c0-5.06-4.11-9.17-9.17-9.17l0,0c-5.06,0-9.17,4.11-9.17,9.17v2.2c0-3.22-2.61-5.83-5.83-5.83
			l0,0c-3.22,0-5.83,2.61-5.83,5.83v0.49v2.33H196L196.04,178.06z"/>
		<path class="st1" d="M219.16,89.98c0-5.06-4.11-9.17-9.17-9.17l0,0c-5.06,0-9.17,4.11-9.17,9.17v2.2c0-3.22-2.61-5.83-5.83-5.83
			l0,0c-3.22,0-5.83,2.61-5.83,5.83v0.49V95h29.95L219.16,89.98z"/>
		<path class="st1" d="M445.72,171.77c0-5.06-4.11-9.17-9.17-9.17l0,0c-5.06,0-9.17,4.11-9.17,9.17v2.2c0-3.22-2.61-5.83-5.83-5.83
			l0,0c-3.22,0-5.83,2.61-5.83,5.83v0.49v2.33h29.95L445.72,171.77z"/>
		<path class="st1" d="M68.11,59.77c0-5.06-4.11-9.17-9.17-9.17l0,0c-5.06,0-9.17,4.11-9.17,9.17v2.2c0-3.22-2.61-5.83-5.83-5.83
			l0,0c-3.22,0-5.83,2.61-5.83,5.83v0.49v2.33h29.95L68.11,59.77z"/>
		<line class="st1" x1="86.67" y1="345.02" x2="116.45" y2="345.02"/>
		<line class="st1" x1="168.97" y1="358.3" x2="198.75" y2="358.3"/>
		<line class="st1" x1="257.45" y1="329" x2="287.23" y2="329"/>
		<line class="st1" x1="336.95" y1="361.05" x2="366.73" y2="361.05"/>
		<line class="st1" x1="488.86" y1="347.23" x2="518.64" y2="347.23"/>
		<line class="st1" x1="381.35" y1="333.05" x2="411.13" y2="333.05"/>
		<g>
			<g>
				<path class="st2" d="M123.45,83.2c1.61,0,1.61-2.5,0-2.5C121.84,80.7,121.84,83.2,123.45,83.2L123.45,83.2z"/>
			</g>
		</g>
		<g>
			<g>
				<path class="st2" d="M36.91,117.68c1.61,0,1.61-2.5,0-2.5C35.3,115.18,35.29,117.68,36.91,117.68L36.91,117.68z"/>
			</g>
		</g>
		<g>
			<g>
				<path class="st2" d="M216.31,137.39c1.61,0,1.61-2.5,0-2.5C214.7,134.89,214.7,137.39,216.31,137.39L216.31,137.39z"/>
			</g>
		</g>
		<g>
			<g>
				<path class="st2" d="M320.51,120.63c1.61,0,1.61-2.5,0-2.5C318.9,118.13,318.9,120.63,320.51,120.63L320.51,120.63z"/>
			</g>
		</g>
		<g>
			<g>
				<path class="st2" d="M303.56,67.58c1.61,0,1.61-2.5,0-2.5C301.95,65.08,301.95,67.58,303.56,67.58L303.56,67.58z"/>
			</g>
		</g>
		<g>
			<g>
				<path class="st2" d="M412.24,124.31c1.61,0,1.61-2.5,0-2.5C410.63,121.81,410.63,124.31,412.24,124.31L412.24,124.31z"/>
			</g>
		</g>
		<g>
			<g>
				<path class="st2" d="M134.83,134.37c1.61,0,1.61-2.5,0-2.5C133.22,131.87,133.22,134.37,134.83,134.37L134.83,134.37z"/>
			</g>
		</g>
		<g>
			<g>
				<path class="st2" d="M473.02,69.79c1.61,0,1.61-2.5,0-2.5C471.42,67.29,471.41,69.79,473.02,69.79L473.02,69.79z"/>
			</g>
		</g>
		<g>
			<g>
				<path class="st2" d="M566.23,130.21c1.61,0,1.61-2.5,0-2.5C564.62,127.71,564.62,130.21,566.23,130.21L566.23,130.21z"/>
			</g>
		</g>
		<g>
			<g>
				<path class="st2" d="M627.39,131.68c1.61,0,1.61-2.5,0-2.5C625.78,129.18,625.77,131.68,627.39,131.68L627.39,131.68z"/>
			</g>
		</g>
		<g>
			<g>
				<path class="st2" d="M507.65,327.42c1.61,0,1.61-2.5,0-2.5C506.05,324.92,506.04,327.42,507.65,327.42L507.65,327.42z"/>
			</g>
		</g>
		<g>
			<g>
				<path class="st2" d="M215.51,332.83c1.61,0,1.61-2.5,0-2.5C213.9,330.33,213.9,332.83,215.51,332.83L215.51,332.83z"/>
			</g>
		</g>
		<g>
			<g>
				<path class="st2" d="M72.57,334.3c1.61,0,1.61-2.5,0-2.5C70.96,331.8,70.96,334.3,72.57,334.3L72.57,334.3z"/>
			</g>
		</g>
		<g>
			<g>
				<path class="st2" d="M117.89,378.25c1.61,0,1.61-2.5,0-2.5C116.28,375.75,116.27,378.25,117.89,378.25L117.89,378.25z"/>
			</g>
		</g>
		<g>
			<g>
				<path class="st2" d="M-9.95,356.41c1.61,0,1.61-2.5,0-2.5C-11.56,353.91-11.56,356.41-9.95,356.41L-9.95,356.41z"/>
			</g>
		</g>
		<g>
			<g>
				<path class="st2" d="M435.45,373.1c1.61,0,1.61-2.5,0-2.5C433.84,370.6,433.84,373.1,435.45,373.1L435.45,373.1z"/>
			</g>
		</g>
		<g>
			<g>
				<path class="st2" d="M566.6,367.2c1.61,0,1.61-2.5,0-2.5C564.99,364.7,564.99,367.2,566.6,367.2L566.6,367.2z"/>
			</g>
		</g>
		<g>
			<g>
				<path class="st2" d="M645.44,337.73c1.61,0,1.61-2.5,0-2.5C643.83,335.23,643.83,337.73,645.44,337.73L645.44,337.73z"/>
			</g>
		</g>
		<g>
			<g>
				<path class="st2" d="M319.03,386.36c1.61,0,1.61-2.5,0-2.5C317.42,383.86,317.42,386.36,319.03,386.36L319.03,386.36z"/>
			</g>
		</g>
		<g>
			<g>
				<path class="st2" d="M262.3,356.15c1.61,0,1.61-2.5,0-2.5C260.69,353.65,260.69,356.15,262.3,356.15L262.3,356.15z"/>
			</g>
		</g>
		<g>
			<g>
				<path class="st2" d="M-12.9,121.36c1.61,0,1.61-2.5,0-2.5C-14.51,118.86-14.51,121.36-12.9,121.36L-12.9,121.36z"/>
			</g>
		</g>
		
			<ellipse transform="matrix(0.161 -0.987 0.987 0.161 121.5527 203.442)" class="st1" cx="180.44" cy="30.23" rx="16.84" ry="16.84"/>
		<g>
			<line class="st1" x1="29.35" y1="311.1" x2="32.97" y2="311.1"/>
			<line class="st1" x1="29.35" y1="311.1" x2="32.97" y2="311.1"/>
			<line class="st1" x1="29.35" y1="311.1" x2="32.97" y2="311.1"/>
			<line class="st1" x1="29.35" y1="311.1" x2="32.97" y2="311.1"/>
			<line class="st1" x1="29.35" y1="311.1" x2="32.97" y2="311.1"/>
			<line class="st1" x1="29.35" y1="311.1" x2="32.97" y2="311.1"/>
			<line class="st1" x1="29.35" y1="311.1" x2="32.97" y2="311.1"/>
			<line class="st1" x1="29.35" y1="311.1" x2="32.97" y2="311.1"/>
			<g>
				<g>
					<g>
						<g>
							<defs>
								<path id="SVGID_1_" d="M530.33,311.1c-18.49-20.1-28.88-40.36-28.88-40.36h3.99v-7.6h-7.39
									c-8.3-13.85-12.11-32.42-12.11-32.42h5.96v-5.91h-6.31c0,0-5.88-37.66-4.32-75.23h4.71v-10.39l-5.7-2.79v-13.43h-3.89v13.43
									l-5.7,2.79v10.39h4.71c1.56,37.57-4.32,75.23-4.32,75.23h-6.31v5.91h5.96c0,0-3.49,18.58-11.79,32.42h-6.74v7.6h3.99
									c0,0-10.56,20.27-29.05,40.36 M448.06,311.1c0,0,4.22-27.23,30.68-28c26.46,0.76,30.68,28,30.68,28 M476.14,238.99h4.71
									c0.91,9.12,7.78,24.15,7.78,24.15h-20.26C468.37,263.14,474.5,248.75,476.14,238.99z"/>
							</defs>
							<clipPath id="SVGID_2_">
								<use xlink:href="#SVGID_1_"  style="overflow:visible;"/>
							</clipPath>
							<line class="st3" x1="458.95" y1="263.14" x2="468.43" y2="263.14"/>
							<line class="st3" x1="488.63" y1="263.14" x2="498.05" y2="263.14"/>
							<line class="st3" x1="476.4" y1="136.4" x2="480.29" y2="136.4"/>
							<line class="st3" x1="475.4" y1="149.57" x2="481.28" y2="149.57"/>
							<line class="st3" x1="471.08" y1="224.81" x2="485.6" y2="224.81"/>
							<line class="st3" x1="470.74" y1="230.72" x2="485.95" y2="230.72"/>
							<g class="st4">
								<line class="st1" x1="473.02" y1="149.78" x2="483.76" y2="160.51"/>
								<line class="st1" x1="483.22" y1="150.02" x2="472.73" y2="160.51"/>
							</g>
							<g class="st4">
								<line class="st1" x1="472.73" y1="125.53" x2="483.76" y2="136.57"/>
								<line class="st1" x1="483.76" y1="125.53" x2="472.73" y2="136.57"/>
							</g>
							<g class="st4">
								<line class="st1" x1="472.73" y1="128.95" x2="480.14" y2="136.37"/>
								<line class="st1" x1="483.76" y1="128.95" x2="476.42" y2="136.29"/>
							</g>
							<g class="st4">
								<line class="st1" x1="472.73" y1="121.26" x2="483.76" y2="132.29"/>
								<line class="st1" x1="483.76" y1="121.26" x2="472.73" y2="132.29"/>
							</g>
							<g class="st4">
								<line class="st1" x1="469.83" y1="230.75" x2="479.14" y2="240.05"/>
								<line class="st1" x1="477.43" y1="230.73" x2="468.11" y2="240.05"/>
							</g>
							<g class="st4">
								<line class="st1" x1="480.05" y1="230.96" x2="489.15" y2="240.05"/>
								<line class="st1" x1="487.28" y1="230.89" x2="478.11" y2="240.05"/>
							</g>
							<g class="st4">
								<line class="st1" x1="463.19" y1="239.03" x2="479.38" y2="255.21"/>
								<line class="st1" x1="479.38" y1="239.03" x2="463.19" y2="255.21"/>
							</g>
							<g class="st4">
								<line class="st1" x1="477.87" y1="239.03" x2="494.06" y2="255.21"/>
								<line class="st1" x1="494.06" y1="239.03" x2="477.87" y2="255.21"/>
							</g>
							<g class="st4">
								<line class="st1" x1="463.71" y1="254.17" x2="479.89" y2="270.35"/>
								<line class="st1" x1="479.89" y1="254.17" x2="463.71" y2="270.35"/>
							</g>
							<g class="st4">
								<line class="st1" x1="478.39" y1="254.17" x2="494.57" y2="270.35"/>
								<line class="st1" x1="494.57" y1="254.17" x2="478.39" y2="270.35"/>
							</g>
							<g class="st4">
								<line class="st1" x1="472.73" y1="156.41" x2="483.76" y2="167.44"/>
								<line class="st1" x1="483.76" y1="156.41" x2="472.73" y2="167.44"/>
							</g>
							<g class="st4">
								<line class="st1" x1="472.73" y1="163.34" x2="483.76" y2="174.37"/>
								<line class="st1" x1="483.76" y1="163.34" x2="472.73" y2="174.37"/>
							</g>
							<g class="st4">
								<line class="st1" x1="472.73" y1="170.26" x2="483.76" y2="181.3"/>
								<line class="st1" x1="483.76" y1="170.26" x2="472.73" y2="181.3"/>
							</g>
							<g class="st4">
								<line class="st1" x1="472.73" y1="177.19" x2="483.76" y2="188.22"/>
								<line class="st1" x1="483.76" y1="177.19" x2="472.73" y2="188.22"/>
							</g>
							<g class="st4">
								<line class="st1" x1="472.73" y1="184.12" x2="483.76" y2="195.15"/>
								<line class="st1" x1="483.76" y1="184.12" x2="472.73" y2="195.15"/>
							</g>
							<g class="st4">
								<line class="st1" x1="472.73" y1="191.05" x2="483.76" y2="202.08"/>
								<line class="st1" x1="483.76" y1="191.05" x2="472.73" y2="202.08"/>
							</g>
							<g class="st4">
								<line class="st1" x1="472.73" y1="197.98" x2="483.76" y2="209.01"/>
								<line class="st1" x1="483.76" y1="197.98" x2="472.73" y2="209.01"/>
							</g>
							<g class="st4">
								<line class="st1" x1="472.09" y1="204.9" x2="484.4" y2="217.21"/>
								<line class="st1" x1="484.4" y1="204.9" x2="472.09" y2="217.21"/>
							</g>
							<g class="st4">
								<line class="st1" x1="472.09" y1="212.63" x2="484.16" y2="224.7"/>
								<line class="st1" x1="484.4" y1="212.63" x2="472.31" y2="224.72"/>
							</g>
						</g>
						<line class="st1" x1="470.69" y1="139.19" x2="485.62" y2="139.19"/>
						<line class="st1" x1="470.69" y1="146.76" x2="485.62" y2="146.76"/>
						<g>
							<line class="st1" x1="468.56" y1="224.81" x2="468.56" y2="230.58"/>
							<line class="st1" x1="471.76" y1="224.81" x2="471.76" y2="230.58"/>
							<line class="st1" x1="474.97" y1="224.81" x2="474.97" y2="230.58"/>
							<line class="st1" x1="478.18" y1="224.81" x2="478.18" y2="230.58"/>
							<line class="st1" x1="481.39" y1="224.81" x2="481.39" y2="230.58"/>
							<line class="st1" x1="484.59" y1="224.81" x2="484.59" y2="230.58"/>
							<line class="st1" x1="487.8" y1="224.81" x2="487.8" y2="230.58"/>
						</g>
					</g>
					<path class="st1" d="M530.33,311.1c-18.49-20.1-28.88-40.36-28.88-40.36h3.99v-7.6h-7.39c-8.3-13.85-12.11-32.42-12.11-32.42
						h5.96v-5.91h-6.31c0,0-5.88-37.66-4.32-75.23h4.71v-10.39l-5.7-2.79v-13.43h-3.89v13.43l-5.7,2.79v10.39h4.71
						c1.56,37.57-4.32,75.23-4.32,75.23h-6.31v5.91h5.96c0,0-3.49,18.58-11.79,32.42h-6.74v7.6h3.99c0,0-10.56,20.27-29.05,40.36
						 M448.06,311.1c0,0,4.22-27.23,30.68-28c26.46,0.76,30.68,28,30.68,28 M476.14,238.99h4.71c0.91,9.12,7.78,24.15,7.78,24.15
						h-20.26C468.37,263.14,474.5,248.75,476.14,238.99z"/>
				</g>
				<g>
					<path class="st1" d="M605.05,311.1v-5.85h-5.51v-11.7h1.97v-1.17h2.36v-1.62h-1.36v-1.62h-7.64v-4.77h-1.64v-2.88h-0.92v-14.4
						h0.65v-1.35h1.02v-3.97h-1.39v-2.3h-11.79v-2.23h-0.65v-4.68h-0.82v-15.97h-0.55v-16.1h-0.67v-15.92h-1.26v-15.92h-0.62
						c1.03-1.34,1.69-3.4,1.69-5.71c0-4.05-2.02-7.33-4.51-7.33c-2.49,0-4.51,3.28-4.51,7.33c0,2.31,0.66,4.37,1.69,5.71h-0.62
						v15.92h-1.26v15.92h-0.67v16.1h-0.55v15.97h-0.82v4.68h-0.65v2.23h-11.81v2.3h-1.13v3.97h1.02v1.35h0.65v14.4h-0.92v2.88h-1.64
						v4.77h-7.49v1.62h-1.5v1.62h2.36v1.17h1.97v11.7h-5.51v5.85 M571.14,281.5v-14.4h0.65v-1.35h3.5v1.35h0.65v14.4H575v2.88h-2.94
						v-2.88H571.14z M585.26,267.11h0.65v-1.35h3.5v1.35h0.65v14.4h-0.92v2.88h-2.94v-2.88h-0.92V267.11z M582.99,267.11v14.4h-0.92
						v2.88h-2.94v-2.88h-0.92v-14.4h0.65v-1.35h3.5v1.35H582.99z M564.08,267.11h0.65v-1.35h3.5v1.35h0.65v14.4h-0.92v2.88H565
						v-2.88h-0.92V267.11z M557.01,281.5v-14.4h0.65v-1.35h3.5v1.35h0.65v14.4h-0.92v2.88h-2.94v-2.88H557.01z"/>
					<line class="st1" x1="569.97" y1="204.58" x2="576.86" y2="204.58"/>
					<line class="st1" x1="568.71" y1="220.5" x2="578.12" y2="220.5"/>
					<line class="st1" x1="568.04" y1="236.61" x2="578.71" y2="236.61"/>
					<line class="st1" x1="567.49" y1="252.58" x2="578.98" y2="252.58"/>
					<line class="st1" x1="566.02" y1="259.48" x2="580.81" y2="259.48"/>
					<line class="st1" x1="566.67" y1="257.26" x2="580.16" y2="257.26"/>
					<line class="st1" x1="570.59" y1="188.65" x2="576.24" y2="188.65"/>
					<line class="st1" x1="552.18" y1="289.15" x2="594.32" y2="289.15"/>
					<line class="st1" x1="554.21" y1="261.79" x2="592.11" y2="261.79"/>
					<line class="st1" x1="553.84" y1="265.66" x2="592.96" y2="265.66"/>
					<line class="st1" x1="553.82" y1="284.38" x2="593.24" y2="284.38"/>
					<line class="st1" x1="547.52" y1="293.56" x2="599.55" y2="293.56"/>
					<line class="st1" x1="544.69" y1="290.77" x2="602.52" y2="290.77"/>
					<line class="st1" x1="547.52" y1="305.26" x2="599.55" y2="305.26"/>
					<g>
						<rect x="552.05" y="296.72" class="st1" width="5.53" height="5.53"/>
						<rect x="561.44" y="296.72" class="st1" width="5.53" height="5.53"/>
						<rect x="570.83" y="296.72" class="st1" width="5.53" height="5.53"/>
						<rect x="580.23" y="296.72" class="st1" width="5.53" height="5.53"/>
						<rect x="589.62" y="296.72" class="st1" width="5.53" height="5.53"/>
					</g>
					<rect x="570.33" y="239.68" class="st1" width="5.89" height="10.04"/>
					<rect x="570.97" y="223.47" class="st1" width="4.79" height="10.13"/>
					<rect x="571.34" y="207.26" class="st1" width="4.05" height="10.5"/>
					<rect x="571.94" y="190.86" class="st1" width="2.83" height="11.22"/>
					<g>
						<line class="st1" x1="544.72" y1="305.35" x2="544.72" y2="310.81"/>
						<line class="st1" x1="546.86" y1="305.35" x2="546.86" y2="310.81"/>
						<line class="st1" x1="549.01" y1="305.35" x2="549.01" y2="310.81"/>
						<line class="st1" x1="551.15" y1="305.35" x2="551.15" y2="310.81"/>
						<line class="st1" x1="553.29" y1="305.35" x2="553.29" y2="310.81"/>
						<line class="st1" x1="555.43" y1="305.35" x2="555.43" y2="310.81"/>
						<line class="st1" x1="557.57" y1="305.35" x2="557.57" y2="310.81"/>
						<line class="st1" x1="559.71" y1="305.35" x2="559.71" y2="310.81"/>
						<line class="st1" x1="561.85" y1="305.35" x2="561.85" y2="310.81"/>
						<line class="st1" x1="564" y1="305.35" x2="564" y2="310.81"/>
						<line class="st1" x1="566.14" y1="305.35" x2="566.14" y2="310.81"/>
						<line class="st1" x1="568.28" y1="305.35" x2="568.28" y2="310.81"/>
						<line class="st1" x1="570.42" y1="305.35" x2="570.42" y2="310.81"/>
						<line class="st1" x1="572.56" y1="305.35" x2="572.56" y2="310.81"/>
						<line class="st1" x1="574.7" y1="305.35" x2="574.7" y2="310.81"/>
						<line class="st1" x1="576.84" y1="305.35" x2="576.84" y2="310.81"/>
						<line class="st1" x1="578.98" y1="305.35" x2="578.98" y2="310.81"/>
						<line class="st1" x1="581.13" y1="305.35" x2="581.13" y2="310.81"/>
						<line class="st1" x1="583.27" y1="305.35" x2="583.27" y2="310.81"/>
						<line class="st1" x1="585.41" y1="305.35" x2="585.41" y2="310.81"/>
						<line class="st1" x1="587.55" y1="305.35" x2="587.55" y2="310.81"/>
						<line class="st1" x1="589.69" y1="305.35" x2="589.69" y2="310.81"/>
						<line class="st1" x1="591.83" y1="305.35" x2="591.83" y2="310.81"/>
						<line class="st1" x1="593.97" y1="305.35" x2="593.97" y2="310.81"/>
						<line class="st1" x1="596.12" y1="305.35" x2="596.12" y2="310.81"/>
						<line class="st1" x1="598.26" y1="305.35" x2="598.26" y2="310.81"/>
						<line class="st1" x1="600.4" y1="305.35" x2="600.4" y2="310.81"/>
						<line class="st1" x1="602.54" y1="305.35" x2="602.54" y2="310.81"/>
					</g>
					<g>
						<line class="st1" x1="554.97" y1="261.83" x2="554.97" y2="265.08"/>
						<line class="st1" x1="556.35" y1="261.83" x2="556.35" y2="265.08"/>
						<line class="st1" x1="557.73" y1="261.83" x2="557.73" y2="265.08"/>
						<line class="st1" x1="559.12" y1="261.83" x2="559.12" y2="265.08"/>
						<line class="st1" x1="560.5" y1="261.83" x2="560.5" y2="265.08"/>
						<line class="st1" x1="561.88" y1="261.83" x2="561.88" y2="265.08"/>
						<line class="st1" x1="563.26" y1="261.83" x2="563.26" y2="265.08"/>
						<line class="st1" x1="564.65" y1="261.83" x2="564.65" y2="265.08"/>
						<line class="st1" x1="566.03" y1="261.83" x2="566.03" y2="265.08"/>
						<line class="st1" x1="567.41" y1="261.83" x2="567.41" y2="265.08"/>
						<line class="st1" x1="568.79" y1="261.83" x2="568.79" y2="265.08"/>
						<line class="st1" x1="570.18" y1="261.83" x2="570.18" y2="265.08"/>
						<line class="st1" x1="571.56" y1="261.83" x2="571.56" y2="265.08"/>
						<line class="st1" x1="572.94" y1="261.83" x2="572.94" y2="265.08"/>
						<line class="st1" x1="574.32" y1="261.83" x2="574.32" y2="265.08"/>
						<line class="st1" x1="575.71" y1="261.83" x2="575.71" y2="265.08"/>
						<line class="st1" x1="577.09" y1="261.83" x2="577.09" y2="265.08"/>
						<line class="st1" x1="578.47" y1="261.83" x2="578.47" y2="265.08"/>
						<line class="st1" x1="579.85" y1="261.83" x2="579.85" y2="265.08"/>
						<line class="st1" x1="581.23" y1="261.83" x2="581.23" y2="265.08"/>
						<line class="st1" x1="582.62" y1="261.83" x2="582.62" y2="265.08"/>
						<line class="st1" x1="584" y1="261.83" x2="584" y2="265.08"/>
						<line class="st1" x1="585.38" y1="261.83" x2="585.38" y2="265.08"/>
						<line class="st1" x1="586.76" y1="261.83" x2="586.76" y2="265.08"/>
						<line class="st1" x1="588.15" y1="261.83" x2="588.15" y2="265.08"/>
						<line class="st1" x1="589.53" y1="261.83" x2="589.53" y2="265.08"/>
						<line class="st1" x1="590.91" y1="261.83" x2="590.91" y2="265.08"/>
						<line class="st1" x1="592.29" y1="261.83" x2="592.29" y2="265.08"/>
					</g>
				</g>
				<g>
					<g>
						<rect x="38.4" y="260.14" class="st1" width="35.18" height="50.96"/>
						<rect x="41.76" y="220.51" class="st1" width="28.46" height="39.64"/>
						<rect x="45.44" y="192.15" class="st1" width="21.1" height="28.36"/>
						<rect x="48.41" y="171" class="st1" width="15.16" height="21.11"/>
						<rect x="51.28" y="157.94" class="st1" width="9.43" height="13.13"/>
						<rect x="52.96" y="149.28" class="st1" width="6.07" height="8.45"/>
						<polyline class="st1" points="56.28,149.28 56.28,139.02 55.7,139.02 55.7,149.28 55.7,311.1 						"/>
						<rect x="22.64" y="271.59" class="st1" width="15.76" height="39.51"/>
						<rect x="73.58" y="271.59" class="st1" width="15.76" height="39.51"/>
						<line class="st1" x1="45.44" y1="196.25" x2="51.21" y2="196.25"/>
						<line class="st1" x1="45.44" y1="199.71" x2="51.21" y2="199.71"/>
						<line class="st1" x1="45.44" y1="203.17" x2="51.21" y2="203.17"/>
						<line class="st1" x1="45.44" y1="206.63" x2="51.21" y2="206.63"/>
						<line class="st1" x1="45.44" y1="210.09" x2="51.21" y2="210.09"/>
						<line class="st1" x1="45.44" y1="213.55" x2="51.21" y2="213.55"/>
						<line class="st1" x1="45.44" y1="217.01" x2="51.21" y2="217.01"/>
						<line class="st1" x1="60.77" y1="196.25" x2="66.54" y2="196.25"/>
						<line class="st1" x1="60.77" y1="199.71" x2="66.54" y2="199.71"/>
						<line class="st1" x1="60.77" y1="203.17" x2="66.54" y2="203.17"/>
						<line class="st1" x1="60.77" y1="206.63" x2="66.54" y2="206.63"/>
						<line class="st1" x1="60.77" y1="210.09" x2="66.54" y2="210.09"/>
						<line class="st1" x1="60.77" y1="213.55" x2="66.54" y2="213.55"/>
						<line class="st1" x1="60.77" y1="217.01" x2="66.54" y2="217.01"/>
						<line class="st1" x1="59.46" y1="175.33" x2="63.24" y2="175.33"/>
						<line class="st1" x1="59.46" y1="178.79" x2="63.24" y2="178.79"/>
						<line class="st1" x1="59.46" y1="182.25" x2="63.24" y2="182.25"/>
						<line class="st1" x1="59.46" y1="185.71" x2="63.24" y2="185.71"/>
						<line class="st1" x1="59.46" y1="189.17" x2="63.24" y2="189.17"/>
						<line class="st1" x1="48.41" y1="175.33" x2="52.19" y2="175.33"/>
						<line class="st1" x1="48.41" y1="178.79" x2="52.19" y2="178.79"/>
						<line class="st1" x1="48.41" y1="182.25" x2="52.19" y2="182.25"/>
						<line class="st1" x1="48.41" y1="185.71" x2="52.19" y2="185.71"/>
						<line class="st1" x1="48.41" y1="189.17" x2="52.19" y2="189.17"/>
						<line class="st1" x1="61.78" y1="225.21" x2="70.22" y2="225.21"/>
						<line class="st1" x1="61.78" y1="228.67" x2="70.22" y2="228.67"/>
						<line class="st1" x1="61.78" y1="232.13" x2="70.22" y2="232.13"/>
						<line class="st1" x1="61.78" y1="235.59" x2="70.22" y2="235.59"/>
						<line class="st1" x1="61.78" y1="239.05" x2="70.22" y2="239.05"/>
						<line class="st1" x1="61.78" y1="242.51" x2="70.22" y2="242.51"/>
						<line class="st1" x1="61.78" y1="245.96" x2="70.22" y2="245.96"/>
						<line class="st1" x1="61.78" y1="249.6" x2="70.22" y2="249.6"/>
						<line class="st1" x1="83.86" y1="276.03" x2="89.34" y2="276.03"/>
						<line class="st1" x1="83.86" y1="279.49" x2="89.34" y2="279.49"/>
						<line class="st1" x1="83.86" y1="282.95" x2="89.34" y2="282.95"/>
						<line class="st1" x1="83.86" y1="286.41" x2="89.34" y2="286.41"/>
						<line class="st1" x1="83.86" y1="289.87" x2="89.34" y2="289.87"/>
						<line class="st1" x1="83.86" y1="293.33" x2="89.34" y2="293.33"/>
						<line class="st1" x1="83.86" y1="296.79" x2="89.34" y2="296.79"/>
						<line class="st1" x1="83.86" y1="300.42" x2="89.34" y2="300.42"/>
						<line class="st1" x1="83.86" y1="304.05" x2="89.34" y2="304.05"/>
						<line class="st1" x1="83.86" y1="307.68" x2="89.34" y2="307.68"/>
						<line class="st1" x1="22.64" y1="276.03" x2="28.12" y2="276.03"/>
						<line class="st1" x1="22.64" y1="279.49" x2="28.12" y2="279.49"/>
						<line class="st1" x1="22.64" y1="282.95" x2="28.12" y2="282.95"/>
						<line class="st1" x1="22.64" y1="286.41" x2="28.12" y2="286.41"/>
						<line class="st1" x1="22.64" y1="289.87" x2="28.12" y2="289.87"/>
						<line class="st1" x1="22.64" y1="293.33" x2="28.12" y2="293.33"/>
						<line class="st1" x1="22.64" y1="296.79" x2="28.12" y2="296.79"/>
						<line class="st1" x1="22.64" y1="300.42" x2="28.12" y2="300.42"/>
						<line class="st1" x1="22.64" y1="304.05" x2="28.12" y2="304.05"/>
						<line class="st1" x1="22.64" y1="307.68" x2="28.12" y2="307.68"/>
						<line class="st1" x1="61.78" y1="253.05" x2="70.22" y2="253.05"/>
						<line class="st1" x1="61.78" y1="256.51" x2="70.22" y2="256.51"/>
						<line class="st1" x1="61.78" y1="265.65" x2="73.58" y2="265.65"/>
						<line class="st1" x1="61.78" y1="269.11" x2="73.58" y2="269.11"/>
						<line class="st1" x1="61.78" y1="272.57" x2="73.58" y2="272.57"/>
						<line class="st1" x1="61.78" y1="276.03" x2="73.58" y2="276.03"/>
						<line class="st1" x1="61.78" y1="279.49" x2="73.58" y2="279.49"/>
						<line class="st1" x1="61.78" y1="282.95" x2="73.58" y2="282.95"/>
						<line class="st1" x1="61.78" y1="286.41" x2="73.58" y2="286.41"/>
						<line class="st1" x1="61.78" y1="290.04" x2="73.58" y2="290.04"/>
						<line class="st1" x1="61.78" y1="293.5" x2="73.58" y2="293.5"/>
						<line class="st1" x1="61.78" y1="296.96" x2="73.58" y2="296.96"/>
						<line class="st1" x1="61.78" y1="300.42" x2="73.58" y2="300.42"/>
						<line class="st1" x1="61.78" y1="303.88" x2="73.58" y2="303.88"/>
						<line class="st1" x1="61.78" y1="307.34" x2="73.58" y2="307.34"/>
						<line class="st1" x1="38.4" y1="265.65" x2="50.2" y2="265.65"/>
						<line class="st1" x1="38.4" y1="269.11" x2="50.2" y2="269.11"/>
						<line class="st1" x1="38.4" y1="272.57" x2="50.2" y2="272.57"/>
						<line class="st1" x1="38.4" y1="276.03" x2="50.2" y2="276.03"/>
						<line class="st1" x1="38.4" y1="279.49" x2="50.2" y2="279.49"/>
						<line class="st1" x1="38.4" y1="282.95" x2="50.2" y2="282.95"/>
						<line class="st1" x1="38.4" y1="286.41" x2="50.2" y2="286.41"/>
						<line class="st1" x1="38.4" y1="290.04" x2="50.2" y2="290.04"/>
						<line class="st1" x1="38.4" y1="293.5" x2="50.2" y2="293.5"/>
						<line class="st1" x1="38.4" y1="296.96" x2="50.2" y2="296.96"/>
						<line class="st1" x1="38.4" y1="300.42" x2="50.2" y2="300.42"/>
						<line class="st1" x1="38.4" y1="303.88" x2="50.2" y2="303.88"/>
						<line class="st1" x1="38.4" y1="307.34" x2="50.2" y2="307.34"/>
						<line class="st1" x1="41.76" y1="225.21" x2="50.2" y2="225.21"/>
						<line class="st1" x1="41.76" y1="228.67" x2="50.2" y2="228.67"/>
						<line class="st1" x1="41.76" y1="232.13" x2="50.2" y2="232.13"/>
						<line class="st1" x1="41.76" y1="235.59" x2="50.2" y2="235.59"/>
						<line class="st1" x1="41.76" y1="239.05" x2="50.2" y2="239.05"/>
						<line class="st1" x1="41.76" y1="242.51" x2="50.2" y2="242.51"/>
						<line class="st1" x1="41.76" y1="245.96" x2="50.2" y2="245.96"/>
						<line class="st1" x1="41.76" y1="249.6" x2="50.2" y2="249.6"/>
						<line class="st1" x1="41.76" y1="253.05" x2="50.2" y2="253.05"/>
						<line class="st1" x1="41.76" y1="256.51" x2="50.2" y2="256.51"/>
						<line class="st1" x1="30.52" y1="271.59" x2="30.52" y2="311.1"/>
						<line class="st1" x1="81.46" y1="271.59" x2="81.46" y2="311.1"/>
					</g>
					<polyline class="st1" points="34.18,271.24 34.18,231.64 34.18,227.69 41.76,227.69 					"/>
					<polyline class="st1" points="77.36,271.24 77.36,242.92 86.6,242.92 86.6,271.24 					"/>
					<polyline class="st1" points="89.34,288.16 92.32,288.16 104.3,288.16 104.3,311.1 					"/>
					<polyline class="st1" points="92.32,288.16 92.32,257.32 107.94,257.32 107.94,310.89 					"/>
					<g>
						<line class="st1" x1="79.67" y1="245.91" x2="79.67" y2="248.87"/>
						<line class="st1" x1="79.67" y1="251.57" x2="79.67" y2="254.54"/>
						<line class="st1" x1="79.67" y1="257.24" x2="79.67" y2="260.2"/>
						<line class="st1" x1="79.67" y1="262.9" x2="79.67" y2="265.86"/>
						<line class="st1" x1="79.67" y1="268.56" x2="79.67" y2="271.52"/>
					</g>
					<g>
						<line class="st1" x1="81.98" y1="245.91" x2="81.98" y2="248.87"/>
						<line class="st1" x1="81.98" y1="251.57" x2="81.98" y2="254.54"/>
						<line class="st1" x1="81.98" y1="257.24" x2="81.98" y2="260.2"/>
						<line class="st1" x1="81.98" y1="262.9" x2="81.98" y2="265.86"/>
						<line class="st1" x1="81.98" y1="268.56" x2="81.98" y2="271.52"/>
					</g>
					<g>
						<line class="st1" x1="84.29" y1="245.91" x2="84.29" y2="248.87"/>
						<line class="st1" x1="84.29" y1="251.57" x2="84.29" y2="254.54"/>
						<line class="st1" x1="84.29" y1="257.24" x2="84.29" y2="260.2"/>
						<line class="st1" x1="84.29" y1="262.9" x2="84.29" y2="265.86"/>
						<line class="st1" x1="84.29" y1="268.56" x2="84.29" y2="271.52"/>
					</g>
					<g>
						<line class="st1" x1="93.66" y1="291.95" x2="93.66" y2="294.91"/>
						<line class="st1" x1="93.66" y1="297.61" x2="93.66" y2="300.57"/>
						<line class="st1" x1="93.66" y1="303.27" x2="93.66" y2="306.23"/>
					</g>
					<g>
						<line class="st1" x1="96.82" y1="291.95" x2="96.82" y2="294.91"/>
						<line class="st1" x1="96.82" y1="297.61" x2="96.82" y2="300.57"/>
						<line class="st1" x1="96.82" y1="303.27" x2="96.82" y2="306.23"/>
					</g>
					<g>
						<line class="st1" x1="99.98" y1="291.95" x2="99.98" y2="294.91"/>
						<line class="st1" x1="99.98" y1="297.61" x2="99.98" y2="300.57"/>
						<line class="st1" x1="99.98" y1="303.27" x2="99.98" y2="306.23"/>
					</g>
					<g>
						<line class="st1" x1="95.92" y1="261.19" x2="95.92" y2="264.15"/>
						<line class="st1" x1="95.92" y1="266.85" x2="95.92" y2="269.81"/>
						<line class="st1" x1="95.92" y1="272.51" x2="95.92" y2="275.47"/>
						<line class="st1" x1="95.92" y1="278.17" x2="95.92" y2="281.14"/>
						<line class="st1" x1="95.92" y1="283.84" x2="95.92" y2="286.8"/>
					</g>
					<g>
						<line class="st1" x1="98.23" y1="261.19" x2="98.23" y2="264.15"/>
						<line class="st1" x1="98.23" y1="266.85" x2="98.23" y2="269.81"/>
						<line class="st1" x1="98.23" y1="272.51" x2="98.23" y2="275.47"/>
						<line class="st1" x1="98.23" y1="278.17" x2="98.23" y2="281.14"/>
						<line class="st1" x1="98.23" y1="283.84" x2="98.23" y2="286.8"/>
					</g>
					<g>
						<line class="st1" x1="102.13" y1="261.19" x2="102.13" y2="264.15"/>
						<line class="st1" x1="102.13" y1="266.85" x2="102.13" y2="269.81"/>
						<line class="st1" x1="102.13" y1="272.51" x2="102.13" y2="275.47"/>
						<line class="st1" x1="102.13" y1="278.17" x2="102.13" y2="281.14"/>
						<line class="st1" x1="102.13" y1="283.84" x2="102.13" y2="286.8"/>
					</g>
					<g>
						<line class="st1" x1="104.44" y1="261.19" x2="104.44" y2="264.15"/>
						<line class="st1" x1="104.44" y1="266.85" x2="104.44" y2="269.81"/>
						<line class="st1" x1="104.44" y1="272.51" x2="104.44" y2="275.47"/>
						<line class="st1" x1="104.44" y1="278.17" x2="104.44" y2="281.14"/>
						<line class="st1" x1="104.44" y1="283.84" x2="104.44" y2="286.8"/>
					</g>
					<line class="st1" x1="34.31" y1="232.27" x2="38.27" y2="232.27"/>
					<line class="st1" x1="34.31" y1="235.19" x2="38.27" y2="235.19"/>
					<line class="st1" x1="34.31" y1="238.12" x2="38.27" y2="238.12"/>
					<line class="st1" x1="34.31" y1="241.04" x2="38.27" y2="241.04"/>
					<line class="st1" x1="34.31" y1="243.97" x2="38.27" y2="243.97"/>
					<line class="st1" x1="34.31" y1="246.89" x2="38.27" y2="246.89"/>
					<line class="st1" x1="34.31" y1="249.82" x2="38.27" y2="249.82"/>
					<line class="st1" x1="34.31" y1="252.74" x2="38.27" y2="252.74"/>
					<line class="st1" x1="34.31" y1="255.67" x2="38.27" y2="255.67"/>
				</g>
				<g>
					<path class="st1" d="M376.83,310.8v-62.1v-12.69l-3.36-5.05l-3.36,5.05v12.69h-1.15c-1.15-6.09-6.49-10.71-12.92-10.71v-15.79
						c2.17-0.24,3.87-2.06,3.87-4.3h-3.87v-15.23c2.17-0.24,3.87-2.06,3.87-4.3h-3.87v-15.23c2.17-0.24,3.87-2.06,3.87-4.3h-3.87
						v-8.7l-3.36-28.25l-3.36,28.25v8.7h-3.41c0,2.08,1.46,3.81,3.41,4.24v15.29h-3.41c0,2.08,1.46,3.81,3.41,4.24v15.29h-3.41
						c0,2.08,1.46,3.81,3.41,4.24v17.72c-2.79,1.67-4.91,4.32-5.86,7.49c-0.47-1.47-1.07-2.88-1.78-4.22v-17.07v-7.65v-5.05
						l-3.36-5.05l-3.36,5.05v5.05h-5.51v-4.89c0-6.75-5.08-12.3-11.62-13.06v-9.43h-2.75v9.39c-6.69,0.62-11.93,6.24-11.93,13.09
						v4.89h-4.74v-5.05l-3.36-5.05l-3.36,5.05v5.05v7.65v17.07c-0.64,1.21-1.18,2.48-1.62,3.79c-1.01-2.98-3.06-5.47-5.72-7.06
						V222.2c2.1-0.31,3.71-2.1,3.71-4.28h-3.71v-15.25c2.1-0.31,3.71-2.1,3.71-4.28h-3.71v-15.25c2.1-0.31,3.71-2.1,3.71-4.28h-3.71
						v-8.7l-3.36-28.25l-3.36,28.25v8.7h-3.56c0,2.13,1.54,3.9,3.56,4.27v15.26h-3.56c0,2.13,1.54,3.9,3.56,4.27v15.26h-3.56
						c0,2.13,1.54,3.9,3.56,4.27V238c-6.43,0-11.77,4.61-12.92,10.71h-2.22v-12.69l-3.36-5.05l-3.36,5.05v12.69v62.13"/>
					<line class="st1" x1="271.8" y1="249.3" x2="271.8" y2="253.23"/>
					<line class="st1" x1="274.11" y1="249.3" x2="274.11" y2="253.23"/>
					<line class="st1" x1="276.42" y1="249.3" x2="276.42" y2="253.23"/>
					<line class="st1" x1="271.8" y1="256.36" x2="271.8" y2="260.29"/>
					<line class="st1" x1="274.11" y1="256.36" x2="274.11" y2="260.29"/>
					<line class="st1" x1="276.42" y1="256.36" x2="276.42" y2="260.29"/>
					<line class="st1" x1="271.8" y1="263.41" x2="271.8" y2="267.35"/>
					<line class="st1" x1="274.11" y1="263.41" x2="274.11" y2="267.35"/>
					<line class="st1" x1="276.42" y1="263.41" x2="276.42" y2="267.35"/>
					<line class="st1" x1="271.8" y1="270.47" x2="271.8" y2="274.41"/>
					<line class="st1" x1="274.11" y1="270.47" x2="274.11" y2="274.41"/>
					<line class="st1" x1="276.42" y1="270.47" x2="276.42" y2="274.41"/>
					<line class="st1" x1="278.16" y1="249.3" x2="278.16" y2="253.23"/>
					<line class="st1" x1="280.47" y1="249.3" x2="280.47" y2="253.23"/>
					<line class="st1" x1="282.77" y1="249.3" x2="282.77" y2="253.23"/>
					<line class="st1" x1="278.16" y1="256.36" x2="278.16" y2="260.29"/>
					<line class="st1" x1="280.47" y1="256.36" x2="280.47" y2="260.29"/>
					<line class="st1" x1="282.77" y1="256.36" x2="282.77" y2="260.29"/>
					<line class="st1" x1="278.16" y1="263.41" x2="278.16" y2="267.35"/>
					<line class="st1" x1="280.47" y1="263.41" x2="280.47" y2="267.35"/>
					<line class="st1" x1="282.77" y1="263.41" x2="282.77" y2="267.35"/>
					<line class="st1" x1="278.16" y1="270.47" x2="278.16" y2="274.41"/>
					<line class="st1" x1="280.47" y1="270.47" x2="280.47" y2="274.41"/>
					<line class="st1" x1="282.77" y1="270.47" x2="282.77" y2="274.41"/>
					<line class="st1" x1="271.8" y1="278.03" x2="271.8" y2="281.97"/>
					<line class="st1" x1="274.11" y1="278.03" x2="274.11" y2="281.97"/>
					<line class="st1" x1="276.42" y1="278.03" x2="276.42" y2="281.97"/>
					<line class="st1" x1="271.8" y1="285.09" x2="271.8" y2="289.03"/>
					<line class="st1" x1="274.11" y1="285.09" x2="274.11" y2="289.03"/>
					<line class="st1" x1="276.42" y1="285.09" x2="276.42" y2="289.03"/>
					<line class="st1" x1="271.8" y1="292.15" x2="271.8" y2="296.08"/>
					<line class="st1" x1="274.11" y1="292.15" x2="274.11" y2="296.08"/>
					<line class="st1" x1="276.42" y1="292.15" x2="276.42" y2="296.08"/>
					<line class="st1" x1="271.8" y1="299.2" x2="271.8" y2="303.14"/>
					<line class="st1" x1="274.11" y1="299.2" x2="274.11" y2="303.14"/>
					<line class="st1" x1="276.42" y1="299.2" x2="276.42" y2="303.14"/>
					<line class="st1" x1="278.16" y1="278.03" x2="278.16" y2="281.97"/>
					<line class="st1" x1="280.47" y1="278.03" x2="280.47" y2="281.97"/>
					<line class="st1" x1="282.77" y1="278.03" x2="282.77" y2="281.97"/>
					<line class="st1" x1="278.16" y1="285.09" x2="278.16" y2="289.03"/>
					<line class="st1" x1="280.47" y1="285.09" x2="280.47" y2="289.03"/>
					<line class="st1" x1="282.77" y1="285.09" x2="282.77" y2="289.03"/>
					<line class="st1" x1="278.16" y1="292.15" x2="278.16" y2="296.08"/>
					<line class="st1" x1="280.47" y1="292.15" x2="280.47" y2="296.08"/>
					<line class="st1" x1="282.77" y1="292.15" x2="282.77" y2="296.08"/>
					<line class="st1" x1="278.16" y1="299.2" x2="278.16" y2="303.14"/>
					<line class="st1" x1="280.47" y1="299.2" x2="280.47" y2="303.14"/>
					<line class="st1" x1="282.77" y1="299.2" x2="282.77" y2="303.14"/>
					<line class="st1" x1="350.27" y1="249.3" x2="350.27" y2="253.23"/>
					<line class="st1" x1="352.58" y1="249.3" x2="352.58" y2="253.23"/>
					<line class="st1" x1="354.89" y1="249.3" x2="354.89" y2="253.23"/>
					<line class="st1" x1="350.27" y1="256.36" x2="350.27" y2="260.29"/>
					<line class="st1" x1="352.58" y1="256.36" x2="352.58" y2="260.29"/>
					<line class="st1" x1="354.89" y1="256.36" x2="354.89" y2="260.29"/>
					<line class="st1" x1="350.27" y1="263.41" x2="350.27" y2="267.35"/>
					<line class="st1" x1="352.58" y1="263.41" x2="352.58" y2="267.35"/>
					<line class="st1" x1="354.89" y1="263.41" x2="354.89" y2="267.35"/>
					<line class="st1" x1="350.27" y1="270.47" x2="350.27" y2="274.41"/>
					<line class="st1" x1="352.58" y1="270.47" x2="352.58" y2="274.41"/>
					<line class="st1" x1="354.89" y1="270.47" x2="354.89" y2="274.41"/>
					<line class="st1" x1="356.63" y1="249.3" x2="356.63" y2="253.23"/>
					<line class="st1" x1="358.94" y1="249.3" x2="358.94" y2="253.23"/>
					<line class="st1" x1="361.24" y1="249.3" x2="361.24" y2="253.23"/>
					<line class="st1" x1="356.63" y1="256.36" x2="356.63" y2="260.29"/>
					<line class="st1" x1="358.94" y1="256.36" x2="358.94" y2="260.29"/>
					<line class="st1" x1="361.24" y1="256.36" x2="361.24" y2="260.29"/>
					<line class="st1" x1="356.63" y1="263.41" x2="356.63" y2="267.35"/>
					<line class="st1" x1="358.94" y1="263.41" x2="358.94" y2="267.35"/>
					<line class="st1" x1="361.24" y1="263.41" x2="361.24" y2="267.35"/>
					<line class="st1" x1="356.63" y1="270.47" x2="356.63" y2="274.41"/>
					<line class="st1" x1="358.94" y1="270.47" x2="358.94" y2="274.41"/>
					<line class="st1" x1="361.24" y1="270.47" x2="361.24" y2="274.41"/>
					<line class="st1" x1="350.27" y1="278.03" x2="350.27" y2="281.97"/>
					<line class="st1" x1="352.58" y1="278.03" x2="352.58" y2="281.97"/>
					<line class="st1" x1="354.89" y1="278.03" x2="354.89" y2="281.97"/>
					<line class="st1" x1="350.27" y1="285.09" x2="350.27" y2="289.03"/>
					<line class="st1" x1="352.58" y1="285.09" x2="352.58" y2="289.03"/>
					<line class="st1" x1="354.89" y1="285.09" x2="354.89" y2="289.03"/>
					<line class="st1" x1="350.27" y1="292.15" x2="350.27" y2="296.08"/>
					<line class="st1" x1="352.58" y1="292.15" x2="352.58" y2="296.08"/>
					<line class="st1" x1="354.89" y1="292.15" x2="354.89" y2="296.08"/>
					<line class="st1" x1="350.27" y1="299.2" x2="350.27" y2="303.14"/>
					<line class="st1" x1="352.58" y1="299.2" x2="352.58" y2="303.14"/>
					<line class="st1" x1="354.89" y1="299.2" x2="354.89" y2="303.14"/>
					<line class="st1" x1="356.63" y1="278.03" x2="356.63" y2="281.97"/>
					<line class="st1" x1="358.94" y1="278.03" x2="358.94" y2="281.97"/>
					<line class="st1" x1="361.24" y1="278.03" x2="361.24" y2="281.97"/>
					<line class="st1" x1="356.63" y1="285.09" x2="356.63" y2="289.03"/>
					<line class="st1" x1="358.94" y1="285.09" x2="358.94" y2="289.03"/>
					<line class="st1" x1="361.24" y1="285.09" x2="361.24" y2="289.03"/>
					<line class="st1" x1="356.63" y1="292.15" x2="356.63" y2="296.08"/>
					<line class="st1" x1="358.94" y1="292.15" x2="358.94" y2="296.08"/>
					<line class="st1" x1="361.24" y1="292.15" x2="361.24" y2="296.08"/>
					<line class="st1" x1="356.63" y1="299.2" x2="356.63" y2="303.14"/>
					<line class="st1" x1="358.94" y1="299.2" x2="358.94" y2="303.14"/>
					<line class="st1" x1="361.24" y1="299.2" x2="361.24" y2="303.14"/>
					<line class="st1" x1="306" y1="225.95" x2="306" y2="230.66"/>
					<line class="st1" x1="310.45" y1="225.95" x2="310.45" y2="230.66"/>
					<line class="st1" x1="314.9" y1="225.95" x2="314.9" y2="230.66"/>
					<line class="st1" x1="306" y1="234.4" x2="306" y2="239.1"/>
					<line class="st1" x1="310.45" y1="234.4" x2="310.45" y2="239.1"/>
					<line class="st1" x1="314.9" y1="234.4" x2="314.9" y2="239.1"/>
					<line class="st1" x1="306" y1="242.84" x2="306" y2="247.54"/>
					<line class="st1" x1="310.45" y1="242.84" x2="310.45" y2="247.54"/>
					<line class="st1" x1="314.9" y1="242.84" x2="314.9" y2="247.54"/>
					<line class="st1" x1="306" y1="251.28" x2="306" y2="255.98"/>
					<line class="st1" x1="310.45" y1="251.28" x2="310.45" y2="255.98"/>
					<line class="st1" x1="314.9" y1="251.28" x2="314.9" y2="255.98"/>
					<line class="st1" x1="317.94" y1="225.95" x2="317.94" y2="230.66"/>
					<line class="st1" x1="322.39" y1="225.95" x2="322.39" y2="230.66"/>
					<line class="st1" x1="326.85" y1="225.95" x2="326.85" y2="230.66"/>
					<line class="st1" x1="317.94" y1="234.4" x2="317.94" y2="239.1"/>
					<line class="st1" x1="322.39" y1="234.4" x2="322.39" y2="239.1"/>
					<line class="st1" x1="326.85" y1="234.4" x2="326.85" y2="239.1"/>
					<line class="st1" x1="317.94" y1="242.84" x2="317.94" y2="247.54"/>
					<line class="st1" x1="322.39" y1="242.84" x2="322.39" y2="247.54"/>
					<line class="st1" x1="326.85" y1="242.84" x2="326.85" y2="247.54"/>
					<line class="st1" x1="317.94" y1="251.28" x2="317.94" y2="255.98"/>
					<line class="st1" x1="322.39" y1="251.28" x2="322.39" y2="255.98"/>
					<line class="st1" x1="326.85" y1="251.28" x2="326.85" y2="255.98"/>
					<line class="st1" x1="306" y1="259.57" x2="306" y2="264.28"/>
					<line class="st1" x1="310.45" y1="259.57" x2="310.45" y2="264.28"/>
					<line class="st1" x1="314.9" y1="259.57" x2="314.9" y2="264.28"/>
					<line class="st1" x1="306" y1="268.01" x2="306" y2="272.72"/>
					<line class="st1" x1="310.45" y1="268.01" x2="310.45" y2="272.72"/>
					<line class="st1" x1="314.9" y1="268.01" x2="314.9" y2="272.72"/>
					<path class="st1" d="M306,281.16"/>
					<path class="st1" d="M306,276.45"/>
					<path class="st1" d="M310.45,281.16"/>
					<path class="st1" d="M310.45,276.45"/>
					<line class="st1" x1="317.94" y1="259.57" x2="317.94" y2="264.28"/>
					<line class="st1" x1="322.39" y1="259.57" x2="322.39" y2="264.28"/>
					<line class="st1" x1="326.85" y1="259.57" x2="326.85" y2="264.28"/>
					<line class="st1" x1="317.94" y1="268.01" x2="317.94" y2="272.72"/>
					<line class="st1" x1="322.39" y1="268.01" x2="322.39" y2="272.72"/>
					<line class="st1" x1="326.85" y1="268.01" x2="326.85" y2="272.72"/>
					<path class="st1" d="M322.39,281.16"/>
					<path class="st1" d="M322.39,276.45"/>
					<path class="st1" d="M326.85,281.16"/>
					<path class="st1" d="M326.85,276.45"/>
					<line class="st1" x1="300.12" y1="225.59" x2="300.12" y2="233.18"/>
					<line class="st1" x1="300.12" y1="239.2" x2="300.12" y2="246.8"/>
					<line class="st1" x1="300.12" y1="252.82" x2="300.12" y2="260.42"/>
					<line class="st1" x1="300.12" y1="266.44" x2="300.12" y2="274.04"/>
					<line class="st1" x1="300.12" y1="280.33" x2="300.12" y2="287.93"/>
					<line class="st1" x1="296.25" y1="225.59" x2="296.25" y2="233.18"/>
					<line class="st1" x1="296.25" y1="239.2" x2="296.25" y2="246.8"/>
					<line class="st1" x1="296.25" y1="252.82" x2="296.25" y2="260.42"/>
					<line class="st1" x1="296.25" y1="266.44" x2="296.25" y2="274.04"/>
					<line class="st1" x1="296.25" y1="280.33" x2="296.25" y2="287.93"/>
					<line class="st1" x1="332.22" y1="225.59" x2="332.22" y2="233.18"/>
					<line class="st1" x1="332.22" y1="239.2" x2="332.22" y2="246.8"/>
					<line class="st1" x1="332.22" y1="252.82" x2="332.22" y2="260.42"/>
					<line class="st1" x1="332.22" y1="266.44" x2="332.22" y2="274.04"/>
					<line class="st1" x1="332.22" y1="280.33" x2="332.22" y2="287.93"/>
					<line class="st1" x1="336.27" y1="225.59" x2="336.27" y2="233.18"/>
					<line class="st1" x1="336.27" y1="239.2" x2="336.27" y2="246.8"/>
					<line class="st1" x1="336.27" y1="252.82" x2="336.27" y2="260.42"/>
					<line class="st1" x1="336.27" y1="266.44" x2="336.27" y2="274.04"/>
					<line class="st1" x1="336.27" y1="280.33" x2="336.27" y2="287.93"/>
					<line class="st1" x1="332.22" y1="293.69" x2="332.22" y2="301.28"/>
					<line class="st1" x1="336.27" y1="293.69" x2="336.27" y2="301.28"/>
					<line class="st1" x1="296.2" y1="293.69" x2="296.2" y2="301.28"/>
					<line class="st1" x1="300.26" y1="293.69" x2="300.26" y2="301.28"/>
					<path class="st1" d="M277.58,238c0,0,2.07-0.56,6.73,1.87"/>
					<path class="st1" d="M349.31,239.87c0,0,0.69-1.53,6.73-1.87"/>
					<path class="st1" d="M308.12,310.5v-20.03c0-4.63,3.75-8.38,8.38-8.38l0,0c4.63,0,8.38,3.75,8.38,8.38v20.03"/>
					<path class="st1" d="M310.34,310.5v-17.46c0-4.04,2.76-7.31,6.17-7.31l0,0c3.41,0,6.17,3.27,6.17,7.31v17.46"/>
					<path class="st1" d="M319.06,212.33c0,1.66-1.35,3.01-3.01,3.01s-3.01-1.35-3.01-3.01c0-1.66,1.35-3.01,3.01-3.01
						S319.06,210.67,319.06,212.33z"/>
					<path class="st1" d="M322.32,212.33c0,3.46-2.81,6.27-6.27,6.27s-6.27-2.81-6.27-6.27c0-3.46,2.81-6.27,6.27-6.27
						S322.32,208.87,322.32,212.33z"/>
					<line class="st1" x1="290.02" y1="246.93" x2="290.02" y2="311.1"/>
					<line class="st1" x1="343.44" y1="246.93" x2="343.44" y2="311.1"/>
					<polyline class="st1" points="370.11,311.1 370.11,248.71 376.83,248.71 					"/>
					<polyline class="st1" points="262.44,310.82 262.44,248.71 255.71,248.71 					"/>
					<line class="st1" x1="277.58" y1="178.86" x2="284.31" y2="178.86"/>
					<line class="st1" x1="277.58" y1="183.12" x2="284.31" y2="183.12"/>
					<line class="st1" x1="277.58" y1="198.39" x2="284.31" y2="198.39"/>
					<line class="st1" x1="277.58" y1="202.65" x2="284.31" y2="202.65"/>
					<line class="st1" x1="277.58" y1="217.92" x2="284.31" y2="217.92"/>
					<line class="st1" x1="277.58" y1="222.18" x2="284.31" y2="222.18"/>
					<line class="st1" x1="277.58" y1="170.15" x2="284.31" y2="170.15"/>
					<line class="st1" x1="349.69" y1="178.86" x2="356.42" y2="178.86"/>
					<line class="st1" x1="349.69" y1="183.12" x2="356.42" y2="183.12"/>
					<line class="st1" x1="349.69" y1="198.39" x2="356.42" y2="198.39"/>
					<line class="st1" x1="349.69" y1="202.65" x2="356.42" y2="202.65"/>
					<line class="st1" x1="349.69" y1="217.92" x2="356.42" y2="217.92"/>
					<line class="st1" x1="349.69" y1="222.18" x2="356.42" y2="222.18"/>
					<line class="st1" x1="349.69" y1="170.15" x2="356.42" y2="170.15"/>
					<line class="st1" x1="255.71" y1="236.01" x2="262.44" y2="236.01"/>
					<line class="st1" x1="255.85" y1="264.18" x2="261.79" y2="264.18"/>
					<line class="st1" x1="255.85" y1="277.31" x2="261.79" y2="277.31"/>
					<line class="st1" x1="255.85" y1="290.43" x2="261.79" y2="290.43"/>
					<line class="st1" x1="255.85" y1="303.55" x2="261.79" y2="303.55"/>
					<line class="st1" x1="370.1" y1="236.01" x2="376.83" y2="236.01"/>
					<line class="st1" x1="370.24" y1="264.18" x2="376.18" y2="264.18"/>
					<line class="st1" x1="370.24" y1="277.31" x2="376.18" y2="277.31"/>
					<line class="st1" x1="370.24" y1="290.43" x2="376.18" y2="290.43"/>
					<line class="st1" x1="370.24" y1="303.55" x2="376.18" y2="303.55"/>
					<line class="st1" x1="264.66" y1="248.71" x2="264.66" y2="310.88"/>
					<line class="st1" x1="368.83" y1="248.71" x2="368.83" y2="310.88"/>
					<path class="st1" d="M298.38,218.43"/>
					<path class="st1" d="M292.09,218.5"/>
					<line class="st1" x1="291.65" y1="213.38" x2="298.38" y2="213.38"/>
					<line class="st1" x1="335.03" y1="213.38" x2="341.76" y2="213.38"/>
					<path class="st1" d="M315.05,200.44"/>
				</g>
				<g>
					<path class="st5" d="M537.34,311.1v-57.65h0.64l1.47-1.56v-15.07l-1.47-1.56h-0.34v-4.39l-0.75-5.96l-0.55,4.71
						c-1.82-2.12-2.57-4.71-2.57-4.71v-2.4v-4.12c0-0.1-0.01-0.21-0.01-0.31h0.01l-0.51-5.96l-0.3,3.84
						c-0.05-0.07-0.11-0.14-0.17-0.2h0l-2.66-17.76l-2.66,17.76h0c-0.06,0.07-0.12,0.14-0.18,0.22l-0.33-3.85l-0.47,5.96h0.01
						c-0.01,0.1-0.01,0.2-0.01,0.31v4.12v2.4c-0.21,1.46-1.66,3.35-2.77,4.61l-0.58-4.61l-0.7,5.96v4.39h-0.47l-1.47,1.57v15.06
						l1.47,1.57h0.47v16.76h-4.09v-1.39h0.56l-1.54-5.57l-1.54,5.57h0.56v1.39h-3.68v-4.17h-0.4v-4.94h-0.09l-1.61-5.57l-1.61,5.57
						v1.25h-0.51v2.12h-0.87v1.57h-4.67v-1.57h-0.87v-2.12h-0.51v-1.25h-0.09l-1.61-5.57l-1.61,5.57v4.94h-0.4v4.17h-3.85v-1.39
						h0.56l-1.54-5.57l-1.54,5.57h0.56v1.39h-4.47v-4.17h-0.4v-4.94h-0.09l-1.61-5.57l-1.61,5.57v1.25h-0.51v2.12h-0.87v1.57h-4.67
						v-1.57h-0.87v-2.12h-0.51v-1.25h-0.09l-1.61-5.57l-1.61,5.57v4.94h-0.4v4.17h-3.06v-1.39h0.56l-1.54-5.57l-1.54,5.57h0.56v1.39
						h-1.18h-4.09v-1.39h0.23h0.32l-1.54-5.57l-0.16,0.58l-0.16-0.58l-1.54,5.57h0.32h0.23v1.39h-2.61h-0.74v-4.17h-0.4v-4.94h-0.09
						l-1.61-5.57l-1.61,5.57v1.25h-0.51v2.12h-0.87v1.57h-4.67v-1.57h-0.87v-2.12h-0.51v-1.25h-0.09l-1.61-5.57l-1.61,5.57v4.94H442
						v4.17h-3.85v-1.39h0.56l-1.54-5.57l-1.54,5.57h0.56v1.39h-4.47v-4.17h-0.4v-4.94h-0.09l-1.61-5.57L428,261.1v1.25h-0.51v2.12
						h-0.87v1.57h-4.67v-1.57h-0.87v-2.12h-0.51v-1.25h-0.09l-1.61-5.57l-1.61,5.57v4.94h-0.4v4.17h-3.06v-1.39h0.56l-1.54-5.57
						l-1.54,5.57h0.56v1.39h-2.34v-10.11h1.72v-2.28h-1.72v-24.03h1.72v-2.28h-1.72v-6.31h1.23v-1.96h-1.23v-0.43v-0.54h1.23v-0.98
						h-1.23v-3.7h0.12l-3.57-9.57l-3.57,9.57v5.22h-13.03v-5.22l-3.57-9.57l-3.57,9.57h0.12v3.7h-1.23v0.98h1.23v0.54v0.43h-1.23
						v1.96h1.23v6.31h-1.23v2.28h1.23v24.03h-1.23v2.28h1.23v24.03h-1.23v2.28h1.23v24.68 M466.56,311.1 M529.98,247.95
						c-2.19,0-3.97-1.89-3.97-4.22c0-2.33,1.78-4.22,3.97-4.22c2.19,0,3.97,1.89,3.97,4.22
						C533.95,246.06,532.17,247.95,529.98,247.95z"/>
					<g>
						<g>
							<line class="st1" x1="445.51" y1="275.16" x2="445.51" y2="278.33"/>
							<line class="st1" x1="445.51" y1="281.22" x2="445.51" y2="284.39"/>
							<line class="st1" x1="445.51" y1="287.28" x2="445.51" y2="290.45"/>
							<line class="st1" x1="445.51" y1="293.35" x2="445.51" y2="296.52"/>
							<line class="st1" x1="445.51" y1="299.41" x2="445.51" y2="302.58"/>
						</g>
						<g>
							<line class="st1" x1="447.98" y1="275.16" x2="447.98" y2="278.33"/>
							<line class="st1" x1="447.98" y1="281.22" x2="447.98" y2="284.39"/>
							<line class="st1" x1="447.98" y1="287.28" x2="447.98" y2="290.45"/>
							<line class="st1" x1="447.98" y1="293.35" x2="447.98" y2="296.52"/>
							<line class="st1" x1="447.98" y1="299.41" x2="447.98" y2="302.58"/>
						</g>
						<g>
							<line class="st1" x1="451.06" y1="275.16" x2="451.06" y2="278.33"/>
							<line class="st1" x1="451.06" y1="281.22" x2="451.06" y2="284.39"/>
							<line class="st1" x1="451.06" y1="287.28" x2="451.06" y2="290.45"/>
							<line class="st1" x1="451.06" y1="293.35" x2="451.06" y2="296.52"/>
							<line class="st1" x1="451.06" y1="299.41" x2="451.06" y2="302.58"/>
						</g>
						<g>
							<line class="st1" x1="453.53" y1="275.16" x2="453.53" y2="278.33"/>
							<line class="st1" x1="453.53" y1="281.22" x2="453.53" y2="284.39"/>
							<line class="st1" x1="453.53" y1="287.28" x2="453.53" y2="290.45"/>
							<line class="st1" x1="453.53" y1="293.35" x2="453.53" y2="296.52"/>
							<line class="st1" x1="453.53" y1="299.41" x2="453.53" y2="302.58"/>
						</g>
					</g>
					<g>
						<g>
							<line class="st1" x1="475.9" y1="275.16" x2="475.9" y2="278.33"/>
							<line class="st1" x1="475.9" y1="281.22" x2="475.9" y2="284.39"/>
							<line class="st1" x1="475.9" y1="287.28" x2="475.9" y2="290.45"/>
							<line class="st1" x1="475.9" y1="293.35" x2="475.9" y2="296.52"/>
							<line class="st1" x1="475.9" y1="299.41" x2="475.9" y2="302.58"/>
						</g>
						<g>
							<line class="st1" x1="478.38" y1="275.16" x2="478.38" y2="278.33"/>
							<line class="st1" x1="478.38" y1="281.22" x2="478.38" y2="284.39"/>
							<line class="st1" x1="478.38" y1="287.28" x2="478.38" y2="290.45"/>
							<line class="st1" x1="478.38" y1="293.35" x2="478.38" y2="296.52"/>
							<line class="st1" x1="478.38" y1="299.41" x2="478.38" y2="302.58"/>
						</g>
						<g>
							<line class="st1" x1="481.45" y1="275.16" x2="481.45" y2="278.33"/>
							<line class="st1" x1="481.45" y1="281.22" x2="481.45" y2="284.39"/>
							<line class="st1" x1="481.45" y1="287.28" x2="481.45" y2="290.45"/>
							<line class="st1" x1="481.45" y1="293.35" x2="481.45" y2="296.52"/>
							<line class="st1" x1="481.45" y1="299.41" x2="481.45" y2="302.58"/>
						</g>
						<g>
							<line class="st1" x1="483.92" y1="275.16" x2="483.92" y2="278.33"/>
							<line class="st1" x1="483.92" y1="281.22" x2="483.92" y2="284.39"/>
							<line class="st1" x1="483.92" y1="287.28" x2="483.92" y2="290.45"/>
							<line class="st1" x1="483.92" y1="293.35" x2="483.92" y2="296.52"/>
							<line class="st1" x1="483.92" y1="299.41" x2="483.92" y2="302.58"/>
						</g>
					</g>
					<g>
						<g>
							<line class="st1" x1="527.48" y1="258.21" x2="527.48" y2="261.38"/>
							<line class="st1" x1="527.48" y1="264.27" x2="527.48" y2="267.45"/>
							<line class="st1" x1="527.48" y1="270.34" x2="527.48" y2="273.51"/>
							<line class="st1" x1="527.48" y1="276.4" x2="527.48" y2="279.57"/>
							<line class="st1" x1="527.48" y1="282.46" x2="527.48" y2="285.63"/>
						</g>
						<g>
							<line class="st1" x1="529.95" y1="258.21" x2="529.95" y2="261.38"/>
							<line class="st1" x1="529.95" y1="264.27" x2="529.95" y2="267.45"/>
							<line class="st1" x1="529.95" y1="270.34" x2="529.95" y2="273.51"/>
							<line class="st1" x1="529.95" y1="276.4" x2="529.95" y2="279.57"/>
							<line class="st1" x1="529.95" y1="282.46" x2="529.95" y2="285.63"/>
						</g>
						<g>
							<line class="st1" x1="532.2" y1="258.21" x2="532.2" y2="261.38"/>
							<line class="st1" x1="532.2" y1="264.27" x2="532.2" y2="267.45"/>
							<line class="st1" x1="532.2" y1="270.34" x2="532.2" y2="273.51"/>
							<line class="st1" x1="532.2" y1="276.4" x2="532.2" y2="279.57"/>
							<line class="st1" x1="532.2" y1="282.46" x2="532.2" y2="285.63"/>
						</g>
					</g>
					<g>
						<g>
							<line class="st1" x1="527.48" y1="288.33" x2="527.48" y2="291.5"/>
							<line class="st1" x1="527.48" y1="294.39" x2="527.48" y2="297.56"/>
							<line class="st1" x1="527.48" y1="300.45" x2="527.48" y2="303.62"/>
						</g>
						<g>
							<line class="st1" x1="529.95" y1="288.33" x2="529.95" y2="291.5"/>
							<line class="st1" x1="529.95" y1="294.39" x2="529.95" y2="297.56"/>
							<line class="st1" x1="529.95" y1="300.45" x2="529.95" y2="303.62"/>
						</g>
						<g>
							<line class="st1" x1="532.2" y1="288.33" x2="532.2" y2="291.5"/>
							<line class="st1" x1="532.2" y1="294.39" x2="532.2" y2="297.56"/>
							<line class="st1" x1="532.2" y1="300.45" x2="532.2" y2="303.62"/>
						</g>
					</g>
					<g>
						<g>
							<line class="st1" x1="500.86" y1="275.16" x2="500.86" y2="278.33"/>
							<line class="st1" x1="500.86" y1="281.22" x2="500.86" y2="284.39"/>
							<line class="st1" x1="500.86" y1="287.28" x2="500.86" y2="290.45"/>
							<line class="st1" x1="500.86" y1="293.35" x2="500.86" y2="296.52"/>
							<line class="st1" x1="500.86" y1="299.41" x2="500.86" y2="302.58"/>
						</g>
						<g>
							<line class="st1" x1="503.33" y1="275.16" x2="503.33" y2="278.33"/>
							<line class="st1" x1="503.33" y1="281.22" x2="503.33" y2="284.39"/>
							<line class="st1" x1="503.33" y1="287.28" x2="503.33" y2="290.45"/>
							<line class="st1" x1="503.33" y1="293.35" x2="503.33" y2="296.52"/>
							<line class="st1" x1="503.33" y1="299.41" x2="503.33" y2="302.58"/>
						</g>
						<g>
							<line class="st1" x1="506.41" y1="275.16" x2="506.41" y2="278.33"/>
							<line class="st1" x1="506.41" y1="281.22" x2="506.41" y2="284.39"/>
							<line class="st1" x1="506.41" y1="287.28" x2="506.41" y2="290.45"/>
							<line class="st1" x1="506.41" y1="293.35" x2="506.41" y2="296.52"/>
							<line class="st1" x1="506.41" y1="299.41" x2="506.41" y2="302.58"/>
						</g>
						<g>
							<line class="st1" x1="508.88" y1="275.16" x2="508.88" y2="278.33"/>
							<line class="st1" x1="508.88" y1="281.22" x2="508.88" y2="284.39"/>
							<line class="st1" x1="508.88" y1="287.28" x2="508.88" y2="290.45"/>
							<line class="st1" x1="508.88" y1="293.35" x2="508.88" y2="296.52"/>
							<line class="st1" x1="508.88" y1="299.41" x2="508.88" y2="302.58"/>
						</g>
					</g>
					<g>
						<g>
							<line class="st1" x1="420.18" y1="275.16" x2="420.18" y2="278.33"/>
							<line class="st1" x1="420.18" y1="281.22" x2="420.18" y2="284.39"/>
							<line class="st1" x1="420.18" y1="287.28" x2="420.18" y2="290.45"/>
							<line class="st1" x1="420.18" y1="293.35" x2="420.18" y2="296.52"/>
							<line class="st1" x1="420.18" y1="299.41" x2="420.18" y2="302.58"/>
						</g>
						<g>
							<line class="st1" x1="422.65" y1="275.16" x2="422.65" y2="278.33"/>
							<line class="st1" x1="422.65" y1="281.22" x2="422.65" y2="284.39"/>
							<line class="st1" x1="422.65" y1="287.28" x2="422.65" y2="290.45"/>
							<line class="st1" x1="422.65" y1="293.35" x2="422.65" y2="296.52"/>
							<line class="st1" x1="422.65" y1="299.41" x2="422.65" y2="302.58"/>
						</g>
						<g>
							<line class="st1" x1="425.73" y1="275.16" x2="425.73" y2="278.33"/>
							<line class="st1" x1="425.73" y1="281.22" x2="425.73" y2="284.39"/>
							<line class="st1" x1="425.73" y1="287.28" x2="425.73" y2="290.45"/>
							<line class="st1" x1="425.73" y1="293.35" x2="425.73" y2="296.52"/>
							<line class="st1" x1="425.73" y1="299.41" x2="425.73" y2="302.58"/>
						</g>
						<g>
							<line class="st1" x1="428.2" y1="275.16" x2="428.2" y2="278.33"/>
							<line class="st1" x1="428.2" y1="281.22" x2="428.2" y2="284.39"/>
							<line class="st1" x1="428.2" y1="287.28" x2="428.2" y2="290.45"/>
							<line class="st1" x1="428.2" y1="293.35" x2="428.2" y2="296.52"/>
							<line class="st1" x1="428.2" y1="299.41" x2="428.2" y2="302.58"/>
						</g>
					</g>
					<g>
						<g>
							<g>
								<line class="st1" x1="386.66" y1="266.13" x2="386.66" y2="269.3"/>
								<line class="st1" x1="386.66" y1="272.19" x2="386.66" y2="275.37"/>
								<line class="st1" x1="386.66" y1="278.26" x2="386.66" y2="281.43"/>
								<line class="st1" x1="386.66" y1="284.32" x2="386.66" y2="287.49"/>
								<line class="st1" x1="386.66" y1="290.38" x2="386.66" y2="293.55"/>
							</g>
							<g>
								<line class="st1" x1="389.13" y1="266.13" x2="389.13" y2="269.3"/>
								<line class="st1" x1="389.13" y1="272.19" x2="389.13" y2="275.37"/>
								<line class="st1" x1="389.13" y1="278.26" x2="389.13" y2="281.43"/>
								<line class="st1" x1="389.13" y1="284.32" x2="389.13" y2="287.49"/>
								<line class="st1" x1="389.13" y1="290.38" x2="389.13" y2="293.55"/>
							</g>
							<g>
								<line class="st1" x1="392.21" y1="266.13" x2="392.21" y2="269.3"/>
								<line class="st1" x1="392.21" y1="272.19" x2="392.21" y2="275.37"/>
								<line class="st1" x1="392.21" y1="278.26" x2="392.21" y2="281.43"/>
								<line class="st1" x1="392.21" y1="284.32" x2="392.21" y2="287.49"/>
								<line class="st1" x1="392.21" y1="290.38" x2="392.21" y2="293.55"/>
							</g>
							<g>
								<line class="st1" x1="394.68" y1="266.13" x2="394.68" y2="269.3"/>
								<line class="st1" x1="394.68" y1="272.19" x2="394.68" y2="275.37"/>
								<line class="st1" x1="394.68" y1="278.26" x2="394.68" y2="281.43"/>
								<line class="st1" x1="394.68" y1="284.32" x2="394.68" y2="287.49"/>
								<line class="st1" x1="394.68" y1="290.38" x2="394.68" y2="293.55"/>
							</g>
						</g>
						<g>
							<g>
								<line class="st1" x1="396.79" y1="266.13" x2="396.79" y2="269.3"/>
								<line class="st1" x1="396.79" y1="272.19" x2="396.79" y2="275.37"/>
								<line class="st1" x1="396.79" y1="278.26" x2="396.79" y2="281.43"/>
								<line class="st1" x1="396.79" y1="284.32" x2="396.79" y2="287.49"/>
								<line class="st1" x1="396.79" y1="290.38" x2="396.79" y2="293.55"/>
							</g>
							<g>
								<line class="st1" x1="399.26" y1="266.13" x2="399.26" y2="269.3"/>
								<line class="st1" x1="399.26" y1="272.19" x2="399.26" y2="275.37"/>
								<line class="st1" x1="399.26" y1="278.26" x2="399.26" y2="281.43"/>
								<line class="st1" x1="399.26" y1="284.32" x2="399.26" y2="287.49"/>
								<line class="st1" x1="399.26" y1="290.38" x2="399.26" y2="293.55"/>
							</g>
							<g>
								<line class="st1" x1="402.34" y1="266.13" x2="402.34" y2="269.3"/>
								<line class="st1" x1="402.34" y1="272.19" x2="402.34" y2="275.37"/>
								<line class="st1" x1="402.34" y1="278.26" x2="402.34" y2="281.43"/>
								<line class="st1" x1="402.34" y1="284.32" x2="402.34" y2="287.49"/>
								<line class="st1" x1="402.34" y1="290.38" x2="402.34" y2="293.55"/>
							</g>
							<g>
								<line class="st1" x1="404.81" y1="266.13" x2="404.81" y2="269.3"/>
								<line class="st1" x1="404.81" y1="272.19" x2="404.81" y2="275.37"/>
								<line class="st1" x1="404.81" y1="278.26" x2="404.81" y2="281.43"/>
								<line class="st1" x1="404.81" y1="284.32" x2="404.81" y2="287.49"/>
								<line class="st1" x1="404.81" y1="290.38" x2="404.81" y2="293.55"/>
							</g>
						</g>
						<g>
							<g>
								<line class="st1" x1="386.66" y1="295.42" x2="386.66" y2="298.59"/>
								<line class="st1" x1="386.66" y1="301.48" x2="386.66" y2="304.65"/>
							</g>
							<g>
								<line class="st1" x1="389.13" y1="295.42" x2="389.13" y2="298.59"/>
								<line class="st1" x1="389.13" y1="301.48" x2="389.13" y2="304.65"/>
							</g>
							<g>
								<line class="st1" x1="392.21" y1="295.42" x2="392.21" y2="298.59"/>
								<line class="st1" x1="392.21" y1="301.48" x2="392.21" y2="304.65"/>
							</g>
							<g>
								<line class="st1" x1="394.68" y1="295.42" x2="394.68" y2="298.59"/>
								<line class="st1" x1="394.68" y1="301.48" x2="394.68" y2="304.65"/>
							</g>
						</g>
						<g>
							<g>
								<line class="st1" x1="396.79" y1="295.42" x2="396.79" y2="298.59"/>
								<line class="st1" x1="396.79" y1="301.48" x2="396.79" y2="304.65"/>
							</g>
							<g>
								<line class="st1" x1="399.26" y1="295.42" x2="399.26" y2="298.59"/>
								<line class="st1" x1="399.26" y1="301.48" x2="399.26" y2="304.65"/>
							</g>
							<g>
								<line class="st1" x1="402.34" y1="295.42" x2="402.34" y2="298.59"/>
								<line class="st1" x1="402.34" y1="301.48" x2="402.34" y2="304.65"/>
							</g>
							<g>
								<line class="st1" x1="404.81" y1="295.42" x2="404.81" y2="298.59"/>
								<line class="st1" x1="404.81" y1="301.48" x2="404.81" y2="304.65"/>
							</g>
						</g>
					</g>
					<line class="st1" x1="382.4" y1="221.29" x2="389.44" y2="221.29"/>
					<line class="st1" x1="382.4" y1="222.25" x2="389.44" y2="222.25"/>
					<line class="st1" x1="382.53" y1="225.22" x2="409.68" y2="225.22"/>
					<line class="st1" x1="382.53" y1="231.44" x2="409.68" y2="231.44"/>
					<line class="st1" x1="382.53" y1="257.69" x2="409.68" y2="257.69"/>
					<line class="st1" x1="382.53" y1="260.18" x2="409.68" y2="260.18"/>
					<line class="st1" x1="382.53" y1="233.79" x2="409.68" y2="233.79"/>
					<line class="st1" x1="382.34" y1="217.59" x2="389.47" y2="217.59"/>
					<line class="st1" x1="402.43" y1="221.29" x2="409.47" y2="221.29"/>
					<line class="st1" x1="402.43" y1="222.25" x2="409.47" y2="222.25"/>
					<line class="st1" x1="402.37" y1="217.59" x2="409.5" y2="217.59"/>
					<line class="st1" x1="409.51" y1="270.21" x2="409.51" y2="311.29"/>
					<line class="st1" x1="522.52" y1="270.21" x2="522.52" y2="311.29"/>
					<line class="st1" x1="456.83" y1="270.21" x2="456.83" y2="311.15"/>
					<line class="st1" x1="442" y1="270.21" x2="442" y2="311.1"/>
					<line class="st1" x1="487.41" y1="270.21" x2="487.41" y2="311.15"/>
					<line class="st1" x1="472.57" y1="270.21" x2="472.57" y2="311.1"/>
					<line class="st1" x1="512.62" y1="270.21" x2="512.62" y2="311.15"/>
					<line class="st1" x1="497.79" y1="270.21" x2="497.79" y2="311.1"/>
					<line class="st5" x1="416.88" y1="270.21" x2="416.88" y2="311.29"/>
					<line class="st5" x1="431.64" y1="270.33" x2="431.64" y2="311.41"/>
					<line class="st1" x1="522.46" y1="253.46" x2="537.4" y2="253.46"/>
					<line class="st1" x1="522.46" y1="235.36" x2="537.4" y2="235.36"/>
					<rect x="460.36" y="274.59" class="st1" width="1.47" height="4.97"/>
					<g>
						<rect x="389.44" y="238.12" class="st1" width="1.47" height="4.97"/>
						<rect x="394.97" y="238.12" class="st1" width="1.47" height="4.97"/>
						<rect x="400.49" y="238.12" class="st1" width="1.47" height="4.97"/>
						<rect x="389.44" y="246.13" class="st1" width="1.47" height="4.97"/>
						<rect x="394.97" y="246.13" class="st1" width="1.47" height="4.97"/>
						<rect x="400.49" y="246.13" class="st1" width="1.47" height="4.97"/>
					</g>
					<rect x="460.36" y="283.25" class="st1" width="1.47" height="4.97"/>
					<rect x="460.36" y="291.9" class="st1" width="1.47" height="4.97"/>
					<rect x="460.36" y="300.56" class="st1" width="1.47" height="4.97"/>
					<g>
						<rect x="467.54" y="274.59" class="st1" width="1.47" height="4.97"/>
						<rect x="467.54" y="283.25" class="st1" width="1.47" height="4.97"/>
						<rect x="467.54" y="291.9" class="st1" width="1.47" height="4.97"/>
						<rect x="467.54" y="300.56" class="st1" width="1.47" height="4.97"/>
					</g>
					<g>
						<rect x="436.05" y="274.59" class="st1" width="1.47" height="4.97"/>
						<rect x="436.05" y="283.25" class="st1" width="1.47" height="4.97"/>
						<rect x="436.05" y="291.9" class="st1" width="1.47" height="4.97"/>
						<rect x="436.05" y="300.56" class="st1" width="1.47" height="4.97"/>
					</g>
					<g>
						<rect x="412.28" y="274.59" class="st1" width="1.47" height="4.97"/>
						<rect x="412.28" y="283.25" class="st1" width="1.47" height="4.97"/>
						<rect x="412.28" y="291.9" class="st1" width="1.47" height="4.97"/>
						<rect x="412.28" y="300.56" class="st1" width="1.47" height="4.97"/>
					</g>
					<g>
						<rect x="491.67" y="274.59" class="st1" width="1.47" height="4.97"/>
						<rect x="491.67" y="283.25" class="st1" width="1.47" height="4.97"/>
						<rect x="491.67" y="291.9" class="st1" width="1.47" height="4.97"/>
						<rect x="491.67" y="300.56" class="st1" width="1.47" height="4.97"/>
					</g>
					<g>
						<rect x="516.54" y="274.59" class="st1" width="1.47" height="4.97"/>
						<rect x="516.54" y="283.25" class="st1" width="1.47" height="4.97"/>
						<rect x="516.54" y="291.9" class="st1" width="1.47" height="4.97"/>
						<rect x="516.54" y="300.56" class="st1" width="1.47" height="4.97"/>
					</g>
					<path class="st1" d="M417.27,266.04"/>
					<path class="st1" d="M523.73,235.35v-5.83c0,0,12.9,0.39,12.61,0.1v5.64"/>
					<line class="st1" x1="526.5" y1="224.91" x2="533.77" y2="224.91"/>
					<line class="st1" x1="532.57" y1="215.98" x2="532.57" y2="224.58"/>
					<path class="st1" d="M532.96,215.96c0,0-5.67-0.4-5.25,0.02v8.6"/>
					<line class="st1" x1="520.55" y1="251.47" x2="539.45" y2="251.47"/>
					<line class="st1" x1="520.52" y1="236.83" x2="539.34" y2="236.83"/>
				</g>
				<g>
					<path class="st1" d="M250.18,311.1v-12.05h-5.28v-40.14h0.95v-1.11h1.36v-3.63h-2.31v-10.79v-0.27v-6.48h-0.02l-1.69-5.94
						v-1.98h0.55v-0.31h-0.55v-0.82h-0.25v0.82h-0.57v0.31h0.57v1.98l-1.69,5.94v6.48h-1.65v-7.59l-3.4-11.94v-3.98h1.11v-0.62
						h-1.11v-1.65h-0.49v1.65h-1.15v0.62h1.15v3.98l-3.4,11.94v7.59h-1.73v-6.48h-0.01l-1.69-5.94v-1.98h0.55v-0.31h-0.55v-0.82
						h-0.25v0.82h-0.57v0.31h0.57v1.98l-1.69,5.94h-0.01v6.48v0.27v4.39h-11.63v-0.99v-1.42h-0.74v1.42h-3.47v-1.42h-0.74v1.42v0.99
						h-24.75v-2.41h-1.42v2.41h-6.44v-2.41h-1.42v2.41h-24.75v-0.99v-1.42h-0.74v1.42h-3.47v-1.42h-0.74v1.42v0.99h-11.59v-4.39
						v-0.27v-6.48h-0.02l-1.69-5.94v-1.98h0.55v-0.31h-0.55v-0.82h-0.25v0.82h-0.57v0.31h0.57v1.98l-1.69,5.94v6.48h-1.65v-7.59
						l-3.4-11.94v-3.98h1.11v-0.62h-1.11v-1.65h-0.49v1.65h-1.16v0.62h1.16v3.98l-3.4,11.94v7.59h-1.73v-6.48h-0.01l-1.69-5.94
						v-1.98h0.55v-0.31h-0.55v-0.82h-0.25v0.82h-0.57v0.31h0.57v1.98l-1.69,5.94h-0.01v6.48v0.27v10.79h-2.48v3.63h1.61v1.11h0.87
						v40.14h-5.94v12.05 M140.29,311.1v-3.55c1.61-4.46,38.12-23.27,38.12-23.27l-2.1-3.71l-39.73,18.48h-1.57v-40.14h0.95v-1.11
						h1.36v-2.6h9.28h4.95h24.75h9.28h24.75h4.95h9.16v2.6h1.61v1.11h0.87v40.14h-1.61l-39.72-18.48l-2.1,3.71
						c0,0,32.43,16.71,37.5,22.36v4.45 M135.01,251.5v-3.26h11.59v3.26H135.01z M151.55,251.5v-3.26h24.75v3.26H151.55z
						 M185.58,251.5v-3.26h24.75v3.26H185.58z M215.28,248.24h11.63v3.26h-11.63V248.24z"/>
					<g>
						<line class="st1" x1="231.85" y1="262.12" x2="231.85" y2="265.25"/>
						<line class="st1" x1="234.16" y1="262.12" x2="234.16" y2="265.25"/>
						<line class="st1" x1="231.85" y1="267.74" x2="231.85" y2="270.87"/>
						<line class="st1" x1="234.16" y1="267.74" x2="234.16" y2="270.87"/>
						<line class="st1" x1="231.85" y1="273.35" x2="231.85" y2="276.49"/>
						<line class="st1" x1="234.16" y1="273.35" x2="234.16" y2="276.49"/>
						<line class="st1" x1="231.85" y1="278.97" x2="231.85" y2="282.1"/>
						<line class="st1" x1="234.16" y1="278.97" x2="234.16" y2="282.1"/>
						<line class="st1" x1="231.85" y1="284.99" x2="231.85" y2="288.12"/>
						<line class="st1" x1="234.16" y1="284.99" x2="234.16" y2="288.12"/>
						<line class="st1" x1="231.85" y1="290.61" x2="231.85" y2="293.74"/>
						<line class="st1" x1="234.16" y1="290.61" x2="234.16" y2="293.74"/>
					</g>
					<g>
						<line class="st1" x1="236.83" y1="262.12" x2="236.83" y2="265.25"/>
						<line class="st1" x1="239.13" y1="262.12" x2="239.13" y2="265.25"/>
						<line class="st1" x1="236.83" y1="267.74" x2="236.83" y2="270.87"/>
						<line class="st1" x1="239.13" y1="267.74" x2="239.13" y2="270.87"/>
						<line class="st1" x1="236.83" y1="273.35" x2="236.83" y2="276.49"/>
						<line class="st1" x1="239.13" y1="273.35" x2="239.13" y2="276.49"/>
						<line class="st1" x1="236.83" y1="278.97" x2="236.83" y2="282.1"/>
						<line class="st1" x1="239.13" y1="278.97" x2="239.13" y2="282.1"/>
						<line class="st1" x1="236.83" y1="284.99" x2="236.83" y2="288.12"/>
						<line class="st1" x1="239.13" y1="284.99" x2="239.13" y2="288.12"/>
						<line class="st1" x1="236.83" y1="290.61" x2="236.83" y2="293.74"/>
						<line class="st1" x1="239.13" y1="290.61" x2="239.13" y2="293.74"/>
					</g>
					<line class="st1" x1="232.3" y1="235.53" x2="239.69" y2="235.53"/>
					<line class="st1" x1="226.92" y1="243.12" x2="244.9" y2="243.12"/>
					<line class="st1" x1="226.92" y1="251.5" x2="244.66" y2="251.5"/>
					<path class="st1" d="M244.9,254.18"/>
					<polyline class="st1" points="224.44,255.21 244.9,255.21 244.9,253.59 					"/>
					<line class="st1" x1="226.05" y1="257.81" x2="245.85" y2="257.81"/>
					<line class="st1" x1="226.92" y1="258.92" x2="244.75" y2="258.92"/>
					<line class="st1" x1="230.11" y1="246.59" x2="230.11" y2="248.62"/>
					<line class="st1" x1="232.87" y1="246.59" x2="232.87" y2="248.62"/>
					<line class="st1" x1="235.63" y1="246.59" x2="235.63" y2="248.62"/>
					<line class="st1" x1="238.4" y1="246.59" x2="238.4" y2="248.62"/>
					<line class="st1" x1="241.16" y1="246.59" x2="241.16" y2="248.62"/>
					<line class="st1" x1="226.92" y1="299.06" x2="244.9" y2="299.06"/>
					<polyline class="st1" points="225.31,299.06 220.98,306.65 249.82,306.65 					"/>
					<g>
						<line class="st1" x1="122.07" y1="262.12" x2="122.07" y2="265.25"/>
						<line class="st1" x1="124.38" y1="262.12" x2="124.38" y2="265.25"/>
						<line class="st1" x1="122.07" y1="267.74" x2="122.07" y2="270.87"/>
						<line class="st1" x1="124.38" y1="267.74" x2="124.38" y2="270.87"/>
						<line class="st1" x1="122.07" y1="273.35" x2="122.07" y2="276.49"/>
						<line class="st1" x1="124.38" y1="273.35" x2="124.38" y2="276.49"/>
						<line class="st1" x1="122.07" y1="278.97" x2="122.07" y2="282.1"/>
						<line class="st1" x1="124.38" y1="278.97" x2="124.38" y2="282.1"/>
						<line class="st1" x1="122.07" y1="284.99" x2="122.07" y2="288.12"/>
						<line class="st1" x1="124.38" y1="284.99" x2="124.38" y2="288.12"/>
						<line class="st1" x1="122.07" y1="290.61" x2="122.07" y2="293.74"/>
						<line class="st1" x1="124.38" y1="290.61" x2="124.38" y2="293.74"/>
					</g>
					<g>
						<line class="st1" x1="127.04" y1="262.12" x2="127.04" y2="265.25"/>
						<line class="st1" x1="129.35" y1="262.12" x2="129.35" y2="265.25"/>
						<line class="st1" x1="127.04" y1="267.74" x2="127.04" y2="270.87"/>
						<line class="st1" x1="129.35" y1="267.74" x2="129.35" y2="270.87"/>
						<line class="st1" x1="127.04" y1="273.35" x2="127.04" y2="276.49"/>
						<line class="st1" x1="129.35" y1="273.35" x2="129.35" y2="276.49"/>
						<line class="st1" x1="127.04" y1="278.97" x2="127.04" y2="282.1"/>
						<line class="st1" x1="129.35" y1="278.97" x2="129.35" y2="282.1"/>
						<line class="st1" x1="127.04" y1="284.99" x2="127.04" y2="288.12"/>
						<line class="st1" x1="129.35" y1="284.99" x2="129.35" y2="288.12"/>
						<line class="st1" x1="127.04" y1="290.61" x2="127.04" y2="293.74"/>
						<line class="st1" x1="129.35" y1="290.61" x2="129.35" y2="293.74"/>
					</g>
					<line class="st1" x1="122.52" y1="235.53" x2="129.9" y2="235.53"/>
					<line class="st1" x1="117.13" y1="243.12" x2="135.12" y2="243.12"/>
					<line class="st1" x1="117.13" y1="251.5" x2="134.88" y2="251.5"/>
					<path class="st1" d="M135.12,254.18"/>
					<polyline class="st1" points="137.61,255.21 117.14,255.21 117.14,253.59 					"/>
					<line class="st1" x1="116.27" y1="257.81" x2="136.07" y2="257.81"/>
					<line class="st1" x1="117.13" y1="258.92" x2="134.97" y2="258.92"/>
					<line class="st1" x1="120.32" y1="246.59" x2="120.32" y2="248.62"/>
					<line class="st1" x1="123.09" y1="246.59" x2="123.09" y2="248.62"/>
					<line class="st1" x1="125.85" y1="246.59" x2="125.85" y2="248.62"/>
					<line class="st1" x1="128.61" y1="246.59" x2="128.61" y2="248.62"/>
					<line class="st1" x1="131.38" y1="246.59" x2="131.38" y2="248.62"/>
					<line class="st1" x1="117.13" y1="299.06" x2="135.12" y2="299.06"/>
					<polyline class="st1" points="136.09,299.06 140.49,307.1 111.19,307.1 					"/>
					<line class="st1" x1="185.9" y1="285.27" x2="188.3" y2="281.77"/>
					<line class="st1" x1="146.6" y1="251.5" x2="215.19" y2="251.5"/>
					<path class="st1" d="M158.45,214.54"/>
					<line class="st1" x1="173.37" y1="282.33" x2="175.22" y2="285.64"/>
				</g>
			</g>
			<line class="st1" x1="0" y1="311.1" x2="627.69" y2="311.1"/>
		</g>
		<g>
			<path class="st6" d="M19.78,304.8c-5.33,0-9.65,5.1-9.65,11.38v10.64c0,3.96,2.72,7.18,6.08,7.18h7.13
				c3.36,0,6.08-3.21,6.08-7.18v-10.64C29.43,309.9,25.11,304.8,19.78,304.8z"/>
			<line class="st5" x1="19.15" y1="324.06" x2="19.15" y2="346.43"/>
			<line class="st5" x1="19.15" y1="329.03" x2="22.42" y2="325.77"/>
		</g>
		<g>
			<path class="st6" d="M160.51,304.8c-5.33,0-9.65,5.1-9.65,11.38v10.64c0,3.96,2.72,7.18,6.08,7.18h7.13
				c3.36,0,6.08-3.21,6.08-7.18v-10.64C170.16,309.9,165.84,304.8,160.51,304.8z"/>
			<line class="st5" x1="159.88" y1="324.06" x2="159.88" y2="346.43"/>
			<line class="st5" x1="159.88" y1="329.03" x2="163.15" y2="325.77"/>
		</g>
		<g>
			<path class="st6" d="M72.83,355.72c-5.33,0-9.65,5.1-9.65,11.38v10.64c0,3.96,2.72,7.18,6.08,7.18h7.13
				c3.36,0,6.08-3.21,6.08-7.18V367.1C82.48,360.82,78.16,355.72,72.83,355.72z"/>
			<line class="st5" x1="72.2" y1="374.98" x2="72.2" y2="397.35"/>
			<line class="st5" x1="72.2" y1="379.95" x2="75.47" y2="376.69"/>
		</g>
		<g>
			<path class="st6" d="M230,355.72c-5.33,0-9.65,5.1-9.65,11.38v10.64c0,3.96,2.72,7.18,6.08,7.18h7.13c3.36,0,6.08-3.21,6.08-7.18
				V367.1C239.65,360.82,235.33,355.72,230,355.72z"/>
			<line class="st5" x1="229.38" y1="374.98" x2="229.38" y2="397.35"/>
			<line class="st5" x1="229.38" y1="379.95" x2="232.64" y2="376.69"/>
		</g>
		<g>
			<path class="st6" d="M387.17,355.72c-5.33,0-9.65,5.1-9.65,11.38v10.64c0,3.96,2.72,7.18,6.08,7.18h7.13
				c3.36,0,6.08-3.21,6.08-7.18V367.1C396.82,360.82,392.5,355.72,387.17,355.72z"/>
			<line class="st5" x1="386.55" y1="374.98" x2="386.55" y2="397.35"/>
			<line class="st5" x1="386.55" y1="379.95" x2="389.81" y2="376.69"/>
		</g>
		<g>
			<path class="st6" d="M544.34,355.72c-5.33,0-9.65,5.1-9.65,11.38v10.64c0,3.96,2.72,7.18,6.08,7.18h7.13
				c3.36,0,6.08-3.21,6.08-7.18V367.1C553.99,360.82,549.67,355.72,544.34,355.72z"/>
			<line class="st5" x1="543.72" y1="374.98" x2="543.72" y2="397.35"/>
			<line class="st5" x1="543.72" y1="379.95" x2="546.98" y2="376.69"/>
		</g>
		<g>
			<path class="st6" d="M331.44,304.8c-5.33,0-9.65,5.1-9.65,11.38v10.64c0,3.96,2.72,7.18,6.08,7.18h7.13
				c3.36,0,6.08-3.21,6.08-7.18v-10.64C341.09,309.9,336.77,304.8,331.44,304.8z"/>
			<line class="st5" x1="330.82" y1="324.06" x2="330.82" y2="346.43"/>
			<line class="st5" x1="330.82" y1="329.03" x2="334.08" y2="325.77"/>
		</g>
		<g>
			<path class="st6" d="M450.3,304.8c-5.33,0-9.65,5.1-9.65,11.38v10.64c0,3.96,2.72,7.18,6.08,7.18h7.13
				c3.36,0,6.08-3.21,6.08-7.18v-10.64C459.95,309.9,455.63,304.8,450.3,304.8z"/>
			<line class="st5" x1="449.68" y1="324.06" x2="449.68" y2="346.43"/>
			<line class="st5" x1="449.68" y1="329.03" x2="452.94" y2="325.77"/>
		</g>
		<g>
			<path class="st6" d="M595.11,304.8c-5.33,0-9.65,5.1-9.65,11.38v10.64c0,3.96,2.72,7.18,6.08,7.18h7.13
				c3.36,0,6.08-3.21,6.08-7.18v-10.64C604.76,309.9,600.44,304.8,595.11,304.8z"/>
			<line class="st5" x1="594.49" y1="324.06" x2="594.49" y2="346.43"/>
			<line class="st5" x1="594.49" y1="329.03" x2="597.75" y2="325.77"/>
		</g>
	</g>
</g>
</svg>
