<?xml version="1.0" encoding="iso-8859-1"?>
<!-- Generator: Adobe Illustrator 19.0.0, SVG Export Plug-In . SVG Version: 6.00 Build 0)  -->
<svg version="1.1" id="Capa_1" xmlns="http://www.w3.org/2000/svg" xmlns:xlink="http://www.w3.org/1999/xlink" x="0px" y="0px"
	 viewBox="0 0 413.28 413.28" style="enable-background:new 0 0 413.28 413.28;" xml:space="preserve">
<path style="fill:#FFFFFF;" d="M333.68,393.68H60.64v-328h286.64l-6.4,5.28c-4.656,3.862-7.306,9.631-7.2,15.68V393.68z"/>
<path style="fill:#BAC6F4;" d="M333.52,111.84v-19.6c0-14.845,12.035-26.88,26.88-26.88l0,0H73.28l-8,12.32
	c-2.822,4.331-4.323,9.39-4.32,14.56v19.6H18.32c-5.7,0-10.32-4.62-10.32-10.32v-71.6c0-5.7,4.62-10.32,10.32-10.32h376.64
	c5.7,0,10.32,4.62,10.32,10.32v0v71.52c0,5.7-4.62,10.32-10.32,10.32L333.52,111.84z"/>
<g>
	<path style="fill:#223E60;" d="M106.48,385.68H86.16c-4.418,0-8,3.582-8,8s3.582,8,8,8h20.32c4.418,0,8-3.582,8-8
		S110.898,385.68,106.48,385.68z"/>
	<path style="fill:#223E60;" d="M156.56,385.68h-20.32c-4.418,0-8,3.582-8,8s3.582,8,8,8h20.32c4.418,0,8-3.582,8-8
		S160.978,385.68,156.56,385.68L156.56,385.68z"/>
	<path style="fill:#223E60;" d="M206.64,385.68h-20.32c-4.418,0-8,3.582-8,8s3.582,8,8,8h20.32c4.418,0,8-3.582,8-8
		S211.058,385.68,206.64,385.68z"/>
	<path style="fill:#223E60;" d="M256.72,385.68H236.4c-4.418,0-8,3.582-8,8s3.582,8,8,8h20.32c4.418,0,8-3.582,8-8
		S261.138,385.68,256.72,385.68z"/>
	<path style="fill:#223E60;" d="M306.8,385.68h-20.16c-4.418,0-8,3.582-8,8s3.582,8,8,8h20.32c4.418,0,8-3.582,8-8s-3.582-8-8-8
		H306.8z"/>
	<path style="fill:#223E60;" d="M394.96,11.6H18.32C8.22,11.644,0.044,19.82,0,29.92v71.52c0.044,10.1,8.22,18.276,18.32,18.32
		h34.64v273.92c0,4.418,3.582,8,8,8s8-3.582,8-8V92.24c0-10.427,8.453-18.88,18.88-18.88l0,0h243.28
		c-3.65,5.621-5.595,12.178-5.6,18.88l-0.48,301.44c0,4.418,3.582,8,8,8s8-3.582,8-8l0.48-273.84h53.44
		c10.1-0.044,18.276-8.22,18.32-18.32v-71.6C413.236,19.82,405.06,11.644,394.96,11.6L394.96,11.6z M397.28,101.52
		c0,1.281-1.039,2.32-2.32,2.32l0,0h-53.44v-11.6c0-10.427,8.453-18.88,18.88-18.88l0,0h8c4.418,0,8-3.582,8-8s-3.582-8-8-8H42.88
		c-4.418,0-8,3.582-8,8s3.582,8,8,8h16c-3.686,5.608-5.66,12.169-5.68,18.88v11.6H18.32c-1.281,0-2.32-1.039-2.32-2.32l0,0v-71.6
		c0-1.281,1.039-2.32,2.32-2.32h376.64c1.281,0,2.32,1.039,2.32,2.32v0L397.28,101.52z"/>
	<path style="fill:#223E60;" d="M111.84,162.64h89.92c4.418,0,8-3.582,8-8s-3.582-8-8-8h-89.92c-4.418,0-8,3.582-8,8
		S107.422,162.64,111.84,162.64z"/>
	<path style="fill:#223E60;" d="M236.4,162.64h44.64c4.418,0,8-3.582,8-8s-3.582-8-8-8H236.4c-4.418,0-8,3.582-8,8
		S231.982,162.64,236.4,162.64z"/>
	<path style="fill:#223E60;" d="M111.84,209.28h89.92c4.418,0,8-3.582,8-8s-3.582-8-8-8h-89.92c-4.418,0-8,3.582-8,8
		S107.422,209.28,111.84,209.28z"/>
	<path style="fill:#223E60;" d="M236.4,209.28h44.64c4.418,0,8-3.582,8-8s-3.582-8-8-8H236.4c-4.418,0-8,3.582-8,8
		S231.982,209.28,236.4,209.28z"/>
	<path style="fill:#223E60;" d="M111.84,256h89.92c4.418,0,8-3.582,8-8s-3.582-8-8-8h-89.92c-4.418,0-8,3.582-8,8
		S107.422,256,111.84,256z"/>
	<path style="fill:#223E60;" d="M236.4,256h44.64c4.418,0,8-3.582,8-8s-3.582-8-8-8H236.4c-4.418,0-8,3.582-8,8
		S231.982,256,236.4,256z"/>
</g>
<g>
</g>
<g>
</g>
<g>
</g>
<g>
</g>
<g>
</g>
<g>
</g>
<g>
</g>
<g>
</g>
<g>
</g>
<g>
</g>
<g>
</g>
<g>
</g>
<g>
</g>
<g>
</g>
<g>
</g>
</svg>
