<?xml version="1.0" encoding="utf-8"?>
<!-- Generator: Adobe Illustrator 24.0.0, SVG Export Plug-In . SVG Version: 6.00 Build 0)  -->
<svg version="1.1" id="Capa_1" xmlns="http://www.w3.org/2000/svg" xmlns:xlink="http://www.w3.org/1999/xlink" x="0px" y="0px"
	 viewBox="0 0 512 512" style="enable-background:new 0 0 512 512;" xml:space="preserve">
<style type="text/css">
	.st0{fill:#31CFFF;}
	.st1{fill:#E371FF;}
	.st2{fill:#2D2220;}
</style>
<rect x="390.2" y="444.5" class="st0" width="14.2" height="26.8"/>
<rect x="397" y="405.2" class="st0" width="15" height="26.8"/>
<rect x="417.2" y="365.9" class="st0" width="18.9" height="33.1"/>
<rect x="390.2" y="323" class="st0" width="21.7" height="26.8"/>
<rect x="412" y="280.9" class="st0" width="16.2" height="33.3"/>
<rect x="449" y="245.1" class="st0" width="16.2" height="33.2"/>
<rect x="390.2" y="201" class="st0" width="21.7" height="32.5"/>
<rect x="412.2" y="166.6" class="st0" width="10" height="29.3"/>
<rect x="300.5" y="447" class="st0" width="13.5" height="48"/>
<rect x="300.5" y="19" class="st0" width="13.5" height="295.1"/>
<g>
	<path class="st1" d="M460.2,235.5h-33.6c0.4-1.6,0.7-3.3,0.7-5v-14.3c0-2.1-0.3-4.1-0.9-6c8-2.6,13.9-10.1,13.9-19V177
		c0-11-9-20-20-20H390c-4.1,0-7.5,3.4-7.5,7.5s3.4,7.5,7.5,7.5h30.2c2.8,0,5,2.2,5,5v14.3c0,2.8-2.2,5-5,5c-11.5,0-79,0-92.6,0V172
		H360c4.1,0,7.5-3.4,7.5-7.5s-3.4-7.5-7.5-7.5h-32.4V10c0-3-1.7-5.6-4.4-6.8c-2.7-1.2-5.9-0.7-8.1,1.3l-28.5,25.5L258.1,4.4
		c-2.8-2.6-7.2-2.6-10,0l-28.5,25.5L191.2,4.4c-2.9-2.6-7.2-2.6-10,0l-28.5,25.5L124.3,4.4c-2.8-2.6-7.2-2.6-10,0L85.8,29.9
		L57.4,4.4c-2.2-2-5.4-2.5-8.1-1.3C46.6,4.4,44.8,7,44.8,10v75.8c0,4.1,3.4,7.5,7.5,7.5c4.1,0,7.5-3.4,7.5-7.5v-59l20.9,18.8
		c2.8,2.6,7.2,2.6,10,0l28.5-25.5l28.5,25.5c2.9,2.6,7.2,2.6,10,0l28.5-25.5l28.5,25.5c2.9,2.6,7.2,2.6,10,0l28.5-25.5l28.5,25.5
		c2.8,2.6,7.2,2.6,10,0l21-18.8v284.9c-12.3-7.2-26.6-11.4-41.9-11.4c-25.1,0-47.6,11.2-62.8,28.8h-88c-4.1,0-7.5,3.4-7.5,7.5
		s3.4,7.5,7.5,7.5h77.6c-5.4,10-8.8,21.3-9.7,33.2h-68c-4.1,0-7.5,3.4-7.5,7.5s3.4,7.5,7.5,7.5H188c1,9.3,3.5,18.3,7.6,26.8
		c1.8,3.7,6.3,5.3,10,3.5c3.7-1.8,5.3-6.3,3.5-10c-4.4-9.2-6.6-19-6.6-29.3c0-37.5,30.5-68.1,68.1-68.1s68.1,30.5,68.1,68.1
		s-30.5,68.1-68.1,68.1c-16.6,0-32.6-6.1-45.1-17.1c-3.1-2.7-7.8-2.5-10.6,0.6c-2.7,3.1-2.5,7.8,0.6,10.6
		c15.2,13.4,34.7,20.8,55,20.8c15.3,0,29.6-4.2,41.9-11.4v35.1l-21-18.8c-2.8-2.6-7.2-2.6-10,0l-28.5,25.5l-28.5-25.5
		c-2.9-2.6-7.2-2.6-10,0l-28.5,25.5l-28.5-25.5c-2.9-2.6-7.2-2.6-10,0l-28.5,25.5l-28.4-25.5c-2.8-2.6-7.2-2.6-10,0l-20.9,18.8
		V115.8c0-4.1-3.4-7.5-7.5-7.5c-4.1,0-7.5,3.4-7.5,7.5V507c0,3,1.7,5.6,4.4,6.8c2.7,1.2,5.9,0.7,8.1-1.3l28.4-25.5l28.5,25.5
		c2.8,2.6,7.2,2.6,10,0l28.5-25.5l28.5,25.5c2.9,2.6,7.2,2.6,10,0l28.5-25.5l28.5,25.5c2.9,2.6,7.2,2.6,10,0l28.5-25.5l28.5,25.5
		c2.2,2,5.4,2.5,8.1,1.3c2.7-1.2,4.4-3.9,4.4-6.8v-20.7h79.6c11,0,20-9,20-20V452c0-4.7-1.7-9.1-4.4-12.5c2.8-3.4,4.4-7.8,4.4-12.5
		v-14.3c0-1.8-0.3-3.6-0.7-5.3c9.5-1.6,16.7-9.8,16.7-19.7v-14.3c0-9.9-7.3-18.1-16.7-19.7c0.5-1.7,0.7-3.5,0.7-5.3v-14.3
		c0-1.8-0.3-3.6-0.7-5.3c9.5-1.6,16.7-9.8,16.7-19.7v-14.3c0-1.7-0.2-3.4-0.7-5h17.6c11,0,20-9,20-20v-14.3
		C480.2,244.5,471.2,235.6,460.2,235.5L460.2,235.5z M407.2,211.3c2.8,0,5,2.2,5,5v14.3c0,2.8-2.2,5-5,5c-16.3,0-63.3,0-79.6,0
		v-24.3L407.2,211.3z M344.5,274.8h-16.9v-24.3h16.9c-0.4,1.6-0.7,3.3-0.7,5v14.3C343.8,271.6,344,273.2,344.5,274.8z M412.2,334.1
		v14.3c0,2.8-2.2,5-5,5h-59.1c-3.5-9-8.5-17.2-14.7-24.3h73.7C409.9,329.1,412.2,331.4,412.2,334.1z M412.2,412.7V427
		c0,2.8-2.2,5-5,5H338c5.3-7.3,9.4-15.5,12.1-24.3h57.1C409.9,407.7,412.2,410,412.2,412.7z M412.2,466.3c0,2.8-2.2,5-5,5h-79.6V447
		h79.6c2.8,0,5,2.2,5,5V466.3z M428.2,373.4v14.3c0,2.8-2.2,5-5,5c-20.2,0-47.2,0-70,0c0.3-3.1,0.5-6.1,0.5-9.3
		c0-5.1-0.5-10.1-1.4-15h70.8C425.9,368.4,428.2,370.7,428.2,373.4z M428.2,294.8v14.3c0,2.8-2.2,5-5,5c-14.8,0-84.1,0-95.6,0v-24.3
		h95.6C425.9,289.8,428.2,292.1,428.2,294.8L428.2,294.8z M465.2,269.8c0,2.8-2.2,5-5,5c-11.9,0-85.9,0-96.4,0c-2.8,0-5-2.2-5-5
		v-14.3c0-2.8,2.2-5,5-5h96.4c2.8,0,5,2.2,5,5V269.8z"/>
	<path class="st1" d="M91.4,152.7c-3.5-2.3-8.1-1.3-10.4,2.2s-1.3,8.1,2.2,10.4c6.7,4.4,11.5,6,17.6,6.6v4.3c0,4.1,3.4,7.5,7.5,7.5
		s7.5-3.4,7.5-7.5v-5.1c12.1-3.1,19.9-13.5,21.6-23.7c2.2-13.2-5-25.2-17.9-29.7c-1.2-0.4-2.5-0.9-3.7-1.3V92.6
		c5.9,0.8,10.3,3,10.5,3c3.7,1.8,8.2,0.3,10-3.4c1.9-3.7,0.4-8.2-3.3-10.1c-0.4-0.2-7.6-3.8-17.2-4.7v-3.3c0-4.1-3.4-7.5-7.5-7.5
		s-7.5,3.4-7.5,7.5v4.4c-0.4,0.1-0.8,0.2-1.2,0.3c-8.7,2.6-15.2,10.1-17,19.4c-1.6,8.6,1.2,16.9,7.3,21.7c2.8,2.2,6.3,4.3,10.9,6.4
		v30.4C97.6,156.3,95.2,155.2,91.4,152.7L91.4,152.7z M122.5,144.9c-0.6,3.8-2.9,7.8-6.8,10.1v-22.7
		C123.2,135.6,123,142.2,122.5,144.9z M99.1,108.2c-1.7-1.3-2.4-4.1-1.8-7.1c0.4-2.1,1.5-4.5,3.4-6.1v14.4
		C100.2,109,99.6,108.6,99.1,108.2z"/>
	<path class="st1" d="M195.4,116.1h35.2c4.1,0,7.5-3.4,7.5-7.5s-3.4-7.5-7.5-7.5h-35.2c-4.1,0-7.5,3.4-7.5,7.5
		S191.3,116.1,195.4,116.1z"/>
	<path class="st1" d="M195.4,152.4h75.2c4.1,0,7.5-3.4,7.5-7.5s-3.4-7.5-7.5-7.5h-75.2c-4.1,0-7.5,3.4-7.5,7.5
		S191.3,152.4,195.4,152.4L195.4,152.4z"/>
	<path class="st1" d="M112.3,240.1c0,4.1,3.4,7.5,7.5,7.5h132.7c4.1,0,7.5-3.4,7.5-7.5s-3.4-7.5-7.5-7.5H119.8
		C115.7,232.6,112.3,236,112.3,240.1z"/>
	<path class="st1" d="M252.5,280.9H119.8c-4.1,0-7.5,3.4-7.5,7.5s3.4,7.5,7.5,7.5h132.7c4.1,0,7.5-3.4,7.5-7.5
		S256.7,280.9,252.5,280.9z"/>
</g>
<g>
	<path class="st2" d="M453.7,233.1H420c0.4-1.6,0.7-3.3,0.7-5v-14.3c0-2.1-0.3-4.1-0.9-6c8-2.6,13.9-10.1,13.9-19v-14.3
		c0-11-9-20-20-20h-30.2c-4.1,0-7.5,3.4-7.5,7.5s3.4,7.5,7.5,7.5h30.2c2.8,0,5,2.2,5,5v14.3c0,2.8-2.2,5-5,5c-11.5,0-79,0-92.6,0
		v-24.3h32.4c4.1,0,7.5-3.4,7.5-7.5s-3.4-7.5-7.5-7.5H321V7.5c0-3-1.7-5.6-4.4-6.8c-2.7-1.2-5.9-0.7-8.1,1.3l-28.5,25.5L251.6,1.9
		c-2.8-2.6-7.2-2.6-10,0l-28.5,25.5L184.7,1.9c-2.9-2.6-7.2-2.6-10,0l-28.5,25.5L117.8,1.9c-2.8-2.6-7.2-2.6-10,0L79.3,27.4
		L50.9,1.9c-2.2-2-5.4-2.5-8.1-1.3c-2.7,1.2-4.4,3.9-4.4,6.8v75.8c0,4.1,3.4,7.5,7.5,7.5s7.5-3.4,7.5-7.5v-59l20.9,18.8
		c2.8,2.6,7.2,2.6,10,0l28.5-25.5l28.5,25.5c2.9,2.6,7.2,2.6,10,0l28.5-25.5l28.5,25.5c2.9,2.6,7.2,2.6,10,0l28.5-25.5l28.5,25.5
		c2.8,2.6,7.2,2.6,10,0l21-18.8v284.9c-12.3-7.2-26.6-11.4-41.9-11.4c-25.1,0-47.6,11.2-62.8,28.8h-88c-4.1,0-7.5,3.4-7.5,7.5
		s3.4,7.5,7.5,7.5H191c-5.4,10-8.8,21.3-9.7,33.2h-68c-4.1,0-7.5,3.4-7.5,7.5s3.4,7.5,7.5,7.5h68.2c1,9.3,3.5,18.3,7.6,26.8
		c1.8,3.7,6.3,5.3,10,3.5c3.7-1.8,5.3-6.3,3.5-10c-4.4-9.2-6.6-19-6.6-29.3c0-37.5,30.5-68.1,68.1-68.1s68.1,30.5,68.1,68.1
		S301.7,449,264.1,449c-16.6,0-32.6-6.1-45.1-17.1c-3.1-2.7-7.8-2.5-10.6,0.6c-2.7,3.1-2.5,7.8,0.6,10.6
		c15.2,13.4,34.7,20.8,55,20.8c15.3,0,29.6-4.2,41.9-11.4v35.1l-21-18.8c-2.8-2.6-7.2-2.6-10,0l-28.5,25.5l-28.5-25.5
		c-2.9-2.6-7.2-2.6-10,0l-28.5,25.5l-28.5-25.5c-2.9-2.6-7.2-2.6-10,0l-28.5,25.5l-28.4-25.5c-2.8-2.6-7.2-2.6-10,0l-20.9,18.8
		V113.3c0-4.1-3.4-7.5-7.5-7.5s-7.5,3.4-7.5,7.5v391.2c0,3,1.7,5.6,4.4,6.8c2.7,1.2,5.9,0.7,8.1-1.3l28.4-25.5l28.5,25.5
		c2.8,2.6,7.2,2.6,10,0l28.5-25.5l28.5,25.5c2.9,2.6,7.2,2.6,10,0l28.5-25.5l28.5,25.5c2.9,2.6,7.2,2.6,10,0l28.5-25.5l28.5,25.5
		c2.2,2,5.4,2.5,8.1,1.3c2.7-1.2,4.4-3.9,4.4-6.8v-20.7h79.6c11,0,20-9,20-20v-14.3c0-4.7-1.7-9.1-4.4-12.5
		c2.8-3.4,4.4-7.8,4.4-12.5v-14.3c0-1.8-0.3-3.6-0.7-5.3c9.5-1.6,16.7-9.8,16.7-19.7v-14.3c0-9.9-7.3-18.1-16.7-19.7
		c0.5-1.7,0.7-3.5,0.7-5.3v-14.3c0-1.8-0.3-3.6-0.7-5.3c9.5-1.6,16.7-9.8,16.7-19.7v-14.3c0-1.7-0.2-3.4-0.7-5h17.6c11,0,20-9,20-20
		V253C473.7,242,464.7,233.1,453.7,233.1L453.7,233.1z M400.7,208.8c2.8,0,5,2.2,5,5v14.3c0,2.8-2.2,5-5,5c-16.3,0-63.3,0-79.6,0
		v-24.3L400.7,208.8z M338,272.3H321v-24.3H338c-0.4,1.6-0.7,3.3-0.7,5v14.3C337.3,269.1,337.5,270.7,338,272.3z M405.7,331.6v14.3
		c0,2.8-2.2,5-5,5h-59.1c-3.5-9-8.5-17.2-14.7-24.3h73.7C403.4,326.6,405.7,328.9,405.7,331.6z M405.7,410.2v14.3c0,2.8-2.2,5-5,5
		h-69.2c5.3-7.3,9.4-15.5,12.1-24.3h57.1C403.4,405.2,405.7,407.5,405.7,410.2z M405.7,463.8c0,2.8-2.2,5-5,5H321v-24.3h79.6
		c2.8,0,5,2.2,5,5V463.8z M421.7,370.9v14.3c0,2.8-2.2,5-5,5c-20.2,0-47.2,0-70,0c0.3-3.1,0.5-6.1,0.5-9.3c0-5.1-0.5-10.1-1.4-15
		h70.8C419.4,365.9,421.7,368.2,421.7,370.9z M421.7,292.3v14.3c0,2.8-2.2,5-5,5c-14.8,0-84.1,0-95.6,0v-24.3h95.6
		C419.4,287.3,421.7,289.6,421.7,292.3L421.7,292.3z M458.7,267.3c0,2.8-2.2,5-5,5c-11.9,0-85.9,0-96.4,0c-2.8,0-5-2.2-5-5V253
		c0-2.8,2.2-5,5-5h96.4c2.8,0,5,2.2,5,5V267.3z"/>
	<path class="st2" d="M84.9,150.2c-3.5-2.3-8.1-1.3-10.4,2.2s-1.3,8.1,2.2,10.4c6.7,4.4,11.5,6,17.6,6.6v4.3c0,4.1,3.4,7.5,7.5,7.5
		s7.5-3.4,7.5-7.5v-5.1c12.1-3.1,19.9-13.5,21.6-23.7c2.2-13.2-5-25.2-17.9-29.7c-1.2-0.4-2.5-0.9-3.7-1.3V90.1
		c5.9,0.8,10.3,3,10.5,3c3.7,1.8,8.2,0.3,10-3.4c1.9-3.7,0.4-8.2-3.3-10.1c-0.4-0.2-7.6-3.8-17.2-4.7v-3.3c0-4.1-3.4-7.5-7.5-7.5
		s-7.5,3.4-7.5,7.5v4.4c-0.4,0.1-0.8,0.2-1.2,0.3c-8.7,2.6-15.2,10.1-17,19.4c-1.6,8.6,1.2,16.9,7.3,21.7c2.8,2.2,6.3,4.3,10.9,6.4
		v30.4C91.1,153.8,88.7,152.7,84.9,150.2L84.9,150.2z M116,142.4c-0.6,3.8-2.9,7.8-6.8,10.1v-22.7
		C116.7,133.1,116.5,139.7,116,142.4z M92.6,105.7c-1.7-1.3-2.4-4.1-1.8-7.1c0.4-2.1,1.5-4.5,3.4-6.1v14.4
		C93.7,106.5,93.1,106.1,92.6,105.7z"/>
	<path class="st2" d="M188.9,113.6h35.2c4.1,0,7.5-3.4,7.5-7.5s-3.4-7.5-7.5-7.5h-35.2c-4.1,0-7.5,3.4-7.5,7.5
		S184.8,113.6,188.9,113.6z"/>
	<path class="st2" d="M188.9,149.9h75.2c4.1,0,7.5-3.4,7.5-7.5s-3.4-7.5-7.5-7.5h-75.2c-4.1,0-7.5,3.4-7.5,7.5
		S184.8,149.9,188.9,149.9L188.9,149.9z"/>
	<path class="st2" d="M105.8,237.6c0,4.1,3.4,7.5,7.5,7.5H246c4.1,0,7.5-3.4,7.5-7.5s-3.4-7.5-7.5-7.5H113.3
		C109.2,230.1,105.8,233.5,105.8,237.6z"/>
	<path class="st2" d="M246,278.4H113.3c-4.1,0-7.5,3.4-7.5,7.5s3.4,7.5,7.5,7.5H246c4.1,0,7.5-3.4,7.5-7.5S250.2,278.4,246,278.4z"
		/>
</g>
<g>
	<path class="st2" d="M454.2,233.5h-33.6c0.4-1.6,0.7-3.3,0.7-5v-14.3c0-2.1-0.3-4.1-0.9-6c8-2.6,13.9-10.1,13.9-19V175
		c0-11-9-20-20-20H384c-4.1,0-7.5,3.4-7.5,7.5s3.4,7.5,7.5,7.5h30.2c2.8,0,5,2.2,5,5v14.3c0,2.8-2.2,5-5,5c-11.5,0-79,0-92.6,0V170
		H354c4.1,0,7.5-3.4,7.5-7.5s-3.4-7.5-7.5-7.5h-32.4V8c0-3-1.7-5.6-4.4-6.8c-2.7-1.2-5.9-0.7-8.1,1.3l-28.5,25.5L252.1,2.4
		c-2.8-2.6-7.2-2.6-10,0l-28.5,25.5L185.2,2.4c-2.9-2.6-7.2-2.6-10,0l-28.5,25.5L118.3,2.4c-2.8-2.6-7.2-2.6-10,0L79.8,27.9
		L51.4,2.4c-2.2-2-5.4-2.5-8.1-1.3C40.6,2.4,38.8,5,38.8,8v75.8c0,4.1,3.4,7.5,7.5,7.5c4.1,0,7.5-3.4,7.5-7.5v-59l20.9,18.8
		c2.8,2.6,7.2,2.6,10,0l28.5-25.5l28.5,25.5c2.9,2.6,7.2,2.6,10,0l28.5-25.5l28.5,25.5c2.9,2.6,7.2,2.6,10,0l28.5-25.5l28.5,25.5
		c2.8,2.6,7.2,2.6,10,0l21-18.8v284.9c-12.3-7.2-26.6-11.4-41.9-11.4c-25.1,0-47.6,11.2-62.8,28.8h-88c-4.1,0-7.5,3.4-7.5,7.5
		s3.4,7.5,7.5,7.5h77.6c-5.4,10-8.8,21.3-9.7,33.2h-68c-4.1,0-7.5,3.4-7.5,7.5s3.4,7.5,7.5,7.5H182c1,9.3,3.5,18.3,7.6,26.8
		c1.8,3.7,6.3,5.3,10,3.5c3.7-1.8,5.3-6.3,3.5-10c-4.4-9.2-6.6-19-6.6-29.3c0-37.5,30.5-68.1,68.1-68.1s68.1,30.5,68.1,68.1
		s-30.5,68.1-68.1,68.1c-16.6,0-32.6-6.1-45.1-17.1c-3.1-2.7-7.8-2.5-10.6,0.6c-2.7,3.1-2.5,7.8,0.6,10.6
		c15.2,13.4,34.7,20.8,55,20.8c15.3,0,29.6-4.2,41.9-11.4v35.1l-21-18.8c-2.8-2.6-7.2-2.6-10,0l-28.5,25.5l-28.5-25.5
		c-2.9-2.6-7.2-2.6-10,0l-28.5,25.5l-28.5-25.5c-2.9-2.6-7.2-2.6-10,0l-28.5,25.5l-28.4-25.5c-2.8-2.6-7.2-2.6-10,0l-20.9,18.8
		V113.8c0-4.1-3.4-7.5-7.5-7.5c-4.1,0-7.5,3.4-7.5,7.5V505c0,3,1.7,5.6,4.4,6.8c2.7,1.2,5.9,0.7,8.1-1.3l28.4-25.5l28.5,25.5
		c2.8,2.6,7.2,2.6,10,0l28.5-25.5l28.5,25.5c2.9,2.6,7.2,2.6,10,0l28.5-25.5l28.5,25.5c2.9,2.6,7.2,2.6,10,0l28.5-25.5l28.5,25.5
		c2.2,2,5.4,2.5,8.1,1.3c2.7-1.2,4.4-3.9,4.4-6.8v-20.7h79.6c11,0,20-9,20-20V450c0-4.7-1.7-9.1-4.4-12.5c2.8-3.4,4.4-7.8,4.4-12.5
		v-14.3c0-1.8-0.3-3.6-0.7-5.3c9.5-1.6,16.7-9.8,16.7-19.7v-14.3c0-9.9-7.3-18.1-16.7-19.7c0.5-1.7,0.7-3.5,0.7-5.3v-14.3
		c0-1.8-0.3-3.6-0.7-5.3c9.5-1.6,16.7-9.8,16.7-19.7v-14.3c0-1.7-0.2-3.4-0.7-5h17.6c11,0,20-9,20-20v-14.3
		C474.2,242.5,465.2,233.6,454.2,233.5L454.2,233.5z M401.2,209.3c2.8,0,5,2.2,5,5v14.3c0,2.8-2.2,5-5,5c-16.3,0-63.3,0-79.6,0
		v-24.3L401.2,209.3z M338.5,272.8h-16.9v-24.3h16.9c-0.4,1.6-0.7,3.3-0.7,5v14.3C337.8,269.6,338,271.2,338.5,272.8z M406.2,332.1
		v14.3c0,2.8-2.2,5-5,5h-59.1c-3.5-9-8.5-17.2-14.7-24.3h73.7C403.9,327.1,406.2,329.4,406.2,332.1z M406.2,410.7V425
		c0,2.8-2.2,5-5,5H332c5.3-7.3,9.4-15.5,12.1-24.3h57.1C403.9,405.7,406.2,408,406.2,410.7z M406.2,464.3c0,2.8-2.2,5-5,5h-79.6V445
		h79.6c2.8,0,5,2.2,5,5V464.3z M422.2,371.4v14.3c0,2.8-2.2,5-5,5c-20.2,0-47.2,0-70,0c0.3-3.1,0.5-6.1,0.5-9.3
		c0-5.1-0.5-10.1-1.4-15h70.8C419.9,366.4,422.2,368.7,422.2,371.4z M422.2,292.8v14.3c0,2.8-2.2,5-5,5c-14.8,0-84.1,0-95.6,0v-24.3
		h95.6C419.9,287.8,422.2,290.1,422.2,292.8L422.2,292.8z M459.2,267.8c0,2.8-2.2,5-5,5c-11.9,0-85.9,0-96.4,0c-2.8,0-5-2.2-5-5
		v-14.3c0-2.8,2.2-5,5-5h96.4c2.8,0,5,2.2,5,5V267.8z"/>
	<path class="st2" d="M85.4,150.7c-3.5-2.3-8.1-1.3-10.4,2.2s-1.3,8.1,2.2,10.4c6.7,4.4,11.5,6,17.6,6.6v4.3c0,4.1,3.4,7.5,7.5,7.5
		s7.5-3.4,7.5-7.5v-5.1c12.1-3.1,19.9-13.5,21.6-23.7c2.2-13.2-5-25.2-17.9-29.7c-1.2-0.4-2.5-0.9-3.7-1.3V90.6
		c5.9,0.8,10.3,3,10.5,3c3.7,1.8,8.2,0.3,10-3.4c1.9-3.7,0.4-8.2-3.3-10.1c-0.4-0.2-7.6-3.8-17.2-4.7v-3.3c0-4.1-3.4-7.5-7.5-7.5
		s-7.5,3.4-7.5,7.5v4.4c-0.4,0.1-0.8,0.2-1.2,0.3c-8.7,2.6-15.2,10.1-17,19.4c-1.6,8.6,1.2,16.9,7.3,21.7c2.8,2.2,6.3,4.3,10.9,6.4
		v30.4C91.6,154.3,89.2,153.2,85.4,150.7L85.4,150.7z M116.5,142.9c-0.6,3.8-2.9,7.8-6.8,10.1v-22.7
		C117.2,133.6,117,140.2,116.5,142.9z M93.1,106.2c-1.7-1.3-2.4-4.1-1.8-7.1c0.4-2.1,1.5-4.5,3.4-6.1v14.4
		C94.2,107,93.6,106.6,93.1,106.2z"/>
	<path class="st2" d="M189.4,114.1h35.2c4.1,0,7.5-3.4,7.5-7.5s-3.4-7.5-7.5-7.5h-35.2c-4.1,0-7.5,3.4-7.5,7.5
		S185.3,114.1,189.4,114.1z"/>
	<path class="st2" d="M189.4,150.4h75.2c4.1,0,7.5-3.4,7.5-7.5s-3.4-7.5-7.5-7.5h-75.2c-4.1,0-7.5,3.4-7.5,7.5
		S185.3,150.4,189.4,150.4L189.4,150.4z"/>
	<path class="st2" d="M106.3,238.1c0,4.1,3.4,7.5,7.5,7.5h132.7c4.1,0,7.5-3.4,7.5-7.5s-3.4-7.5-7.5-7.5H113.8
		C109.7,230.6,106.3,234,106.3,238.1z"/>
	<path class="st2" d="M246.5,278.9H113.8c-4.1,0-7.5,3.4-7.5,7.5s3.4,7.5,7.5,7.5h132.7c4.1,0,7.5-3.4,7.5-7.5
		S250.7,278.9,246.5,278.9z"/>
</g>
</svg>
