<?xml version="1.0" encoding="utf-8"?>
<!-- Generator: Adobe Illustrator 24.0.0, SVG Export Plug-In . SVG Version: 6.00 Build 0)  -->
<svg version="1.1" id="Layer_1" xmlns="http://www.w3.org/2000/svg" xmlns:xlink="http://www.w3.org/1999/xlink" x="0px" y="0px"
	 viewBox="0 0 512 512" style="enable-background:new 0 0 512 512;" xml:space="preserve">
<style type="text/css">
	.st0{fill:url(#SVGID_1_);}
	.st1{fill:#31CFFF;}
	.st2{fill:url(#SVGID_2_);}
	.st3{fill:#2D2220;}
</style>
<g id="_16-recieve">
	<g id="linear_color">
		<g id="color">
			
				<linearGradient id="SVGID_1_" gradientUnits="userSpaceOnUse" x1="291.588" y1="50.919" x2="399.8589" y2="159.1899" gradientTransform="matrix(1 0 0 -1 0 514)">
				<stop  offset="0" style="stop-color:#F5C2C2"/>
				<stop  offset="1" style="stop-color:#FAE1E1"/>
			</linearGradient>
			<path class="st0" d="M435,390c0,0-20-23-47-9c-44.9,23.3-59,41-59,41h-66.7l35.8,47.7L355,470L435,390z"/>
			<path class="st1" d="M455.3,363c-44.9,23.3-59,41-59,41l-86-8l-80-64c0,0,47.8,15.1,79,22c45,10,53-41,53-41l-132-37h-208v120
				h128l152,64l120-8l80-80C502.3,372,482.3,349,455.3,363z"/>
		</g>
		
			<linearGradient id="SVGID_2_" gradientUnits="userSpaceOnUse" x1="280.7868" y1="308.1177" x2="416.5512" y2="443.8823" gradientTransform="matrix(1 0 0 -1 0 514)">
			<stop  offset="0" style="stop-color:#F4C361"/>
			<stop  offset="1" style="stop-color:#F7D796"/>
		</linearGradient>
		<circle class="st2" cx="348.7" cy="138" r="96"/>
		<path class="st3" d="M444.4,374.1c-2.6,1.3-5.1,2.7-7.5,4c-11.1-9-31.2-17.6-53.5-6c-29.4,15.2-46.2,28.2-54.8,36.1l-20.7-1.9
			L270,376c10.6,2.9,21.4,5.7,30.9,7.8c4.4,1,8.9,1.5,13.4,1.6c9.4,0.1,18.6-2.7,26.3-7.9c20.6-14,25.1-41.7,25.3-42.8
			c0.8-5-2.3-9.8-7.2-11.2l-132-37c-0.9-0.2-1.8-0.4-2.7-0.4H16c-5.5,0-10,4.5-10,10s4.5,10,10,10h206.6l121.2,34
			c-2.4,6.7-6.8,15.7-14.5,20.9c-6.5,4.4-14.4,5.5-24.1,3.3c-30.4-6.8-77.7-21.6-78.2-21.8c-10.5-3.2-17.8,10.4-9.3,17.3l80,64
			c1.5,1.2,3.4,2,5.3,2.1l28.1,2.6l57.9,5.4c3.3,0.3,6.6-1,8.7-3.7c0.1-0.2,14-16.7,55.8-38.4c8.6-4.8,19.2-4.5,27.6,0.8l-69.6,69.6
			l-113.9,7.6l-149.8-63.1c-1.2-0.5-2.5-0.8-3.9-0.8H16c-5.5,0-10,4.5-10,10s4.5,10,10,10h126l150.1,63.2c1.2,0.5,2.5,0.8,3.9,0.8
			c0.2,0,0.4,0,0.7,0l120-8c2.4-0.2,4.7-1.2,6.4-2.9l80-80c3.7-3.7,3.9-9.7,0.5-13.6C494.8,375.4,471.3,360.2,444.4,374.1
			L444.4,374.1z M386.1,413.6l-28.6-2.7c11.2-7.8,23-14.8,35.2-21c10.2-5.3,18.9-3.5,25.1-0.5C400.8,400.1,390.9,408.8,386.1,413.6
			L386.1,413.6z"/>
		<path class="st3" d="M336,234c58.5,0,106-47.5,106-106S394.5,22,336,22S230,69.5,230,128C230.1,186.5,277.5,233.9,336,234z
			 M336,42c47.5,0,86,38.5,86,86s-38.5,86-86,86s-86-38.5-86-86C250.1,80.5,288.5,42.1,336,42z"/>
		<path class="st3" d="M327,138h17c7.7,0,14,6.3,14,14v1c0,7.7-6.3,14-14,14h-25.2c-3,0-5.5-2.5-5.5-5.5c0,0,0-0.1,0-0.1l0-1
			c0.1-5.5-4.3-10.1-9.8-10.2c-5.5-0.1-10.1,4.3-10.2,9.8l0,0l0,1c-0.3,14.1,11,25.7,25,26c0.2,0,0.3,0,0.5,0h7.2v6
			c0,5.5,4.5,10,10,10s10-4.5,10-10v-6.1c18-1.1,32-15.9,32-33.9v-1c0-18.8-15.2-34-34-34h-17c-7.7,0-14-6.3-14-14s6.3-14,14-14
			h24.8c3,0,5.5,2.5,5.5,5.5c0,0.1,0,0.2,0,0.2c-0.2,5.5,4,10.2,9.6,10.4c5.5,0.2,10.2-4,10.4-9.6l0,0c0.6-14.1-10.3-26-24.4-26.6
			c-0.4,0-0.7,0-1.1,0H346v-6c0-5.5-4.5-10-10-10s-10,4.5-10,10v6c-18.8,0.6-33.5,16.2-33,35C293.6,123.4,308.6,138,327,138L327,138
			z"/>
		<path class="st3" d="M439.1,280.9c-3.9-3.9-10.3-3.9-14.1,0.1c-3.9,3.9-3.9,10.2,0,14.1l32,32c3.9,3.9,10.2,3.9,14.1,0l32-32
			c3.9-3.9,3.9-10.3-0.1-14.1c-3.9-3.9-10.2-3.9-14.1,0L474,295.9V240c0-5.5-4.5-10-10-10s-10,4.5-10,10v55.9L439.1,280.9z"/>
		<path class="st3" d="M464,210c5.5,0,10-4.5,10-10v-8c0-5.5-4.5-10-10-10s-10,4.5-10,10v8C454,205.5,458.5,210,464,210z"/>
		<path class="st3" d="M152.9,151.1c3.9,3.9,10.2,3.9,14.1,0l32-32c3.9-3.9,3.9-10.3-0.1-14.1c-3.9-3.9-10.2-3.9-14.1,0L170,119.9
			V64c0-5.5-4.5-10-10-10s-10,4.5-10,10v55.9l-14.9-14.9c-3.9-3.9-10.3-3.9-14.1,0.1c-3.9,3.9-3.9,10.2,0,14.1L152.9,151.1z"/>
		<path class="st3" d="M160,34c5.5,0,10-4.5,10-10v-8c0-5.5-4.5-10-10-10s-10,4.5-10,10v8C150,29.5,154.5,34,160,34z"/>
		<path class="st3" d="M56.9,247.1c3.9,3.9,10.2,3.9,14.1,0l32-32c3.9-3.9,3.9-10.3-0.1-14.1c-3.9-3.9-10.2-3.9-14.1,0L74,215.9V160
			c0-5.5-4.5-10-10-10s-10,4.5-10,10v55.9l-14.9-14.9c-3.9-3.9-10.3-3.9-14.1,0.1c-3.9,3.9-3.9,10.2,0,14.1L56.9,247.1z"/>
		<path class="st3" d="M64,130c5.5,0,10-4.5,10-10v-8c0-5.5-4.5-10-10-10s-10,4.5-10,10v8C54,125.5,58.5,130,64,130z"/>
	</g>
</g>
<image style="overflow:visible;" width="64" height="64" xlink:href="f1.png"  transform="matrix(1 0 0 1 669 286)">
</image>
</svg>
