<svg height="512" viewBox="0 0 128 128" width="512" xmlns="http://www.w3.org/2000/svg"><g><path d="m34.825 6.306h62.119v115.388h-84.91v-92.597z" fill="#dfeef4"/><path d="m106.557 34.271h9.409v56.153h-9.409z" fill="#f2da30"/><path d="m115.966 90.424-4.705 13.653-4.704-13.653z" fill="#3ea2e5"/><path d="m106.557 34.271 1.521-10.348h6.366l1.522 10.348z" fill="#3ea2e5"/><path d="m34.825 29.097h-22.791l22.791-22.791z" fill="#3ea2e5"/><g fill="#f2da30"><path d="m29.514 92.569h6.675v15.045h-6.675z"/><path d="m43.939 81.998h6.675v25.615h-6.675z"/><path d="m58.364 86.078h6.675v21.536h-6.675z"/><path d="m72.789 74.707h6.675v32.906h-6.675z"/></g><g><path d="m12.035 93.841a1.75 1.75 0 0 0 1.75-1.75v-4.5a1.75 1.75 0 0 0 -3.5 0v4.5a1.749 1.749 0 0 0 1.75 1.75z"/><path d="m96.944 4.557h-62.119a1.808 1.808 0 0 0 -.315.031c-.011 0-.022 0-.033 0a1.7 1.7 0 0 0 -.421.15c-.035.017-.067.035-.1.055a1.766 1.766 0 0 0 -.368.273l-22.788 22.793a1.744 1.744 0 0 0 -.276.372c-.017.031-.034.061-.05.093a1.76 1.76 0 0 0 -.153.428v.018a1.76 1.76 0 0 0 -.033.327v49.84a1.75 1.75 0 0 0 3.5 0v-48.09h21.04a1.751 1.751 0 0 0 1.75-1.75v-21.04h58.616v111.886h-81.409v-19.614a1.75 1.75 0 0 0 -3.5 0v21.364a1.749 1.749 0 0 0 1.75 1.75h84.909a1.75 1.75 0 0 0 1.75-1.75v-115.386a1.75 1.75 0 0 0 -1.75-1.75zm-63.869 22.79h-16.815l16.815-16.815z"/><path d="m115.965 41.322a1.749 1.749 0 0 0 1.75-1.75v-5.3c0-.044-.009-.084-.012-.126s0-.086-.006-.129l-1.522-10.348a1.75 1.75 0 0 0 -1.732-1.5h-6.364a1.75 1.75 0 0 0 -1.732 1.5l-1.522 10.348c-.006.043 0 .086-.006.129s-.012.082-.012.126v56.152c0 .037.008.071.01.106a1.564 1.564 0 0 0 .019.181 1.588 1.588 0 0 0 .043.184c.009.033.012.067.023.1l4.7 13.652a1.75 1.75 0 0 0 3.309 0l4.709-13.647c.011-.033.014-.067.023-.1a1.588 1.588 0 0 0 .043-.184 1.564 1.564 0 0 0 .019-.181c0-.035.01-.069.01-.106v-43.179a1.75 1.75 0 0 0 -3.5 0v20.857h-5.908v-32.086h5.908v3.551a1.75 1.75 0 0 0 1.75 1.75zm-3.033-15.649 1.007 6.848h-5.356l1.007-6.848zm-1.671 73.032-2.25-6.531h4.5zm2.954-27.1v17.069h-5.908v-17.067z"/><path d="m29.514 55.372h49.95a1.75 1.75 0 0 0 0-3.5h-49.95a1.75 1.75 0 1 0 0 3.5z"/><path d="m29.514 66.3h49.95a1.75 1.75 0 0 0 0-3.5h-49.95a1.75 1.75 0 1 0 0 3.5z"/><path d="m27.764 42.691a1.75 1.75 0 0 0 1.75 1.75h49.95a1.75 1.75 0 0 0 0-3.5h-49.95a1.75 1.75 0 0 0 -1.75 1.75z"/><path d="m79.464 22.137a1.75 1.75 0 0 0 0-3.5h-26.577a1.75 1.75 0 0 0 0 3.5z"/><path d="m27.764 107.613a1.749 1.749 0 0 0 1.75 1.75h6.675a1.75 1.75 0 0 0 1.75-1.75v-15.045a1.751 1.751 0 0 0 -1.75-1.75h-6.675a1.75 1.75 0 0 0 -1.75 1.75zm3.5-13.3h3.175v11.545h-3.175z"/><path d="m43.939 80.248a1.751 1.751 0 0 0 -1.75 1.752v25.615a1.75 1.75 0 0 0 1.75 1.75h6.675a1.749 1.749 0 0 0 1.75-1.75v-25.615a1.75 1.75 0 0 0 -1.75-1.75zm4.925 25.615h-3.175v-22.115h3.175z"/><path d="m58.364 84.328a1.75 1.75 0 0 0 -1.75 1.75v21.535a1.75 1.75 0 0 0 1.75 1.75h6.676a1.75 1.75 0 0 0 1.75-1.75v-21.535a1.75 1.75 0 0 0 -1.75-1.75zm4.926 21.535h-3.176v-18.035h3.176z"/><path d="m79.464 72.957h-6.674a1.75 1.75 0 0 0 -1.75 1.75v32.906a1.749 1.749 0 0 0 1.75 1.75h6.674a1.749 1.749 0 0 0 1.75-1.75v-32.906a1.75 1.75 0 0 0 -1.75-1.75zm-1.75 32.906h-3.174v-29.406h3.174z"/></g></g></svg>